<?xml version="1.0" encoding="UTF-8"?>
<svg xmlns="http://www.w3.org/2000/svg" xmlns:figma="http://www.figma.com/figma/ns" xmlns:xlink="http://www.w3.org/1999/xlink" width="750" height="1231" viewBox="0 0 750 1231" version="1.1">
   <title>Mask Group</title>
   <desc>Created using Figma</desc>
    <style>
        * {
            stroke: none;
<!--            stroke: red;-->
            fill: blue;
        }
    </style>
   <g id="Canvas" transform="translate(189 151)" figma:type="canvas">
      <g id="Mask Group" style="mix-blend-mode:normal;" figma:type="frame">
         <g id="Vector 11" style="mix-blend-mode:normal;" figma:type="vector">
            <use xlink:href="#path0_stroke" transform="translate(476.5 356.398)" style="mix-blend-mode:normal;" />
         </g>
         <g id="Vector 10" style="mix-blend-mode:normal;" figma:type="vector">
            <use xlink:href="#path1_stroke" transform="translate(-145.283 432)" style="mix-blend-mode:normal;" />
         </g>
         <g id="Vector 6" style="mix-blend-mode:normal;" figma:type="vector">
            <use xlink:href="#path2_stroke" transform="translate(-11.5 724)" style="mix-blend-mode:normal;" />
         </g>
         <g id="Vector 9" style="mix-blend-mode:normal;" figma:type="vector">
            <use xlink:href="#path3_stroke" transform="translate(-171 353)" style="mix-blend-mode:normal;" />
         </g>
         <g id="Vector 5" style="mix-blend-mode:normal;" figma:type="vector">
            <use xlink:href="#path4_stroke" transform="translate(58 625.613)" style="mix-blend-mode:normal;" />
         </g>
         <g id="Vector 4" style="mix-blend-mode:normal;" figma:type="vector">
            <use xlink:href="#path5_stroke" transform="translate(259.5 382.025)" style="mix-blend-mode:normal;" />
         </g>
         <g id="Vector 3" style="mix-blend-mode:normal;" figma:type="vector">
            <use xlink:href="#path6_stroke" transform="translate(-23.5 386.694)" style="mix-blend-mode:normal;" />
         </g>
         <g id="Vector 7" style="mix-blend-mode:normal;" figma:type="vector">
            <use xlink:href="#path7_stroke" transform="translate(-79.8738 284.557)" style="mix-blend-mode:normal;" />
         </g>
         <g id="Vector 8" style="mix-blend-mode:normal;" figma:type="vector">
            <use xlink:href="#path8_stroke" transform="translate(-1 872)" style="mix-blend-mode:normal;" />
         </g>
         <g id="Vector 12" style="mix-blend-mode:normal;" figma:type="vector">
            <use xlink:href="#path9_stroke" transform="translate(127.735 374)" style="mix-blend-mode:normal;" />
         </g>
         <g id="Vector 2" style="mix-blend-mode:normal;" figma:type="vector">
            <use xlink:href="#path10_stroke" transform="translate(-188.016 -150.362)" style="mix-blend-mode:normal;" />
         </g>
         <g id="Vector" style="mix-blend-mode:normal;isolation:isolate;" figma:type="vector">
            <use xlink:href="#path11_stroke" transform="translate(-126.5 338.33)" fill="#060606" style="mix-blend-mode:normal;" />
         </g>
         <g id="Vector 13" style="mix-blend-mode:normal;" figma:type="vector">
            <use xlink:href="#path12_stroke" transform="translate(-133.306 49.1366)" style="mix-blend-mode:normal;" />
         </g>
      </g>
   </g>
   <defs>
      <path id="path0_stroke" d="M 68.5 44.1025L 68.9977 44.1504L 69.0061 44.0633L 68.9844 43.9785L 68.5 44.1025ZM 47.5 121.602L 47.9575 121.804L 48.0055 121.695L 47.9993 121.577L 47.5 121.602ZM 30.4672 22.2806C 33.2029 15.109 36.0055 9.26651 38.9224 5.41594C 41.8412 1.55881 44.7088 -0.0880726 47.5769 0.689196C 50.5284 1.48909 53.7569 4.8984 57.2136 11.9666C 60.66 19.0114 64.2491 29.5058 68.0156 44.2264L 68.9844 43.9785C 65.2074 29.2198 61.584 18.6291 58.1119 11.5272C 54.6502 4.4487 51.2543 0.64975 47.8384 -0.275987C 44.3391 -1.22435 41.0964 0.885784 38.125 4.81251C 35.1517 8.7458 32.2842 14.714 29.5328 21.9242L 30.4672 22.2806ZM 68.0023 44.0546C 66.4078 60.6153 65.0336 73.8184 62.9349 84.5193C 60.8403 95.2088 58.049 103.332 53.5879 109.819L 54.4121 110.386C 58.9421 103.782 61.806 95.4683 63.9163 84.7117C 66.0225 73.9666 67.4028 60.715 68.9977 44.1504L 68.0023 44.0546ZM 6.95613 76.1005C 20.6721 77.3087 30.1535 79.6578 36.4728 86.1417C 42.7949 92.6283 46.0542 103.36 47.0007 121.628L 47.9993 121.577C 47.0507 103.268 43.7821 92.2085 37.189 85.4437C 30.5931 78.6761 20.7721 76.3136 7.04387 75.1043L 6.95613 76.1005ZM 47.0425 121.401C 40.4539 136.349 34.5429 145.729 27.3762 151.521C 20.2292 157.298 11.7739 159.552 -0.0233402 160.103L 0.0233402 161.102C 11.9251 160.546 20.6243 158.264 28.0048 152.299C 35.3655 146.35 41.355 136.784 47.9575 121.804L 47.0425 121.401Z" />
      <path id="path1_stroke" d="M 24.0089 -0.41821C 8.62411 9.66314 -0.325118 21.036 -0.49747 32.3418C -0.670429 43.6874 7.9875 54.6643 27.0642 63.9496L 27.5018 63.0504C 8.53092 53.8167 0.338606 43.1023 0.502414 32.357C 0.66683 21.5718 9.24137 10.4542 24.557 0.41821L 24.0089 -0.41821Z" />
      <path id="path2_stroke" d="M -0.498317 44.041L 9.00168 159.541L 9.99832 159.459L 0.498317 43.959L -0.498317 44.041ZM 429.5 0L 429.5 148.463L 430.5 148.463L 430.5 0L 429.5 0Z" />
      <path id="path3_stroke" d="M 2.56518 7.15679L 2.07722 7.0477L 2.07262 7.06827L 2.06977 7.08915L 2.56518 7.15679ZM 27.494 24.8997C 23.584 18.3778 20.2783 13.1333 17.4779 9.15644C 14.6815 5.18557 12.3548 2.42812 10.3944 0.912709C 9.41308 0.154135 8.48422 -0.324618 7.60131 -0.460313C 6.69387 -0.599778 5.87284 -0.370282 5.15728 0.207494C 3.78962 1.31181 2.83156 3.67349 2.07722 7.0477L 3.05313 7.26588C 3.81089 3.87637 4.71783 1.84762 5.7855 0.985528C 6.28761 0.580101 6.82684 0.4324 7.4494 0.528082C 8.09651 0.627536 8.86742 0.996278 9.78282 1.70389C 11.6158 3.12083 13.8703 5.7705 16.6603 9.73222C 19.4463 13.688 22.7321 18.9015 26.6363 25.4139L 27.494 24.8997ZM 2.06977 7.08915C -3.00698 44.294 -1.21973 63.6434 13.6164 93.8772L 14.514 93.4364C -0.257076 63.3727 -2.00722 44.3159 3.06058 7.22443L 2.06977 7.08915Z" />
      <path id="path4_stroke" d="M 0 50.3869L -0.412256 50.104L -0.624087 50.4127L -0.387553 50.7029L 0 50.3869ZM 46.5 9.38694L 46.3851 8.90031L 46.3189 8.91595L 46.2592 8.94876L 46.5 9.38694ZM 102.5 3.38694L 102.489 3.88681L 102.535 3.88784L 102.58 3.88045L 102.5 3.38694ZM 172.5 3.38694L 172.417 3.88009L 172.423 3.88101L 172.5 3.38694ZM 222 24.3869L 222.377 24.0584L 222.343 24.02L 222.303 23.9891L 222 24.3869ZM 239 43.8869L 239.4 44.1869L 239.643 43.8633L 239.377 43.5584L 239 43.8869ZM 218 71.8869L 218.192 72.3487L 218.318 72.2963L 218.4 72.1869L 218 71.8869ZM 165 101.387L 165.163 101.86L 165.228 101.837L 165.284 101.798L 165 101.387ZM 95 106.887L 95.1061 106.398L 95.074 106.391L 95.0412 106.389L 95 106.887ZM 46.5 87.8869L 46.791 87.4804L 46.7413 87.4448L 46.6845 87.4222L 46.5 87.8869ZM 0.412256 50.6699C 13.3315 31.8392 23.1491 22.7879 46.7408 9.82511L 46.2592 8.94876C 22.5651 21.9762 12.5756 31.1845 -0.412256 50.104L 0.412256 50.6699ZM 46.6149 9.87356C 67.8942 4.85036 80.0587 3.38303 102.489 3.88681L 102.511 2.88706C 80.0099 2.38422 67.7192 3.86579 46.3851 8.90031L 46.6149 9.87356ZM 102.58 3.88045C 129.879 -0.562117 145.124 -0.698675 172.417 3.88005L 172.583 2.89382C 145.203 -1.69559 129.794 -1.5585 102.42 2.89342L 102.58 3.88045ZM 172.423 3.88101C 191.482 6.84165 202.179 9.92684 221.697 24.7848L 222.303 23.9891C 202.63 9.01294 191.768 5.87422 172.577 2.89286L 172.423 3.88101ZM 221.623 24.7155L 238.623 44.2155L 239.377 43.5584L 222.377 24.0584L 221.623 24.7155ZM 238.6 43.5869L 217.6 71.5869L 218.4 72.1869L 239.4 44.1869L 238.6 43.5869ZM 217.808 71.4251C 197.756 79.7471 186.109 86.2163 164.716 100.975L 165.284 101.798C 186.636 87.0659 198.191 80.6475 218.192 72.3487L 217.808 71.4251ZM 164.837 100.914C 138.517 110.01 123.031 112.473 95.1061 106.398L 94.8939 107.376C 123.003 113.473 138.759 110.98 165.163 101.86L 164.837 100.914ZM 95.0412 106.389C 75.3187 104.764 65.1705 100.64 46.791 87.4804L 46.209 88.2935C 64.688 101.516 75.0867 105.737 94.9588 107.385L 95.0412 106.389ZM 46.6845 87.4222C 26.0153 79.2291 16.4618 69.7915 0.387553 50.071L -0.387553 50.7029C 15.722 70.4644 25.4688 80.0665 46.3155 88.3517L 46.6845 87.4222ZM -0.0263371 50.8862C 95.6784 55.934 147.949 54.1889 239.053 44.3841L 238.947 43.3898C 147.878 53.1914 95.6881 54.934 0.0263371 49.8876L -0.0263371 50.8862Z" />
      <path id="path5_stroke" d="M 0 27.9753L -0.325683 27.596L -1.15881 28.3112L -0.0723647 28.4701L 0 27.9753ZM 100.5 20.4753L 100.737 20.9156L 101.469 20.5214L 100.778 20.0595L 100.5 20.4753ZM 24.5 9.55647L 24.2395 9.1297L 24.5 9.55647ZM 63 32.0846L 63.0458 32.5825L 63 32.0846ZM 0.325683 28.3547C 9.52548 20.4568 17.5137 14.4058 24.7605 9.98325L 24.2395 9.1297C 16.9506 13.5794 8.89762 19.6784 -0.325683 27.596L 0.325683 28.3547ZM -0.0723647 28.4701C 16.3056 30.8656 29.668 32.3346 40.9759 32.8795L 41.0241 31.8807C 29.7467 31.3377 16.4326 29.8737 0.0723647 27.4806L -0.0723647 28.4701ZM 24.0097 9.65438C 25.0492 14.8518 26.5312 18.7722 29.0925 22.3028C 31.6543 25.8208 35.3248 29.0038 40.7126 32.7893L 41.2874 31.971C 35.9404 28.2157 32.3909 25.1445 29.9013 21.7147C 27.4113 18.2975 26.0106 14.5765 24.9903 9.45856L 24.0097 9.65438ZM 24.7605 9.98325C 34.0464 4.31256 42.0269 1.35621 49.7362 0.662037C 57.4359 -0.0412557 64.7751 1.52139 72.8028 4.96901L 73.1972 4.05005C 65.0777 0.568256 57.4953 -1.03949 49.6459 -0.333883C 41.8062 0.380846 33.6103 3.41267 24.2395 9.1297L 24.7605 9.98325ZM 72.8028 4.96901C 80.978 8.47582 89.7804 13.9184 100.222 20.8911L 100.778 20.0595C 90.3211 13.0772 81.4393 7.5886 73.1972 4.05005L 72.8028 4.96901ZM 40.9759 32.8795C 49.3016 33.2804 56.5389 33.1805 63.0458 32.5825L 62.9542 31.5867C 56.4862 32.1819 49.3187 32.2805 41.0241 31.8807L 40.9759 32.8795ZM 63.0458 32.5825C 77.743 31.2269 88.8352 27.3179 100.737 20.9156L 100.263 20.035C 88.4308 26.4033 77.5293 30.25 62.9542 31.5867L 63.0458 32.5825ZM 72.5017 4.55076C 73.1841 12.7991 72.6802 18.0304 71.0566 21.9617C 69.4357 25.9138 66.6786 28.5745 62.692 31.6907L 63.308 32.4785C 67.3357 29.3283 70.2632 26.4753 71.9809 22.3434C 73.696 18.1907 74.1849 12.7677 73.4983 4.46831L 72.5017 4.55076Z" />
      <path id="path6_stroke" d="M 175.5 185.806L 175.462 186.304L 176.966 186.418L 175.828 185.428L 175.5 185.806ZM 136.5 183.806L 136.007 183.724L 135.794 185.008L 136.812 184.197L 136.5 183.806ZM 213 183.806L 212.648 183.45L 211.428 184.659L 213.106 184.294L 213 183.806ZM 250.5 178.306L 250.825 177.925L 250.772 177.88L 250.708 177.851L 250.5 178.306ZM 255 185.806L 254.903 186.296L 255.55 186.423L 255.498 185.767L 255 185.806ZM 113 29.3055L 113.034 29.8044L 114.124 29.7299L 113.355 28.9537L 113 29.3055ZM 0 14.8056L -0.180223 14.3392L -1.20303 14.7344L -0.233945 15.2475L 0 14.8056ZM 81.7073 5.03746L 81.9172 4.58365L 81.7073 5.03746ZM 65.9039 31.0388L 65.8959 31.5387L 65.9039 31.0388ZM 52.9445 0.203891L 52.9815 0.702517L 52.9445 0.203891ZM 136.248 123.873C 108.004 140.331 97.6458 159.412 100.18 174.389C 102.72 189.398 118.124 199.888 140.513 199.305L 140.487 198.306C 118.366 198.882 103.589 188.543 101.166 174.222C 98.7374 159.869 108.634 141.121 136.752 124.738L 136.248 123.873ZM 247.895 124.794C 270.413 129.65 286.4 145.543 288.914 161.511C 290.168 169.476 288.079 177.483 281.752 184.218C 275.413 190.964 264.787 196.467 248.912 199.313L 249.088 200.298C 265.093 197.428 275.947 191.857 282.481 184.902C 289.026 177.936 291.202 169.616 289.902 161.356C 287.308 144.875 270.915 128.735 248.105 123.817L 247.895 124.794ZM 175.828 185.428C 168.791 179.307 162.991 175.475 156.857 174.872C 150.698 174.267 144.334 176.924 136.188 183.415L 136.812 184.197C 144.888 177.762 150.99 175.3 156.759 175.867C 162.552 176.437 168.142 180.068 175.172 186.183L 175.828 185.428ZM 136.993 183.887C 137.036 183.627 137.061 183.417 137.069 183.277C 137.073 183.2 137.072 183.112 137.066 183.054C 137.061 183.016 137.048 182.95 137.035 182.908C 137.02 182.865 136.973 182.736 136.838 182.641C 136.654 182.511 136.448 182.533 136.312 182.6C 136.207 182.652 136.145 182.727 136.121 182.757C 136.066 182.827 136.029 182.905 136.007 182.955C 135.963 183.058 135.91 183.218 135.863 183.392C 135.685 184.059 135.48 185.35 135.552 186.691C 135.627 188.027 135.98 189.531 136.994 190.596C 138.037 191.69 139.676 192.219 142.086 191.798L 141.914 190.813C 139.729 191.195 138.466 190.69 137.718 189.906C 136.943 189.092 136.62 187.873 136.551 186.635C 136.479 185.402 136.663 184.267 136.829 183.65C 136.868 183.504 136.897 183.415 136.924 183.354C 136.937 183.324 136.933 183.342 136.906 183.376C 136.897 183.388 136.848 183.451 136.754 183.497C 136.63 183.558 136.435 183.58 136.261 183.458C 136.135 183.369 136.096 183.253 136.088 183.229C 136.075 183.191 136.072 183.165 136.072 183.163C 136.07 183.154 136.073 183.177 136.07 183.223C 136.065 183.331 136.046 183.486 136.007 183.724L 136.993 183.887ZM 142.086 191.798C 146.726 190.985 151.236 189.312 156.494 187.998C 161.758 186.682 167.756 185.718 175.462 186.304L 175.538 185.307C 167.714 184.719 161.557 185.702 156.251 187.028C 150.94 188.356 146.465 190.02 141.914 190.813L 142.086 191.798ZM 213.352 184.161C 219.418 178.153 224.144 174.793 229.559 173.907C 234.981 173.021 241.199 174.6 250.292 178.76L 250.708 177.851C 241.583 173.676 235.131 171.983 229.397 172.92C 223.656 173.859 218.74 177.417 212.648 183.45L 213.352 184.161ZM 213.106 184.294C 227.563 181.143 238.597 183.086 254.903 186.296L 255.097 185.315C 238.78 182.103 227.543 180.143 212.894 183.317L 213.106 184.294ZM 255.498 185.767C 255.383 184.303 255.111 183.074 254.421 181.863C 253.734 180.675 252.608 179.45 250.825 177.925L 250.175 178.686C 251.915 180.171 252.928 181.267 253.554 182.362C 254.178 183.434 254.394 184.449 254.502 185.844L 255.498 185.767ZM 113.355 28.9537C 101.942 17.4334 92.1662 9.32876 81.9172 4.58365L 81.4974 5.49126C 91.6326 10.1745 101.267 18.171 112.645 29.6574L 113.355 28.9537ZM 65.8959 31.5387C 78.6372 31.7429 93.8676 31.1145 113.034 29.8044L 112.966 28.8067C 93.8129 30.116 78.6246 30.743 65.912 30.5388L 65.8959 31.5387ZM 81.208 5.06326C 81.6042 12.7308 80.7072 17.707 78.2714 21.4511C 75.8318 25.2009 71.7956 27.7995 65.6963 30.5839L 66.1116 31.4936C 72.2422 28.6949 76.5058 25.9986 79.1096 21.9964C 81.7171 17.9885 82.6068 12.7556 82.2067 5.01165L 81.208 5.06326ZM 36.958 2.25687C 26.4467 4.69305 14.3148 8.73816 -0.180223 14.3392L 0.180223 15.272C 14.6533 9.67914 26.718 5.65554 37.1838 3.23106L 36.958 2.25687ZM -0.233945 15.2475C 15.3283 23.4851 28.3743 28.2777 46.2396 30.3488L 46.3546 29.3554C 28.6059 27.3049 15.7356 22.5718 0.233945 14.3637L -0.233945 15.2475ZM 46.2396 30.3488C 52.1642 31.0342 58.6341 31.4221 65.8959 31.5387L 65.912 30.5388C 58.672 30.4228 52.2517 30.0381 46.3546 29.3554L 46.2396 30.3488ZM 36.5813 2.64239C 35.2375 9.11928 35.2044 13.8731 36.7283 18.1012C 38.2496 22.322 41.2981 25.9486 45.9592 30.2207L 46.6349 29.4835C 42.0057 25.2406 39.1059 21.7488 37.6691 17.7621C 36.2348 13.7827 36.2338 9.23995 37.5605 2.84554L 36.5813 2.64239ZM 81.9172 4.58365C 73.0906 0.505734 63.8402 -1.10291 52.9074 -0.294736L 52.9815 0.702517C 63.7912 -0.104111 72.7926 1.46028 81.4974 5.49126L 81.9172 4.58365ZM 52.9074 -0.294736C 47.9908 0.070884 42.7039 0.925777 36.958 2.25687L 37.1838 3.23106C 42.8967 1.90701 48.1078 1.06402 52.9815 0.702517L 52.9074 -0.294736Z" />
      <path id="path7_stroke" d="M 0.873805 37.4431L 0.601709 37.0237L 0.512066 37.0818L 0.45402 37.1715L 0.873805 37.4431ZM 56.3738 1.94316L 56.2184 1.46787L 56.2125 1.4699L 56.3738 1.94316ZM 167.374 30.9432L 167.592 30.4935L 167.579 30.4872L 167.566 30.4816L 167.374 30.9432ZM 167.374 54.4431L 167.49 53.9569L 167.374 54.4431ZM 136.874 44.9431L 137 44.4594L 136.874 44.9431ZM 493.374 39.4431L 493.409 39.9419L 494.95 39.8344L 493.638 39.0185L 493.374 39.4431ZM 438.374 1.94316L 438.546 1.47372L 438.447 1.43748L 438.342 1.44417L 438.374 1.94316ZM 438.374 37.4431L 438.386 37.943L 438.374 37.4431ZM 34.3738 9.44315L 34.2125 8.96989L 32.4545 9.56919L 34.2757 9.93344L 34.3738 9.44315ZM 39.3738 10.4431L 39.5595 10.9074L 41.1212 10.2827L 39.4719 9.95286L 39.3738 10.4431ZM 24.3738 16.4431L 24.1881 15.9789L 22.7524 16.5532L 24.2525 16.9282L 24.3738 16.4431ZM 30.3738 17.9431L 30.5277 18.4189L 32.1887 17.8815L 30.4951 17.4581L 30.3738 17.9431ZM 13.3738 23.4431L 13.2199 22.9674L 11.7714 23.4361L 13.2157 23.9175L 13.3738 23.4431ZM 19.3738 25.4431L 19.6459 25.8626L 20.5174 25.2973L 19.5319 24.9688L 19.3738 25.4431ZM 453.374 7.44315L 453.651 7.85917L 454.471 7.3128L 453.546 6.97371L 453.374 7.44315ZM 447.374 11.4431L 447.096 11.0271L 446.188 11.6327L 447.24 11.9249L 447.374 11.4431ZM 465.374 16.4431L 465.597 16.8904L 466.76 16.3092L 465.508 15.9614L 465.374 16.4431ZM 458.374 19.9431L 458.15 19.4959L 456.896 20.1231L 458.264 20.431L 458.374 19.9431ZM 478.374 24.4431L 478.727 24.7967L 479.369 24.1547L 478.484 23.9553L 478.374 24.4431ZM 474.874 27.9431L 474.52 27.5896L 474.075 28.0351L 474.61 28.3678L 474.874 27.9431ZM 56.5292 2.4184C 69.3625 -1.77709 87.1739 1.33696 106.773 7.60765C 126.349 13.87 147.579 23.237 167.182 31.4047L 167.566 30.4816C 147.973 22.318 126.704 12.935 107.078 6.65521C 87.4761 0.383716 69.3851 -2.83658 56.2184 1.46791L 56.5292 2.4184ZM 205.984 60.7564C 207.427 62.552 208.047 63.7628 208.133 64.5163C 208.172 64.8645 208.093 65.0681 207.973 65.2046C 207.84 65.3562 207.592 65.498 207.162 65.5846C 206.293 65.7597 204.933 65.6606 203.157 65.3173C 201.391 64.9764 199.294 64.4114 196.972 63.7018C 192.323 62.2816 186.843 60.2997 181.58 58.4452C 176.317 56.5907 171.26 54.8606 167.49 53.9569L 167.257 54.9294C 170.981 55.821 175.989 57.5353 181.248 59.3884C 186.507 61.2415 192.007 63.2303 196.679 64.6581C 199.018 65.3725 201.166 65.9508 202.967 66.2992C 204.758 66.6452 206.285 66.7815 207.36 66.5648C 207.902 66.4555 208.39 66.2446 208.724 65.865C 209.071 65.4704 209.19 64.9644 209.126 64.4029C 209.005 63.3369 208.209 61.9279 206.764 60.1299L 205.984 60.7564ZM 167.49 53.9569C 155.422 51.0697 149.129 47.6288 137 44.4594L 136.748 45.4269C 148.76 48.5583 155.062 52.0028 167.257 54.9294L 167.49 53.9569ZM 137 44.4594C 111.17 37.7181 74.3285 40.1049 45.415 42.0321C 30.9439 42.9966 18.4556 43.8485 10.2729 43.3987C 6.16006 43.1731 3.25054 42.6215 1.71126 41.67C 0.963474 41.2078 0.59916 40.689 0.518102 40.1118C 0.433969 39.5127 0.636603 38.7301 1.29359 37.7148L 0.45402 37.1715C -0.263993 38.2812 -0.604078 39.3116 -0.472181 40.2509C -0.33721 41.212 0.273253 41.9568 1.18546 42.5206C 2.96616 43.6214 6.11748 44.1722 10.2181 44.3972C 18.4622 44.8485 31.0112 43.9944 45.4816 43.0299C 74.4511 41.0989 111.109 38.7356 136.748 45.4269L 137 44.4594ZM 438.342 1.44417C 386.639 4.73296 349.163 6.10146 319.555 30.5577L 320.192 31.3287C 349.496 7.12359 386.583 5.73854 438.406 2.44215L 438.342 1.44417ZM 319.555 30.5577C 312.177 36.6522 307.772 41.3415 305.401 44.9631C 303.037 48.574 302.629 51.233 303.488 53.1805C 304.337 55.1058 306.338 56.1245 308.272 56.683C 310.22 57.2428 312.255 57.3833 313.347 57.4424L 313.401 56.4439C 312.316 56.3851 310.393 56.258 308.549 55.7223C 306.691 55.1855 305.066 54.2808 304.403 52.7769C 303.749 51.2953 303.941 49.0191 306.238 45.5108C 308.527 42.0134 312.843 37.3994 320.192 31.3287L 319.555 30.5577ZM 313.347 57.4424C 313.679 57.4604 314.3 57.391 315.124 57.2682C 315.965 57.1426 317.077 56.9512 318.423 56.7044C 321.112 56.2113 324.761 55.4931 329.14 54.6223C 337.897 52.8807 349.583 50.5272 362.399 48.1361C 388.033 43.3537 418.155 38.4251 438.386 37.943L 438.362 36.9433C 418.062 37.4294 387.861 42.3687 362.216 47.1531C 349.393 49.5455 337.701 51.9002 328.945 53.6415C 324.567 54.5121 320.926 55.2289 318.242 55.7208C 316.902 55.9666 315.806 56.1552 314.976 56.2791C 314.128 56.4057 313.613 56.4553 313.401 56.4439L 313.347 57.4424ZM 438.386 37.943C 461.89 37.3709 471.794 41.4368 493.409 39.9419L 493.339 38.9444C 471.953 40.4495 462.072 36.3876 438.362 36.9433L 438.386 37.943ZM 167.155 31.3928C 185.612 40.3672 194.482 46.4358 205.984 60.7564L 206.764 60.1299C 195.161 45.7021 186.115 39.5027 167.592 30.4935L 167.155 31.3928ZM 56.2125 1.4699L 34.2125 8.96989L 34.5351 9.9164L 56.5351 2.41641L 56.2125 1.4699ZM 34.2757 9.93344L 39.2757 10.9334L 39.4719 9.95286L 34.4719 8.95286L 34.2757 9.93344ZM 39.1881 9.97891L 24.1881 15.9789L 24.5595 16.9074L 39.5595 10.9074L 39.1881 9.97891ZM 24.2525 16.9282L 30.2525 18.4282L 30.4951 17.4581L 24.4951 15.9581L 24.2525 16.9282ZM 30.2199 17.4674L 13.2199 22.9674L 13.5277 23.9189L 30.5277 18.4189L 30.2199 17.4674ZM 13.2157 23.9175L 19.2157 25.9175L 19.5319 24.9688L 13.5319 22.9688L 13.2157 23.9175ZM 19.1017 25.0237L 0.601709 37.0237L 1.1459 37.8626L 19.6459 25.8626L 19.1017 25.0237ZM 438.202 2.41259L 453.202 7.91258L 453.546 6.97371L 438.546 1.47372L 438.202 2.41259ZM 453.096 7.02712L 447.096 11.0271L 447.651 11.8592L 453.651 7.85917L 453.096 7.02712ZM 447.24 11.9249L 465.24 16.9249L 465.508 15.9614L 447.508 10.9614L 447.24 11.9249ZM 465.15 15.9959L 458.15 19.4959L 458.597 20.3904L 465.597 16.8904L 465.15 15.9959ZM 458.264 20.431L 478.264 24.931L 478.484 23.9553L 458.484 19.4553L 458.264 20.431ZM 478.02 24.0896L 474.52 27.5896L 475.227 28.2967L 478.727 24.7967L 478.02 24.0896ZM 474.61 28.3678L 493.11 39.8678L 493.638 39.0185L 475.138 27.5185L 474.61 28.3678Z" />
      <path id="path8_stroke" d="M 78 112L 78.359 111.652L 78.3354 111.628L 78.3088 111.607L 78 112ZM 198 201L 197.774 201.446L 197.814 201.466L 197.856 201.479L 198 201ZM 218 207L 217.856 207.479L 218.085 207.548L 218.282 207.413L 218 207ZM 391 53.5L 390.648 53.1448L 390.629 53.1642L 390.611 53.1856L 391 53.5ZM -0.482516 13.1311C 11.7135 57.9538 33.9806 78.0771 77.6912 112.393L 78.3088 111.607C 34.6248 77.3122 12.5656 57.4304 0.482516 12.8689L -0.482516 13.1311ZM 77.641 112.348C 122.445 158.561 149.025 176.797 197.774 201.446L 198.226 200.554C 149.535 175.937 123.09 157.797 78.359 111.652L 77.641 112.348ZM 197.856 201.479L 217.856 207.479L 218.144 206.521L 198.144 200.521L 197.856 201.479ZM 218.282 207.413C 304.69 148.284 342.225 114.609 391.389 53.8144L 390.611 53.1856C 341.5 113.92 304.073 147.498 217.718 206.587L 218.282 207.413ZM 391.352 53.8552C 399.695 45.5889 405.616 38.6134 409.998 30.4849C 414.374 22.3569 417.235 13.0309 419.493 0.0858674L 418.507 -0.0858674C 416.262 12.7981 413.452 21.9713 409.118 30.0106C 404.79 38.0495 398.962 44.9094 390.648 53.1448L 391.352 53.8552Z" />
      <path id="path9_stroke" d="M -0.112685 0.487137C 31.9749 7.90526 50.0377 7.28012 82.1036 0.489145L 81.8964 -0.489145C 49.9163 6.28753 32.0711 6.90989 0.112685 -0.487137L -0.112685 0.487137Z" />
      <path id="path10_stroke" d="M 57.0156 510.862L 56.6491 511.202L 57.4183 510.566L 57.0156 510.862ZM 20.5156 491.862L 20.4097 491.373L 20.3511 491.386L 20.2972 491.412L 20.5156 491.862ZM 10.5156 501.862L 10.086 501.606L 10.0798 501.617L 10.5156 501.862ZM 0.0155535 548.862L -0.484425 548.867L -0.483632 548.953L -0.453901 549.034L 0.0155535 548.862ZM 57.0156 704.362L 57.5134 704.408L 57.5238 704.296L 57.485 704.19L 57.0156 704.362ZM 68.0156 736.862L 67.6942 737.245L 67.7735 737.312L 67.8727 737.341L 68.0156 736.862ZM 92.5156 739.362L 92.9978 739.23L 92.89 738.837L 92.483 738.863L 92.5156 739.362ZM 114.016 817.862L 113.533 817.994L 113.538 818.012L 113.545 818.03L 114.016 817.862ZM 176.016 926.362L 175.631 926.681L 175.641 926.693L 175.651 926.704L 176.016 926.362ZM 295.516 1018.86L 295.276 1019.3L 295.317 1019.32L 295.363 1019.34L 295.516 1018.86ZM 425.016 1022.86L 425.137 1023.35L 425.166 1023.34L 425.194 1023.33L 425.016 1022.86ZM 564.016 935.862L 564.354 936.23L 564.379 936.207L 564.4 936.181L 564.016 935.862ZM 623.516 831.362L 623.052 831.176L 623.049 831.183L 623.046 831.19L 623.516 831.362ZM 648.516 736.362L 648.702 735.898L 648.116 735.663L 648.021 736.287L 648.516 736.362ZM 688.516 731.862L 688.874 732.211L 688.932 732.151L 688.968 732.075L 688.516 731.862ZM 745.516 574.362L 745.029 574.245L 745.029 574.247L 745.516 574.362ZM 675.516 519.862L 675.162 520.216L 675.583 520.636L 675.925 520.149L 675.516 519.862ZM 666.016 510.362L 665.663 510.008L 665.308 510.362L 665.662 510.716L 666.016 510.362ZM 681.062 495.362L 681.415 495.716L 682.272 494.862L 681.062 494.862L 681.062 495.362ZM 675.516 495.362L 675.062 495.153L 674.734 495.862L 675.516 495.862L 675.516 495.362ZM 684.516 475.862L 684.97 476.072L 685.297 475.362L 684.516 475.362L 684.516 475.862ZM 676.972 475.862L 676.475 475.8L 676.405 476.362L 676.972 476.362L 676.972 475.862ZM 684.516 415.318L 685.012 415.379L 685.019 415.321L 685.013 415.262L 684.516 415.318ZM 676.972 347.279L 677.469 347.224L 677.467 347.207L 677.464 347.191L 676.972 347.279ZM 663.516 271.862L 664.008 271.774L 664.001 271.734L 663.987 271.695L 663.516 271.862ZM 638.016 199.862L 638.487 199.695L 638.461 199.621L 638.413 199.559L 638.016 199.862ZM 591.016 111.077L 590.528 111.188L 591.016 111.077ZM 534.016 64.3621L 533.716 63.9621L 532.981 64.5133L 533.843 64.8312L 534.016 64.3621ZM 546.016 55.3621L 546.316 55.7621L 545.936 54.8684L 546.016 55.3621ZM 515.016 60.3621L 514.784 60.8054L 514.932 60.8821L 515.095 60.8557L 515.016 60.3621ZM 505.423 55.3621L 505.306 54.8758L 504.005 55.187L 505.191 55.8054L 505.423 55.3621ZM 530.516 49.3621L 530.632 49.8484L 530.516 48.8621L 530.516 49.3621ZM 493.893 49.3621L 493.842 49.8595L 493.867 49.8621L 493.893 49.8621L 493.893 49.3621ZM 415.516 41.3621L 415.566 40.8646L 415.541 40.8621L 415.516 40.8621L 415.516 41.3621ZM 338.378 41.3621L 337.878 41.3621L 337.878 41.8621L 338.378 41.8621L 338.378 41.3621ZM 338.378 0L 338.878 0L 337.887 -0.0939605L 338.378 0ZM 330.464 41.3621L 329.986 41.5105L 330.955 41.456L 330.464 41.3621ZM 317.604 0L 318.081 -0.148446L 317.104 0L 317.604 0ZM 317.604 41.3621L 317.698 41.853L 318.104 41.775L 318.104 41.3621L 317.604 41.3621ZM 276.057 49.3621L 275.754 49.7601L 275.932 49.8953L 276.151 49.853L 276.057 49.3621ZM 242.516 23.8621L 242.818 23.464L 242.105 24.1473L 242.516 23.8621ZM 260.229 49.3621L 260.36 49.8447L 261.044 49.6593L 260.64 49.0768L 260.229 49.3621ZM 204.832 64.3621L 204.788 64.8601L 204.877 64.8681L 204.963 64.8447L 204.832 64.3621ZM 160.317 60.3621L 160.362 59.8641L 158.506 59.6973L 160.029 60.7707L 160.317 60.3621ZM 183.016 76.3621L 183.214 76.8211L 184.033 76.4675L 183.304 75.9534L 183.016 76.3621ZM 135.516 96.8621L 135.317 96.403L 135.209 96.4499L 135.132 96.5407L 135.516 96.8621ZM 61.5156 299.862L 62.0036 299.971L 62.0045 299.967L 61.5156 299.862ZM 38.5156 402.862L 38.0276 402.753L 38.0156 402.807L 38.0156 402.862L 38.5156 402.862ZM 38.5156 485.709L 38.0156 485.709L 38.0156 485.873L 38.1128 486.005L 38.5156 485.709ZM 57.382 510.522C 49.8096 502.365 43.9423 496.843 38.2853 493.732C 32.6199 490.625 27.1049 489.93 20.4097 491.373L 20.6215 492.351C 27.149 490.929 32.311 491.576 37.8033 494.608C 43.3042 497.634 49.0755 503.044 56.6491 511.202L 57.382 510.522ZM 20.2972 491.412C 16.9486 493.038 15.0212 494.511 13.6084 496.143C 12.2146 497.76 11.3457 499.495 10.0861 501.606L 10.945 502.118C 12.2232 499.974 13.0467 498.315 14.3645 496.798C 15.6634 495.297 17.4671 493.898 20.7339 492.312L 20.2972 491.412ZM 10.0798 501.617C 0.626166 518.444 -0.664303 529.177 -0.484425 548.867L 0.515532 548.857C 0.334193 529.232 1.57677 518.755 10.9513 502.107L 10.0798 501.617ZM -0.453901 549.034L 56.5461 704.534L 57.485 704.19L 0.485008 548.69L -0.453901 549.034ZM 56.5177 704.316C 55.7191 712.953 55.9762 719.08 57.7185 724.111C 59.4618 729.12 62.6911 733.044 67.6942 737.245L 68.337 736.479C 63.4011 732.34 60.3338 728.63 58.6634 723.783C 56.9922 718.958 56.7187 713.004 57.5134 704.408L 56.5177 704.316ZM 67.8727 737.341C 77.5616 740.226 83.0045 740.483 92.5481 739.861L 92.483 738.863C 82.9952 739.483 77.729 739.24 68.1584 736.383L 67.8727 737.341ZM 92.0333 739.494L 113.533 817.994L 114.498 817.73L 92.9978 739.23L 92.0333 739.494ZM 113.545 818.03C 130.181 864.565 143.841 888.375 175.631 926.681L 176.4 926.043C 144.662 887.804 131.089 864.146 114.486 817.694L 113.545 818.03ZM 175.651 926.704C 219.188 973.034 245.765 992.212 295.276 1019.3L 295.756 1018.42C 246.299 991.366 219.848 972.282 176.38 926.02L 175.651 926.704ZM 295.363 1019.34C 346.005 1035.61 374.498 1036.03 425.137 1023.35L 424.894 1022.38C 374.383 1035.04 346.167 1034.63 295.669 1018.39L 295.363 1019.34ZM 425.194 1023.33C 486.735 999.813 516.794 980.052 564.354 936.23L 563.677 935.494C 516.178 979.263 486.279 998.923 424.837 1022.4L 425.194 1023.33ZM 564.4 936.181C 592.613 902.183 606.221 879.971 623.985 831.534L 623.046 831.19C 605.321 879.536 591.799 901.601 563.631 935.543L 564.4 936.181ZM 623.98 831.548C 638.011 796.588 643.09 775.523 649.01 736.437L 648.021 736.287C 642.109 775.331 637.058 796.284 623.052 831.176L 623.98 831.548ZM 648.329 736.826C 658.136 740.764 665.365 742.632 671.611 741.985C 677.89 741.335 683.093 738.155 688.874 732.211L 688.157 731.513C 682.462 737.37 677.463 740.374 671.508 740.991C 665.522 741.611 658.489 739.828 648.702 735.898L 648.329 736.826ZM 688.968 732.075C 715.938 674.751 730.158 641.75 746.002 574.477L 745.029 574.247C 729.209 641.437 715.026 674.34 688.063 731.649L 688.968 732.075ZM 746.002 574.479C 751.462 551.783 747.29 530.357 740.334 514.758C 736.848 506.948 732.638 500.536 728.602 496.139C 726.576 493.935 724.556 492.202 722.702 491.055C 720.838 489.904 719.059 489.286 717.491 489.363L 717.54 490.361C 718.823 490.299 720.397 490.806 722.177 491.906C 723.966 493.01 725.88 494.654 727.865 496.816C 731.85 501.151 735.97 507.428 739.42 515.165C 746.337 530.659 750.463 551.761 745.029 574.245L 746.002 574.479ZM 717.491 489.363C 705.886 489.928 691.339 496.458 675.106 519.575L 675.925 520.149C 692.044 497.195 706.338 490.907 717.54 490.361L 717.491 489.363ZM 675.869 519.508L 666.369 510.009L 665.662 510.716L 675.162 520.216L 675.869 519.508ZM 666.369 510.716L 681.415 495.716L 680.709 495.008L 665.663 510.008L 666.369 510.716ZM 681.062 494.862L 675.516 494.862L 675.516 495.862L 681.062 495.862L 681.062 494.862ZM 675.97 495.572L 684.97 476.072L 684.062 475.653L 675.062 495.153L 675.97 495.572ZM 684.516 475.362L 676.972 475.362L 676.972 476.362L 684.516 476.362L 684.516 475.362ZM 677.468 475.924L 685.012 415.379L 684.019 415.256L 676.475 475.8L 677.468 475.924ZM 685.013 415.262L 677.469 347.224L 676.475 347.334L 684.019 415.373L 685.013 415.262ZM 677.464 347.191L 664.008 271.774L 663.023 271.95L 676.479 347.367L 677.464 347.191ZM 663.987 271.695L 638.487 199.695L 637.544 200.029L 663.044 272.029L 663.987 271.695ZM 638.016 199.862C 638.413 199.559 638.413 199.559 638.413 199.559C 638.413 199.558 638.412 199.557 638.411 199.557C 638.41 199.555 638.408 199.553 638.406 199.549C 638.401 199.543 638.393 199.533 638.383 199.52C 638.363 199.493 638.333 199.454 638.294 199.403C 638.215 199.299 638.099 199.146 637.946 198.945C 637.641 198.544 637.192 197.955 636.619 197.203C 635.474 195.698 633.831 193.54 631.843 190.926C 627.867 185.7 622.507 178.653 616.976 171.372C 605.914 156.81 594.166 141.313 591.419 137.566L 590.612 138.158C 593.365 141.911 605.117 157.414 616.18 171.977C 621.711 179.258 627.071 186.305 631.047 191.532C 633.036 194.145 634.678 196.304 635.824 197.808C 636.397 198.561 636.845 199.15 637.15 199.551C 637.303 199.752 637.42 199.905 637.499 200.008C 637.538 200.06 637.568 200.099 637.588 200.125C 637.598 200.139 637.605 200.148 637.61 200.155C 637.613 200.158 637.615 200.161 637.616 200.162C 637.617 200.163 637.617 200.164 637.617 200.164C 637.618 200.165 637.618 200.165 638.016 199.862ZM 591.419 137.566C 588.814 134.014 589.335 130.078 590.315 125.588C 591.284 121.151 592.699 116.199 591.503 110.965L 590.528 111.188C 591.662 116.152 590.327 120.843 589.338 125.374C 588.361 129.853 587.718 134.21 590.612 138.158L 591.419 137.566ZM 591.503 110.965C 588.247 96.7155 573.821 84.943 560.371 76.7706C 553.628 72.6737 547.077 69.4509 542.226 67.26C 539.798 66.1634 537.788 65.3212 536.389 64.7551C 535.689 64.4715 535.138 64.2559 534.765 64.1119C 534.578 64.0397 534.434 63.985 534.337 63.9486C 534.289 63.9303 534.252 63.9164 534.227 63.9072C 534.214 63.9025 534.205 63.899 534.199 63.8967C 534.195 63.8955 534.193 63.8945 534.191 63.894C 534.19 63.8936 534.19 63.8934 534.189 63.8932C 534.189 63.8931 534.189 63.8929 534.016 64.3621C 533.843 64.8312 533.843 64.8312 533.843 64.8313C 533.843 64.8314 533.844 64.8316 533.844 64.8319C 533.846 64.8324 533.848 64.8332 533.851 64.8343C 533.857 64.8365 533.866 64.8398 533.878 64.8442C 533.902 64.8532 533.937 64.8664 533.984 64.8843C 534.08 64.9202 534.221 64.9737 534.405 65.045C 534.776 65.188 535.319 65.4006 536.014 65.682C 537.407 66.2458 539.399 67.0804 541.815 68.1713C 546.65 70.3554 553.147 73.5505 559.852 77.6252C 573.299 85.7958 587.374 97.3807 590.528 111.188L 591.503 110.965ZM 534.316 64.7621L 546.316 55.7621L 545.716 54.9621L 533.716 63.9621L 534.316 64.7621ZM 545.936 54.8684L 514.936 59.8684L 515.095 60.8557L 546.095 55.8557L 545.936 54.8684ZM 515.247 59.9187L 505.654 54.9187L 505.191 55.8054L 514.784 60.8054L 515.247 59.9187ZM 505.539 55.8484L 530.632 49.8484L 530.399 48.8758L 505.306 54.8758L 505.539 55.8484ZM 530.516 48.8621L 493.893 48.8621L 493.893 49.8621L 530.516 49.8621L 530.516 48.8621ZM 493.944 48.8646L 415.566 40.8646L 415.465 41.8595L 493.842 49.8595L 493.944 48.8646ZM 415.516 40.8621C 385.391 40.8621 368.502 40.8621 338.378 40.8621L 338.378 41.8621C 368.502 41.8621 385.391 41.8621 415.516 41.8621L 415.516 40.8621ZM 338.878 41.3621L 338.878 0L 337.878 0L 337.878 41.3621L 338.878 41.3621ZM 337.887 -0.0939605L 329.973 41.2681L 330.955 41.456L 338.869 0.0939605L 337.887 -0.0939605ZM 330.941 41.2136L 318.081 -0.148446L 317.126 0.148446L 329.986 41.5105L 330.941 41.2136ZM 317.104 0L 317.104 41.3621L 318.104 41.3621L 318.104 0L 317.104 0ZM 317.509 40.8711L 275.962 48.8711L 276.151 49.853L 317.698 41.853L 317.509 40.8711ZM 276.359 48.964L 242.818 23.464L 242.213 24.2601L 275.754 49.7601L 276.359 48.964ZM 242.105 24.1473L 259.818 49.6473L 260.64 49.0768L 242.926 23.5768L 242.105 24.1473ZM 260.098 48.8794L 204.702 63.8794L 204.963 64.8447L 260.36 49.8447L 260.098 48.8794ZM 204.877 63.8641L 160.362 59.8641L 160.273 60.8601L 204.788 64.8601L 204.877 63.8641ZM 160.029 60.7707L 182.727 76.7707L 183.304 75.9534L 160.605 59.9534L 160.029 60.7707ZM 182.817 75.903L 135.317 96.403L 135.714 97.3211L 183.214 76.8211L 182.817 75.903ZM 135.132 96.5407C 107.567 129.41 98.0851 148.917 88.0341 184.727L 88.997 184.997C 99.0199 149.272 108.407 129.954 135.899 97.1834L 135.132 96.5407ZM 88.0341 184.727C 83.0129 202.621 76.2599 231.384 70.764 255.665C 68.0161 267.805 65.5816 278.829 63.8344 286.816C 62.9608 290.81 62.2588 294.046 61.7753 296.282C 61.5336 297.4 61.3464 298.269 61.2197 298.858C 61.1563 299.153 61.1081 299.378 61.0756 299.529C 61.0594 299.604 61.0472 299.661 61.039 299.7C 61.0349 299.719 61.0318 299.733 61.0297 299.743C 61.0287 299.748 61.0279 299.751 61.0274 299.754C 61.0272 299.755 61.027 299.756 61.0268 299.756C 61.0267 299.757 61.0266 299.757 61.5156 299.862C 62.0045 299.967 62.0045 299.966 62.0047 299.966C 62.0048 299.965 62.005 299.964 62.0052 299.963C 62.0058 299.961 62.0065 299.957 62.0076 299.952C 62.0096 299.943 62.0127 299.928 62.0168 299.909C 62.025 299.871 62.0372 299.814 62.0534 299.739C 62.0858 299.588 62.134 299.363 62.1973 299.069C 62.324 298.48 62.5111 297.611 62.7528 296.493C 63.2361 294.257 63.9378 291.023 64.8113 287.03C 66.5583 279.044 68.992 268.024 71.7394 255.885C 77.2343 231.608 83.9813 202.871 88.997 184.997L 88.0341 184.727ZM 61.0276 299.753L 38.0276 402.753L 39.0035 402.971L 62.0035 299.971L 61.0276 299.753ZM 38.1128 486.005L 56.6128 511.158L 57.4183 510.566L 38.9183 485.413L 38.1128 486.005ZM 38.0156 402.862L 38.0156 455.008L 39.0156 455.008L 39.0156 402.862L 38.0156 402.862ZM 38.0156 455.008L 38.0156 485.709L 39.0156 485.709L 39.0156 455.008L 38.0156 455.008Z" />
      <path id="path11_stroke" d="M 252.5 23.035L 252.616 22.5486L 252.615 22.5483L 252.5 23.035ZM 27.5 60.035L 27 60.035L 27 60.0934L 27.0135 60.1502L 27.5 60.035ZM 334.675 23.035L 334.569 22.5462L 334.551 22.5502L 334.533 22.5555L 334.675 23.035ZM 550.707 132.535L 550.894 132.999L 551.119 132.908L 551.187 132.676L 550.707 132.535ZM 0 12.035L -0.0156174 11.5352L -0.5 11.5503L -0.5 12.035L 0 12.035ZM 27.6112 52.1557L 28.111 52.1695L 27.6112 52.1557ZM 0 31.3791L -0.5 31.3791L -0.5 31.904L 0.0242961 31.8785L 0 31.3791ZM 603 16.1294L 603.5 16.1294L 603.5 15.5441L 602.922 15.6355L 603 16.1294ZM 603 37.0349L 602.681 37.42L 603.5 38.0984L 603.5 37.0349L 603 37.0349ZM 224.865 132.876C 235.699 121.287 244.42 101.613 249.588 80.9747C 254.758 60.3325 256.399 38.6235 252.989 22.9288L 252.011 23.1411C 255.376 38.6285 253.768 60.1694 248.618 80.7318C 243.468 101.298 234.801 120.783 224.135 132.194L 224.865 132.876ZM 252.5 23.035C 252.615 22.5483 252.615 22.5483 252.614 22.5482C 252.614 22.5481 252.613 22.548 252.613 22.5478C 252.611 22.5475 252.609 22.547 252.606 22.5463C 252.601 22.545 252.592 22.543 252.581 22.5403C 252.558 22.535 252.525 22.5271 252.48 22.5167C 252.391 22.4958 252.257 22.4646 252.08 22.4236C 251.727 22.3417 251.199 22.2203 250.504 22.0626C 249.116 21.7475 247.057 21.2868 244.38 20.7058C 239.026 19.544 231.193 17.8992 221.283 15.9693C 201.467 12.1103 173.328 7.10794 140.068 2.53961L 139.932 3.53031C 173.172 8.09576 201.283 13.0934 221.092 16.9509C 230.995 18.8793 238.817 20.522 244.167 21.683C 246.842 22.2634 248.896 22.723 250.283 23.0378C 250.976 23.1951 251.502 23.3161 251.854 23.3978C 252.031 23.4386 252.163 23.4696 252.252 23.4904C 252.296 23.5007 252.33 23.5085 252.352 23.5138C 252.363 23.5164 252.371 23.5183 252.377 23.5196C 252.38 23.5203 252.382 23.5208 252.383 23.5211C 252.384 23.5213 252.384 23.5214 252.385 23.5215C 252.385 23.5215 252.385 23.5216 252.5 23.035ZM 140.068 2.53961C 106.766 -2.03169 79.69 -0.0283263 60.9796 3.11671C 51.6153 4.69146 44.3201 6.55497 39.3811 8.0212C 36.9076 8.75565 35.014 9.39349 33.7452 9.84559C 33.1089 10.0724 32.6248 10.2541 32.3027 10.3781C 32.1407 10.4405 32.0173 10.4892 31.9358 10.5217C 31.8946 10.5381 31.8629 10.5509 31.8423 10.5593C 31.8317 10.5636 31.8234 10.567 31.8181 10.5691C 31.8154 10.5702 31.8131 10.5712 31.8118 10.5717C 31.811 10.572 31.8104 10.5723 31.81 10.5725C 31.8095 10.5727 31.8092 10.5728 32 11.035C 32.1908 11.4971 32.1908 11.4971 32.1909 11.4971C 32.1912 11.497 32.1915 11.4968 32.192 11.4966C 32.1932 11.4961 32.1947 11.4955 32.197 11.4946C 32.2019 11.4926 32.2088 11.4898 32.2184 11.4859C 32.2381 11.4778 32.267 11.4662 32.3064 11.4505C 32.386 11.4187 32.5037 11.3723 32.6619 11.3114C 32.9802 11.1889 33.4526 11.0115 34.0809 10.7876C 35.3415 10.3383 37.2096 9.70896 39.6657 8.97984C 44.5862 7.51891 51.8222 5.66983 61.1454 4.10287C 79.81 0.964452 106.734 -1.03218 139.932 3.53031L 140.068 2.53961ZM 27.0135 60.1502C 28.1302 64.857 28.4383 70.3063 28.7821 76.2272C 29.1259 82.148 29.5039 88.5295 30.7591 95.0235C 33.279 108.049 39.3382 121.549 55.7144 132.945L 56.2856 132.125C 40.1619 120.904 34.2211 107.654 31.7409 94.8336C 30.4961 88.4048 30.1242 82.0895 29.7804 76.1692C 29.4367 70.2489 29.1198 64.7129 27.9866 59.9197L 27.0135 60.1502ZM 55.7144 132.945C 63.93 138.663 77.2671 142.942 92.9258 145.803C 108.591 148.664 126.667 150.117 144.374 150.141C 162.082 150.165 179.475 148.759 193.77 145.909C 208.04 143.063 219.372 138.753 224.865 132.876L 224.135 132.194C 218.878 137.817 207.835 142.084 193.574 144.928C 179.337 147.768 162.043 149.166 144.376 149.141C 126.708 149.118 108.721 147.672 93.1055 144.819C 77.4829 141.965 64.32 137.716 56.2856 132.125L 55.7144 132.945ZM 569.637 11.5542C 491.875 -10.6441 435.894 0.676983 334.569 22.5462L 334.78 23.5237C 436.099 1.6558 491.836 -9.64486 569.363 12.5157L 569.637 11.5542ZM 334.191 23.1618C 335.771 29.1781 336.548 38.0389 337.408 48.3611C 338.267 58.6835 339.205 70.4454 341.101 82.2009C 344.891 105.686 352.533 129.328 371.228 141.454L 371.772 140.615C 353.467 128.742 345.874 105.499 342.089 82.0416C 340.198 70.326 339.264 58.6023 338.404 48.2781C 337.545 37.9536 336.756 29.0069 335.158 22.9081L 334.191 23.1618ZM 371.228 141.454C 380.581 147.521 394.335 150.874 410.185 152.299C 426.038 153.722 444.075 153.222 462.01 151.533C 497.877 148.155 533.48 140.023 550.894 132.999L 550.52 132.071C 533.227 139.047 497.727 147.165 461.917 150.537C 444.014 152.223 426.069 152.723 410.275 151.303C 394.478 149.883 380.919 146.549 371.772 140.615L 371.228 141.454ZM 252.384 23.5213C 286.219 31.5791 304.531 32.4773 334.817 23.5144L 334.533 22.5555C 304.412 31.4844 286.361 30.5891 252.616 22.5486L 252.384 23.5213ZM 31.9844 10.5352L -0.0156174 11.5352L 0.0156174 12.5347L 32.0156 11.5347L 31.9844 10.5352ZM 31.5125 10.9239C 28.9454 22.1952 27.5044 37.912 27.1114 52.142L 28.111 52.1695C 28.5026 37.9714 29.933 22.3522 32.4875 11.146L 31.5125 10.9239ZM 27.1114 52.142C 27.037 54.8372 27 57.4838 27 60.035L 28 60.035C 28 57.4908 28.0368 54.858 28.111 52.1695L 27.1114 52.142ZM 28.0637 51.943C 24.2285 43.7882 20.819 38.3258 16.5407 35.0041C 12.2342 31.6606 7.11174 30.5326 -0.0242961 30.8797L 0.0242961 31.8785C 7.02741 31.5378 11.8789 32.6508 15.9274 35.794C 20.004 38.959 23.3306 44.2288 27.1587 52.3685L 28.0637 51.943ZM -0.5 12.035L -0.5 31.3791L 0.5 31.3791L 0.5 12.035L -0.5 12.035ZM 569.389 12.5226C 580.629 15.0711 587.37 19.108 603.078 16.6232L 602.922 15.6355C 587.465 18.0805 581.04 14.1388 569.611 11.5473L 569.389 12.5226ZM 602.5 16.1294L 602.5 37.0349L 603.5 37.0349L 603.5 16.1294L 602.5 16.1294ZM 551.187 132.676C 560.405 101.307 564.957 84.6945 566.5 49.0565L 565.5 49.0134C 563.969 84.5397 559.443 101.033 550.228 132.394L 551.187 132.676ZM 566.5 49.0565C 566.67 45.1066 567.634 38.0654 568.512 30.8998C 569.39 23.7343 570.182 16.4301 570 12.0141L 569 12.0558C 569.183 16.3968 568.397 23.6195 567.519 30.7782C 566.642 37.9368 565.674 45.0171 565.5 49.0134L 566.5 49.0565ZM 603.319 36.6499C 601.886 35.4627 599.219 34.9812 596.065 35.0208C 592.888 35.0619 589.039 35.6406 585.159 36.7045C 577.42 38.828 569.302 42.9348 565.579 48.7659L 566.421 49.3041C 569.941 43.7922 577.756 39.7727 585.423 37.6688C 589.246 36.6189 592.969 36.0587 596.078 36.0208C 599.211 35.9814 601.547 36.4809 602.681 37.42L 603.319 36.6499Z" />
      <path id="path12_stroke" d="M 3.30612 266.863L 2.81832 266.973L 3.80059 266.789L 3.30612 266.863ZM 56.3061 172.863L 56.7553 173.083L 56.7861 173.02L 56.7984 172.951L 56.3061 172.863ZM 62.8061 85.3634L 62.3879 85.0893L 62.3353 85.1696L 62.3162 85.2638L 62.8061 85.3634ZM 115.306 23.8634L 115.108 23.4041L 115.034 23.4364L 114.973 23.4907L 115.306 23.8634ZM 198.306 5.36341L 198.802 5.43127L 198.881 4.85357L 198.298 4.86348L 198.306 5.36341ZM 205.806 48.3634L 205.422 48.6835L 206.134 49.5382L 206.301 48.4381L 205.806 48.3634ZM 212.306 5.36341L 212.799 5.27951L 211.812 5.28867L 212.306 5.36341ZM 220.306 52.3634L 219.813 52.4473L 220.806 52.3634L 220.306 52.3634ZM 220.306 5.36341L 220.789 5.23519L 219.806 5.36341L 220.306 5.36341ZM 226.806 29.8634L 226.323 29.9916L 227.292 29.9823L 226.806 29.8634ZM 232.806 5.36341L 232.757 4.86579L 232.405 4.90036L 232.32 5.24447L 232.806 5.36341ZM 283.806 0.363406L 283.788 -0.136277L 283.773 -0.135724L 283.757 -0.134208L 283.806 0.363406ZM 383.806 10.3634L 383.694 10.8507L 383.704 10.8529L 383.713 10.8547L 383.806 10.3634ZM 514.806 93.3634L 514.344 93.5538L 514.372 93.622L 514.418 93.6792L 514.806 93.3634ZM 558.806 184.363L 558.38 184.625L 558.394 184.648L 558.411 184.67L 558.806 184.363ZM 574.306 204.363L 573.911 204.67L 573.972 204.748L 574.058 204.797L 574.306 204.363ZM 590.806 237.863L 590.378 237.606L 589.921 238.363L 590.806 238.363L 590.806 237.863ZM 595.306 237.863L 595.791 237.742L 595.696 237.363L 595.306 237.363L 595.306 237.863ZM 601.306 261.863L 600.821 261.985L 600.916 262.363L 601.306 262.363L 601.306 261.863ZM 610.806 261.863L 611.3 261.941L 611.391 261.363L 610.806 261.363L 610.806 261.863ZM 10.8061 302.363C 11.2337 302.104 11.2337 302.104 11.2336 302.104C 11.2336 302.104 11.2335 302.104 11.2333 302.104C 11.233 302.103 11.2326 302.102 11.232 302.101C 11.2308 302.1 11.2291 302.097 11.2267 302.093C 11.222 302.085 11.2149 302.073 11.2055 302.058C 11.1867 302.026 11.1589 301.98 11.1224 301.919C 11.0492 301.798 10.9421 301.619 10.8053 301.388C 10.5313 300.927 10.1402 300.264 9.66852 299.449C 8.72438 297.818 7.4631 295.591 6.18495 293.191C 4.9064 290.79 3.61831 288.23 2.61629 285.922C 1.60782 283.6 0.920988 281.604 0.804069 280.318L -0.191824 280.409C -0.0587505 281.873 0.691916 284.002 1.69907 286.32C 2.71267 288.654 4.01833 291.25 5.30228 293.661C 6.58664 296.073 7.85661 298.315 8.80309 299.95C 9.27674 300.768 9.67074 301.436 9.94559 301.899C 10.0832 302.131 10.1915 302.312 10.265 302.434C 10.3019 302.496 10.3303 302.543 10.3493 302.574C 10.3589 302.59 10.3662 302.602 10.371 302.61C 10.3735 302.614 10.3753 302.617 10.3766 302.619C 10.3772 302.62 10.3777 302.621 10.378 302.622C 10.3782 302.622 10.3783 302.622 10.3784 302.622C 10.3785 302.622 10.3785 302.623 10.8061 302.363ZM 0.804069 280.318C 0.306087 274.856 0.805864 266.879 0.806122 256.863L -0.193878 256.863C -0.193649 266.848 -0.693813 274.87 -0.191824 280.409L 0.804069 280.318ZM 0.806122 256.863C 0.806124 255.61 0.854258 254.875 0.925323 254.52C 0.941441 254.437 0.949323 254.408 0.962538 254.379C 0.975925 254.348 0.947252 254.443 0.825804 254.51C 0.639512 254.613 0.460362 254.546 0.383369 254.491C 0.331259 254.454 0.322341 254.425 0.346133 254.464C 0.442805 254.626 0.591687 255.06 0.771102 255.757C 0.944669 256.432 1.12921 257.278 1.31584 258.211C 1.68953 260.08 2.063 262.259 2.34394 263.975C 2.48434 264.833 2.60122 265.574 2.68316 266.1C 2.7241 266.364 2.75621 266.573 2.77815 266.717C 2.7891 266.788 2.79748 266.844 2.80314 266.881C 2.80596 266.9 2.80809 266.914 2.80952 266.923C 2.81024 266.928 2.81077 266.932 2.81113 266.934C 2.81131 266.935 2.81144 266.936 2.81153 266.937C 2.81157 266.937 2.8116 266.937 2.81163 266.937C 2.81165 266.938 2.81166 266.938 3.30612 266.863C 3.80059 266.789 3.80058 266.789 3.80055 266.789C 3.80053 266.789 3.80049 266.789 3.80044 266.788C 3.80035 266.788 3.80021 266.787 3.80002 266.785C 3.79966 266.783 3.7991 266.779 3.79837 266.775C 3.79692 266.765 3.79475 266.75 3.7919 266.732C 3.78621 266.694 3.77773 266.638 3.76671 266.566C 3.74471 266.422 3.71237 266.211 3.67128 265.947C 3.58916 265.419 3.47166 264.675 3.33081 263.814C 3.04925 262.093 2.67273 259.897 2.29642 258.015C 2.10805 257.074 1.91759 256.201 1.73959 255.508C 1.56745 254.839 1.3882 254.258 1.20363 253.95C 1.1571 253.872 1.0808 253.76 0.964606 253.677C 0.823526 253.577 0.583585 253.501 0.340163 253.636C 0.161586 253.735 0.0794458 253.901 0.0433941 253.986C 0.00717038 254.073 -0.0303583 254.202 -0.055257 254.324C -0.148257 254.789 -0.193876 255.617 -0.193878 256.863L 0.806122 256.863ZM 3.30612 266.863C 3.79393 266.754 3.79392 266.754 3.7939 266.754C 3.79386 266.753 3.79382 266.753 3.79376 266.753C 3.79363 266.752 3.79344 266.752 3.79318 266.75C 3.79265 266.748 3.79187 266.745 3.79082 266.74C 3.78869 266.73 3.78554 266.716 3.78136 266.697C 3.77294 266.659 3.76055 266.603 3.74436 266.53C 3.71187 266.381 3.66458 266.164 3.60474 265.882C 3.48486 265.319 3.31567 264.506 3.11694 263.501C 2.71907 261.488 2.20537 258.718 1.73787 255.663C 0.799122 249.53 0.0643118 242.356 0.799319 237.946L -0.187075 237.781C -0.952067 242.371 -0.186877 249.697 0.749379 255.814C 1.21938 258.884 1.73692 261.676 2.13593 263.695C 2.33564 264.705 2.5063 265.525 2.62664 266.091C 2.68692 266.374 2.73485 266.595 2.76755 266.744C 2.78395 266.818 2.79664 266.876 2.80516 266.914C 2.80945 266.934 2.81274 266.948 2.81492 266.958C 2.81602 266.963 2.81687 266.967 2.81743 266.969C 2.81771 266.97 2.81793 266.971 2.81808 266.972C 2.81815 266.972 2.81821 266.973 2.81825 266.973C 2.81829 266.973 2.81832 266.973 3.30612 266.863ZM 0.799319 237.946C 0.88977 237.401 0.984522 237.008 1.09181 236.708C 1.1979 236.41 1.28816 236.293 1.32627 236.259C 1.34354 236.239 1.29563 236.273 1.29418 236.268C 1.29918 236.273 1.22413 236.258 1.23836 236.267C 1.25927 236.275 1.34441 236.326 1.48488 236.503C 1.7569 236.845 2.06927 237.444 2.40479 238.22C 2.73696 238.988 3.07134 239.88 3.39849 240.784C 4.04023 242.556 4.6715 244.435 5.14309 245.279C 5.25222 245.475 5.4056 245.717 5.61331 245.849C 5.73701 245.927 5.94045 246.003 6.1712 245.921C 6.37998 245.848 6.49349 245.685 6.55106 245.577C 6.66408 245.365 6.71895 245.065 6.7526 244.737C 6.78727 244.397 6.80602 243.936 6.80612 243.363L 5.80612 243.363C 5.80622 243.916 5.78982 244.326 5.75784 244.635C 5.74259 244.785 5.72658 244.89 5.70571 244.982C 5.68786 245.065 5.65487 245.129 5.66861 245.107C 5.66861 245.107 5.67814 245.088 5.70219 245.064C 5.72743 245.038 5.77223 245.002 5.83908 244.978C 5.99338 244.924 6.11389 244.982 6.1486 245.004C 6.17832 245.023 6.12956 244.995 6.01603 244.791C 5.59699 244.042 5.00952 242.296 4.33876 240.443C 4.00965 239.534 3.66435 238.614 3.32269 237.823C 2.98438 237.041 2.62878 236.335 2.26799 235.881C 2.09205 235.659 1.86957 235.438 1.59532 235.333C 1.26743 235.208 0.930615 235.273 0.66293 235.511C 0.434433 235.713 0.274208 236.023 0.149587 236.373C 0.0261602 236.723 -0.0900249 237.201 -0.187075 237.781L 0.799319 237.946ZM 6.80612 243.363C 6.80612 238.92 8.41958 228.971 10.2351 219.268C 12.0464 209.587 14.0442 200.222 14.7933 196.976L 13.8189 196.751C 13.068 200.005 11.0659 209.39 9.25215 219.084C 7.44266 228.755 5.80612 238.807 5.80612 243.363L 6.80612 243.363ZM 14.7933 196.976C 14.9694 196.213 15.2218 195.807 15.4649 195.61C 15.6836 195.433 15.9585 195.373 16.3447 195.467C 17.1849 195.67 18.3142 196.547 19.565 197.891C 22.0355 200.544 24.621 204.61 25.8589 207.087L 26.7533 206.64C 25.4912 204.117 22.8267 199.933 20.2972 197.21C 19.0481 195.868 17.7398 194.776 16.5801 194.495C 15.9663 194.346 15.3505 194.415 14.8349 194.834C 14.3436 195.232 14.0178 195.889 13.8189 196.751L 14.7933 196.976ZM 25.8589 207.087C 26.0681 207.505 26.3913 207.804 26.8183 207.944C 27.2286 208.08 27.6824 208.053 28.1393 207.934C 29.0444 207.699 30.1319 207.06 31.3244 206.157C 33.7114 204.348 36.737 201.304 39.8865 197.661C 46.1778 190.382 53.0892 180.579 56.7553 173.083L 55.8569 172.644C 52.2286 180.069 45.39 189.766 39.1299 197.007C 36.0036 200.624 33.0532 203.595 30.7206 205.36C 29.5533 206.244 28.5952 206.783 27.8882 206.966C 27.5391 207.057 27.2954 207.049 27.1314 206.995C 26.9843 206.946 26.8567 206.847 26.7533 206.64L 25.8589 207.087ZM 56.7984 172.951C 58.0604 165.858 59.6811 160.874 60.9934 155.576C 62.3048 150.279 63.3042 144.657 63.3061 136.363L 62.3061 136.363C 62.3081 144.569 61.3267 150.071 60.0227 155.335C 58.7196 160.599 57.0903 165.615 55.8139 172.776L 56.7984 172.951ZM 63.3061 136.363C 63.3016 119.796 59.256 105.263 63.2961 85.463L 62.3162 85.2638C 58.2566 105.298 62.3107 119.931 62.3061 136.363L 63.3061 136.363ZM 63.2243 85.6375C 80.658 59.0371 91.9148 45.454 115.639 24.2361L 114.973 23.4907C 91.1945 44.7603 79.8536 58.4431 62.3879 85.0893L 63.2243 85.6375ZM 115.504 24.3227C 147.159 10.7 165.209 6.42316 198.315 5.86333L 198.298 4.86348C 165.085 5.43094 146.845 9.75055 115.108 23.4041L 115.504 24.3227ZM 197.811 5.29555C 195.806 19.9725 197.696 30.836 200.082 37.972C 201.282 41.5546 202.616 44.2379 203.639 46.0019C 204.155 46.8898 204.601 47.5615 204.911 48.0018C 205.069 48.2246 205.196 48.3953 205.282 48.5062C 205.325 48.5629 205.36 48.6073 205.383 48.6356C 205.395 48.6503 205.405 48.6623 205.411 48.6697C 205.414 48.6737 205.417 48.6772 205.418 48.6791C 205.419 48.6803 205.42 48.6814 205.421 48.682C 205.421 48.6823 205.421 48.6827 205.422 48.6829C 205.422 48.6832 205.422 48.6835 205.806 48.3634C 206.19 48.0433 206.19 48.0435 206.19 48.0436C 206.19 48.0436 206.191 48.0437 206.19 48.0436C 206.19 48.0433 206.19 48.0432 206.19 48.0426C 206.189 48.0412 206.187 48.0396 206.185 48.0369C 206.18 48.0308 206.173 48.0225 206.163 48.0103C 206.143 47.9845 206.114 47.9479 206.074 47.8964C 205.993 47.7909 205.878 47.6366 205.728 47.4251C 205.426 46.9966 205.004 46.362 204.504 45.4999C 203.496 43.7639 202.206 41.1723 201.03 37.6548C 198.666 30.5908 196.806 19.9543 198.802 5.43127L 197.811 5.29555ZM 206.301 48.4381L 212.801 5.43814L 211.812 5.28867L 205.312 48.2887L 206.301 48.4381ZM 211.813 5.44731L 219.813 52.4473L 220.799 52.2795L 212.799 5.27951L 211.813 5.44731ZM 220.806 52.3634L 220.806 5.36341L 219.806 5.36341L 219.806 52.3634L 220.806 52.3634ZM 219.823 5.49162L 226.323 29.9916L 227.289 29.7352L 220.789 5.23519L 219.823 5.49162ZM 227.292 29.9823L 233.292 5.48234L 232.32 5.24447L 226.32 29.7445L 227.292 29.9823ZM 232.855 5.86102L 283.855 0.861021L 283.757 -0.134208L 232.757 4.86579L 232.855 5.86102ZM 283.824 0.86309C 323.846 -0.563603 345.587 2.08908 383.694 10.8507L 383.918 9.87612C 345.76 1.10413 323.889 -1.56268 283.788 -0.136277L 283.824 0.86309ZM 383.713 10.8547C 404.037 14.6875 427.99 21.6639 447.326 27.9446C 456.992 31.0845 465.494 34.0475 471.807 36.3556C 474.962 37.5093 477.565 38.4974 479.492 39.2624C 481.436 40.0335 482.649 40.5612 483.056 40.7963L 483.556 39.9305C 483.072 39.6505 481.78 39.0943 479.861 38.3329C 477.926 37.5652 475.311 36.5722 472.15 35.4165C 465.831 33.1057 457.311 30.1367 447.635 26.9936C 428.285 20.7082 404.27 13.7149 383.899 9.87207L 383.713 10.8547ZM 483.056 40.7963C 483.177 40.8663 483.35 41.0354 483.562 41.3624C 483.775 41.691 483.984 42.1081 484.208 42.6394C 484.66 43.7118 485.115 45.1352 485.575 46.8303C 486.497 50.2271 487.411 54.6216 488.27 59.1404C 489.129 63.6594 489.929 68.2896 490.621 72.1414C 491.312 75.9939 491.9 79.0898 492.327 80.508L 493.285 80.2188C 492.871 78.8517 492.296 75.8125 491.605 71.9647C 490.914 68.1161 490.113 63.4809 489.253 58.9537C 488.392 54.4264 487.47 49.9942 486.54 46.5683C 486.074 44.8519 485.598 43.365 485.129 42.2511C 484.892 41.6892 484.643 41.1942 484.401 40.8195C 484.158 40.4433 483.881 40.118 483.556 39.9305L 483.056 40.7963ZM 492.327 80.508C 492.564 81.2918 492.964 81.8596 493.53 82.2049C 494.086 82.5451 494.738 82.6291 495.405 82.5793C 496.712 82.4818 498.287 81.8474 499.813 81.2282C 501.365 80.5983 502.918 79.9541 504.299 79.7424C 505.651 79.5318 506.695 79.7497 507.411 80.6704L 508.201 80.0564C 507.167 78.7271 505.672 78.5164 504.145 78.7543C 502.649 78.9911 500.986 79.6727 499.437 80.3016C 497.86 80.9412 496.447 81.4988 495.33 81.5821C 494.785 81.6228 494.367 81.5445 494.051 81.3515C 493.743 81.1637 493.469 80.8277 493.285 80.2188L 492.327 80.508ZM 507.411 80.6704C 509.137 82.8864 510.861 86.0917 512.169 88.7703C 512.823 90.1078 513.365 91.3022 513.747 92.1669C 513.938 92.5983 514.087 92.9448 514.189 93.185C 514.24 93.3047 514.278 93.3968 514.305 93.4597C 514.318 93.491 514.327 93.5145 514.334 93.5305C 514.337 93.5384 514.34 93.5442 514.341 93.5482C 514.342 93.5502 514.343 93.5515 514.343 93.5525C 514.343 93.553 514.344 93.5533 514.344 93.5535C 514.344 93.5536 514.344 93.5537 514.344 93.5538C 514.344 93.5538 514.344 93.5538 514.806 93.3634C 515.268 93.173 515.268 93.173 515.268 93.1729C 515.268 93.1728 515.268 93.1726 515.268 93.1725C 515.268 93.1722 515.268 93.1717 515.268 93.1712C 515.267 93.1701 515.266 93.1684 515.266 93.1662C 515.264 93.162 515.261 93.1556 515.258 93.1473C 515.251 93.1309 515.241 93.1061 515.227 93.074C 515.201 93.0102 515.161 92.9153 515.109 92.7938C 515.006 92.5516 514.854 92.1988 514.662 91.763C 514.278 90.8934 513.727 89.6815 513.068 88.3315C 511.751 85.6351 509.975 82.3404 508.201 80.0564L 507.411 80.6704ZM 514.418 93.6792C 518.988 99.2885 525.331 99.8764 530.293 100.733C 532.813 101.167 534.926 101.66 536.42 102.799C 537.868 103.902 538.806 105.673 538.806 108.863L 539.806 108.863C 539.806 105.454 538.788 103.346 537.026 102.003C 535.311 100.697 532.96 100.178 530.463 99.7472C 525.389 98.8717 519.481 98.3102 515.194 93.0476L 514.418 93.6792ZM 538.806 108.863C 538.807 115.434 537.683 124.667 537.12 133.156C 536.838 137.401 536.697 141.477 536.909 144.923C 537.12 148.355 537.686 151.268 538.885 153.134L 539.727 152.593C 538.676 150.959 538.117 148.272 537.907 144.861C 537.697 141.463 537.837 137.452 538.117 133.222C 538.679 124.761 539.805 115.494 539.806 108.863L 538.806 108.863ZM 538.885 153.134C 541.133 156.63 546.006 164.501 550.318 171.501C 552.474 175 554.489 178.281 555.966 180.687C 556.704 181.89 557.307 182.875 557.726 183.558C 557.936 183.9 558.099 184.167 558.21 184.348C 558.266 184.438 558.308 184.507 558.336 184.554C 558.351 184.577 558.362 184.595 558.369 184.607C 558.372 184.613 558.375 184.617 558.377 184.62C 558.378 184.622 558.378 184.623 558.379 184.623C 558.379 184.624 558.379 184.624 558.379 184.624C 558.38 184.624 558.38 184.625 558.806 184.363C 559.232 184.102 559.232 184.102 559.232 184.102C 559.232 184.102 559.232 184.102 559.232 184.101C 559.231 184.1 559.231 184.099 559.23 184.098C 559.228 184.095 559.225 184.09 559.222 184.085C 559.214 184.073 559.204 184.055 559.189 184.032C 559.161 183.985 559.118 183.916 559.063 183.825C 558.952 183.644 558.789 183.378 558.579 183.036C 558.16 182.352 557.556 181.368 556.818 180.164C 555.341 177.758 553.326 174.476 551.169 170.976C 546.856 163.976 541.979 156.097 539.727 152.593L 538.885 153.134ZM 558.411 184.67L 573.911 204.67L 574.701 204.057L 559.201 184.057L 558.411 184.67ZM 574.306 204.363C 574.058 204.797 574.058 204.797 574.058 204.797C 574.058 204.797 574.058 204.798 574.058 204.798C 574.059 204.798 574.059 204.798 574.06 204.799C 574.062 204.8 574.065 204.802 574.069 204.804C 574.077 204.809 574.089 204.815 574.104 204.824C 574.136 204.842 574.182 204.869 574.243 204.904C 574.364 204.974 574.543 205.077 574.773 205.211C 575.232 205.478 575.892 205.863 576.7 206.341C 578.316 207.297 580.513 208.617 582.853 210.081C 587.555 213.02 592.75 216.489 594.951 218.715L 595.662 218.012C 593.362 215.687 588.057 212.155 583.384 209.233C 581.036 207.765 578.828 206.438 577.209 205.481C 576.399 205.001 575.735 204.614 575.275 204.346C 575.045 204.212 574.864 204.108 574.742 204.037C 574.681 204.002 574.634 203.975 574.603 203.957C 574.587 203.948 574.575 203.941 574.567 203.937C 574.563 203.934 574.56 203.932 574.558 203.931C 574.557 203.931 574.556 203.93 574.555 203.93C 574.555 203.93 574.555 203.93 574.555 203.93C 574.555 203.93 574.555 203.93 574.306 204.363ZM 594.951 218.715C 595.915 219.69 596.21 221.284 596.004 223.279C 595.8 225.272 595.115 227.503 594.278 229.638C 593.442 231.772 592.469 233.758 591.699 235.224C 591.315 235.955 590.985 236.55 590.749 236.965C 590.632 237.172 590.539 237.332 590.475 237.442C 590.443 237.496 590.419 237.537 590.402 237.565C 590.394 237.579 590.388 237.589 590.383 237.596C 590.381 237.599 590.38 237.602 590.379 237.603C 590.378 237.604 590.378 237.605 590.378 237.605C 590.378 237.605 590.378 237.605 590.378 237.606C 590.378 237.606 590.378 237.606 590.806 237.863C 591.234 238.121 591.234 238.121 591.235 238.121C 591.235 238.121 591.235 238.121 591.235 238.12C 591.235 238.12 591.236 238.119 591.236 238.118C 591.238 238.116 591.239 238.113 591.242 238.109C 591.246 238.102 591.253 238.09 591.262 238.076C 591.279 238.047 591.304 238.003 591.337 237.947C 591.403 237.836 591.499 237.67 591.619 237.459C 591.857 237.039 592.195 236.43 592.585 235.689C 593.361 234.21 594.357 232.174 595.209 230.003C 596.059 227.832 596.78 225.471 596.999 223.382C 597.214 221.293 596.947 219.312 595.662 218.012L 594.951 218.715ZM 590.806 238.363L 595.306 238.363L 595.306 237.363L 590.806 237.363L 590.806 238.363ZM 594.821 237.985L 600.821 261.985L 601.791 261.742L 595.791 237.742L 594.821 237.985ZM 601.306 262.363L 610.806 262.363L 610.806 261.363L 601.306 261.363L 601.306 262.363ZM 610.312 261.786L 603.312 306.286L 604.3 306.441L 611.3 261.941L 610.312 261.786Z" />
   </defs>
</svg>