<?xml version="1.0" encoding="utf-8"?>
<!-- Generator: Adobe Illustrator 19.1.0, SVG Export Plug-In . SVG Version: 6.00 Build 0)  -->
<svg version="1.1" id="Layer_2" xmlns="http://www.w3.org/2000/svg" xmlns:xlink="http://www.w3.org/1999/xlink" x="0px" y="0px"
	 viewBox="0 0 579.5 945.9" style="enable-background:new 0 0 579.5 945.9;" xml:space="preserve">
<style type="text/css">
	.Drop_x0020_Shadow{fill:none;}
	.Round_x0020_Corners_x0020_2_x0020_pt{fill:#FFFFFF;stroke:#231F20;stroke-miterlimit:10;}
	.Live_x0020_Reflect_x0020_X{fill:none;}
	.Bevel_x0020_Soft{fill:url(#SVGID_1_);}
	.Dusk{fill:#FFFFFF;}
	.Foliage_GS{fill:#FFDD00;}
	.Pompadour_GS{fill-rule:evenodd;clip-rule:evenodd;fill:#44ADE2;}
	.st0{fill:none;stroke:#231F20;stroke-width:5;stroke-linecap:round;stroke-linejoin:round;stroke-miterlimit:10;}
</style>
<linearGradient id="SVGID_1_" gradientUnits="userSpaceOnUse" x1="-1458.8208" y1="-207.8333" x2="-1458.1138" y2="-207.1261">
	<stop  offset="0" style="stop-color:#DEDFE3"/>
	<stop  offset="0.1783" style="stop-color:#DADBDF"/>
	<stop  offset="0.3611" style="stop-color:#CECFD3"/>
	<stop  offset="0.546" style="stop-color:#B9BCBF"/>
	<stop  offset="0.7324" style="stop-color:#9CA0A2"/>
	<stop  offset="0.9181" style="stop-color:#787D7E"/>
	<stop  offset="1" style="stop-color:#656B6C"/>
</linearGradient>
<path class="st0" d="M51.6,384.1c18.4,4.4,37.4-1.8,55.9-5.8c33.5-7.3,68.4-7.8,102-1.5c20.4,3.9,40.4,10.2,61.1,11.5
	c28.3,1.8,56.3-5.8,84-12c32-7.1,65.1-12.4,97.5-7.4c22.4,3.5,43.8,11.8,64.9,20.1"/>
<path class="st0" d="M75.7,386.3c-2.4,15.8-4.9,31.9-2.4,47.6c2.5,15.8,10.6,31.5,24.7,39.1c8.2,4.4,17.6,5.7,26.7,7
	c27.5,3.7,55.7,7.2,82.6,0.7c5.4-1.3,10.8-3,15.2-6.5c4.4-3.5,7.5-8.5,10-13.5c11.9-23.5,16-50.8,11.4-76.8"/>
<path class="st0" d="M307.6,386.6c2.9,23.1,7.8,45.9,14.7,68.2c1.7,5.4,3.5,10.9,6.9,15.4c8.8,11.7,25.4,13.9,40.1,14.3
	c29.4,0.9,58.8-1,87.9-5.7c5.5-0.9,11.3-2.1,15.2-5.9c2.7-2.7,4.3-6.3,5.6-9.9c9.9-26.4,13.8-55,11.3-83"/>
<path class="st0" d="M49.1,386.6c0.1,3,0.1,6.1,0.2,9.1c7.3,2.1,14.4,4.9,21.1,8.3"/>
<path class="st0" d="M514.9,389.3c-0.1,3.9-0.1,7.8-0.2,11.7c-8.9,1.4-17.5,4.8-24.9,9.9"/>
<path class="st0" d="M245.1,400.4c19.8,7.1,42.2,6.4,61.5-1.9"/>
<path class="st0" d="M124.1,421.6c14.4-10.9,33.1-16.1,51-14.2c18,1.9,35.1,10.9,46.9,24.7c-21.6,3.1-43.7,6.2-65.1,1.9
	c-12.3-2.4-23.9-7.2-35.3-12.4"/>
<path class="st0" d="M157.6,410.8c-3.2,9.8,3.8,21.6,13.9,23.5c10.1,1.9,20.9-6.7,21.3-17"/>
<path class="st0" d="M349.1,425.1c15-20.4,39-23.1,61-15c6.4,2.3,12.5,5.1,18.5,8.3c1.2,0.6,2.6,1.8,2.2,3.1c-0.3,0.9-1.2,1.3-2,1.6
	c-18.2,6.8-38.1,9.3-57.4,7c-7.8-0.9-15.7-2.6-23.5-1.5"/>
<path class="st0" d="M363.1,413.5c2.3,10.4,13.2,18.1,23.8,16.8c10.6-1.4,19.2-11.7,18.7-22.3"/>
<path class="st0" d="M247.7,384c-1.4-13.8-11.6-25.4-23.7-32.2c-12.1-6.8-26-9.5-39.6-12.2c-13-2.5-26-5-38.9-7.5
	c-11.1-2.1-23.7-4-32.6,3c2.1,0.9,4.1,1.9,6.2,2.8c-7.7,3.1-15.3,6.3-23,9.4c2.5,1.4,5,2.7,7.5,4.1c-7.2,2.7-15.2,6.1-18.1,13.2
	c21.9,0.4,43.8,0.7,65.7,1.1c24.3,0.4,49.1,0.9,72,9.1c7.7,2.8,15.8,6.5,23.8,4.6"/>
<path class="st0" d="M318.3,374.6c-0.3-10.4,6.2-20,14.7-26c8.4-6,18.6-9,28.7-11.4c24.3-5.8,49.2-8.9,74.2-9.3
	c-1.7,2.4-3.4,4.9-5.1,7.3c5.4,1.4,10.8,3.2,16,5.3c-1.1,1.3-2.2,2.6-3.3,4c3.8,1.6,7.5,3.3,11.3,4.9c1.3,4.1,4.8,7.3,8.9,8.5
	c-37.3-3.2-75.7-3.1-111.1,8.9c-11.6,3.9-23,9.1-35.1,9.7"/>
<path class="st0" d="M258.4,552.2c-3.2-4.6-8.1-8.5-13.7-8.3c-5.6,0.2-10.8,6-8.9,11.2c8.4-4.2,18.8-4,27,0.5"/>
<path class="st0" d="M292.5,553.8c4.7-3.9,9.8-7.7,15.9-8.4c6-0.7,13,3.3,13.3,9.4c-8.7-1-15.4-1.6-23.6-4.6"/>
<path class="st0" d="M235.9,505.5c-5.4,4.1-10.6,8.7-15.4,13.5c-7.5,7.7-14.6,18.3-10.9,28.4c3.5,9.8,15.1,13.6,25.2,16"/>
<path class="st0" d="M328.5,507.2c7.1,3.4,13.4,8.5,18.3,14.6c3.6,4.5,6.6,9.8,7.3,15.6c0.7,5.8-1.3,12.1-6,15.6
	c-5.4,4-13,3.7-18.7,7.2"/>
<path class="st0" d="M190.3,633.5c8.5-21.2,29.7-36.8,52.4-38.6c13.1-1.1,26.2,2.1,39.3,1.8c14.5-0.3,28.8-4.6,43.3-3.9
	c21.6,1,42.4,14,52.6,33.1"/>
<path class="st0" d="M190.2,636.1c1.1-3.9,6.3-4.5,10.3-4.4c57.7,1.1,115.4-1.8,172.6-8.8"/>
<path class="st0" d="M192.3,635.6c14.8,9,30.2,16.9,46.2,23.5c16.5,6.9,33.9,12.5,51.7,12c33.3-0.9,61.9-22.7,87.6-43.9"/>
<path class="st0" d="M44.4,387.9c0-10.4-13.6-16.7-23.2-12.8S6,389.5,3.8,399.7c-1.4,6.6-1.9,13.5-0.3,20.1
	c1.6,6.6,5.2,12.6,8.5,18.6c14,25.5,23.6,53.3,28.2,82c1.4,8.6,2.4,17.4,6.1,25.3s10.7,14.9,19.4,15.8c3.2,0.3,6.6-0.1,9.5,1.3
	c4.3,2.1,5.8,7.4,6.8,12.1c6.3,30.5,10.8,61.8,23.9,90c21,45.3,62.5,78.3,107.2,100.6c33.8,16.9,73.7,28.6,109.1,15.5
	c11.9-4.4,22.6-11.3,33.2-18.2c16.7-10.8,33.3-21.6,50-32.5c17-11,34.2-22.3,47.6-37.4c21.1-23.8,31.1-55.2,40.6-85.6
	c4-13,7.7-26.2,12.3-38.9c17.5,19.3,42.8-45.9,48.9-58.3c13.8-28.5,26.5-61.5,21.2-93.7c-2.6-15.7-12.5-54.5-35.2-39.3
	c-6.3,4.2-10.3,10.9-14.1,17.4"/>
<path class="st0" d="M58.5,494.9c-9.2-1-17.5-8-19.7-16.9c-2.2-8.9,2-19.2,10.1-23.7c2.9-1.6,6.7-3.2,7.1-6.5
	c0.1-1.1-0.2-2.2-0.6-3.3c-4-12.6-8-25.2-12.1-37.8c-2.3-7.1-5.3-15.1-12.2-18c-1-0.4-2.2-0.7-3.2-0.1c-0.7,0.4-1.1,1.2-1.4,2
	c-7.8,18.2-6.8,40,2.6,57.4"/>
<path class="st0" d="M556.3,465.3c9.5-22.7,12.2-50.1-1-70.9c-9.5,2.9-14.8,12.7-19.2,21.6c-5.6,11.4-11.2,22.8-16.9,34.2
	c8.9-2.7,19.3,0.7,24.9,8s6.3,18.2,1.5,26.2c-2.6,4.3-6.5,7.6-10.3,10.8c-6.9,5.8-13.8,11.6-20.7,17.4"/>
<path class="st0" d="M54.2,381.3c-2.6-15.9-3.5-32-2.8-48.1c-2,1,1.2,4,2.9,2.5c1.6-1.5,1.1-4.1,0.7-6.2c-1.6-9.2,1.1-19,7.2-26
	c3.1,2.5,6.2,5,9.3,7.5c9.3-9.8,18.9-20.1,23.7-32.7c5.3-14,4.2-29.6,7.5-44.2c5.2-23.2,21.3-42.8,40.6-56.7s41.7-22.7,64-30.8
	c-0.7,9.2-1.4,18.4-2,27.7c4.9-8,9.9-16,14.8-24c1.3,9.2,1,18.7-1,27.8c4.4-7.7,8.7-15.5,13.1-23.2c-1.8,3.1,4.7,4.1,6.9,1.3
	c2.2-2.7,4.3-7.1,7.7-6.3c37.5-2.6,75.4-0.6,112.4,5.9c15.4,2.7,32.2,6.3,44.7,16.4c12.9,10.4,14,25.3,18.3,40.9
	c2.5-3.2,6.4-5.2,10.5-5.4c2,7.2,4,14.4,6.1,21.5c6-0.8,12-1.6,18.1-2.4c1,15.9,1.3,31.8,0.9,47.8c3.5-1.7,7.8,0.2,10.2,3.3
	c2.4,3,3.4,6.9,4.9,10.5c6.1,15.4,21.1,26.9,37.5,29c-4.4,6-8.8,12.1-13.1,18.1c2.9,0.2,5.7,0.5,8.6,0.7c1.4,5.7,0.4,12-2.8,16.9
	c3.2,0.3,6.5,0.6,9.7,0.9c-3.6-0.3-6.7,19.8-5.8,22.6c2.6,8.4,15.9,16.3,23.1,20.4"/>
<path class="st0" d="M35.4,374.7c-18.1-86.2,13.7-164.6,46.1-243.4c6.6-16.1,13.3-32.3,23.4-46.3c8.5-11.8,22.1-27.2,36.6-31
	c-2.5-2.7-5.3-4.9-8.1-7.3c25-1.8,49.7-7.8,72.8-17.5c-2-2.7-4.1-5.4-6.1-8.2c11.6,7.7,27.1,13.1,39.2,6.1c8-4.6,12.7-14.6,11-23.7
	c2.6,7,5.3,14.1,7.9,21.1c2.4-7.3,4.7-14.7,7.1-22c-3.1,8.8,3.6,18.6,12,22.4c8.5,3.9,18.2,3.4,27.5,3.3
	c32.8-0.6,65.8,2.9,97.8,10.3c-1.9,2.2-3.8,4.3-5.7,6.5c9.9-1.5,19.8-3,29.7-4.5c-3.4,4.5-6,9.6-7.6,15c14,6.6,29.1,14.4,35.3,28.6
	c3,6.9,3.5,14.7,5.7,21.9c3.4,11.2,10.8,20.7,17.4,30.4c44.6,64.8,61.2,148.3,44.7,225.2c2.7,0.5,5.4,0.9,8.1,1.4
	c-1.4,9.8-2.9,19.5-4.3,29.3"/>
<path class="st0" d="M140.2,715.2c1.2,17.8,5.2,42.1,6.3,59.9c0.9,13.4,1.8,27.1,7.7,39.1c5.2,10.7,13.8,19.3,22.5,27.5
	c38,36,79,68.9,122.4,98.2c2.6,1.8,5.5,3.6,8.7,3.5c2.7-0.1,5.2-1.6,7.4-3.1C373.6,902,441.4,858.1,457,785.4
	c7.4-34.6,4.8-71.1,9.2-106.2"/>
</svg>
