<?xml version="1.0" encoding="UTF-8" standalone="no"?>
<!-- Created with Inkscape (http://www.inkscape.org/) -->

<svg
   xmlns:dc="http://purl.org/dc/elements/1.1/"
   xmlns:cc="http://creativecommons.org/ns#"
   xmlns:rdf="http://www.w3.org/1999/02/22-rdf-syntax-ns#"
   xmlns:svg="http://www.w3.org/2000/svg"
   xmlns="http://www.w3.org/2000/svg"
   xmlns:sodipodi="http://sodipodi.sourceforge.net/DTD/sodipodi-0.dtd"
   xmlns:inkscape="http://www.inkscape.org/namespaces/inkscape"
   width="210mm"
   height="297mm"
   viewBox="0 0 744.09448819 1052.3622047"
   id="svg2"
   version="1.1"
   inkscape:version="0.91 r13725"
   sodipodi:docname="holidays.svg">
  <defs
     id="defs4" />
  <sodipodi:namedview
     id="base"
     pagecolor="#ffffff"
     bordercolor="#666666"
     borderopacity="1.0"
     inkscape:pageopacity="0.0"
     inkscape:pageshadow="2"
     inkscape:zoom="0.49497475"
     inkscape:cx="367.81283"
     inkscape:cy="590.56909"
     inkscape:document-units="px"
     inkscape:current-layer="layer1"
     showgrid="false"
     inkscape:window-width="1280"
     inkscape:window-height="702"
     inkscape:window-x="0"
     inkscape:window-y="1"
     inkscape:window-maximized="1"
     inkscape:snap-global="true" />
  <metadata
     id="metadata7">
    <rdf:RDF>
      <cc:Work
         rdf:about="">
        <dc:format>image/svg+xml</dc:format>
        <dc:type
           rdf:resource="http://purl.org/dc/dcmitype/StillImage" />
        <dc:title />
      </cc:Work>
    </rdf:RDF>
  </metadata>
  <g
     inkscape:label="Layer 1"
     inkscape:groupmode="layer"
     id="layer1">
    <path
       style="fill:none;fill-rule:evenodd;stroke:#000000;stroke-width:1px;stroke-linecap:butt;stroke-linejoin:miter;stroke-opacity:1"
       d="m 178.4699,341.41332 c 8.49253,28.57188 -1.51336,39.24206 -22.5,39.28571 -16.94887,-14.05402 -9.12211,-27.13644 22.5,-39.28571 z"
       id="path4186"
       inkscape:connector-curvature="0"
       sodipodi:nodetypes="ccc" />
    <path
       style="fill:none;fill-rule:evenodd;stroke:#000000;stroke-width:1px;stroke-linecap:butt;stroke-linejoin:miter;stroke-opacity:1"
       d="m 172.39847,332.84189 c -30.81783,-22.94998 -61.91587,-14.52231 -77.499995,25.35714 -5.128667,28.1175 -0.0527,52.04848 31.785705,65 10.91533,2.95492 21.46446,3.34642 31.42858,-0.35714 3.2276,-2.10322 6.6411,-3.90529 9.34057,-6.48078 29.66029,-28.29807 52.09343,-54.49543 66.01657,-87.80493 -19.07763,-0.4735 -34.80631,1.97143 -45.35714,8.92857 9.45466,46.37381 -15.55211,51.91468 -32.14286,52.14286 -30.20663,-8.43171 -19.8491,-35.74746 16.42857,-56.78572 z"
       id="path4188"
       inkscape:connector-curvature="0"
       sodipodi:nodetypes="ccccscccc" />
    <path
       style="fill:none;fill-rule:evenodd;stroke:#000000;stroke-width:1px;stroke-linecap:butt;stroke-linejoin:miter;stroke-opacity:1"
       d="m 255.61275,484.98475 c 1.75864,8.22502 7.85715,1.07143 7.85715,1.07143 2.81939,-6.4489 3.41086,-13.68412 21.78571,-14.64286 l 6.07074,0.0646 27.50069,0.29256 c 25.80182,2.63831 49.61335,10.25235 73.57143,17.5 26.37779,5.72649 51.12083,5.45893 74.64286,0.71429 7.70055,-3.08884 17.85996,1.19894 17.5,-26.07143 -4.67118,-6.09401 -7.55222,-3.2373 -10.35714,0 -2.02027,8.55543 4.77893,19.63072 -22.14286,21.07143 -14.53758,0.6592 -29.16759,0.94869 -44.64286,-2.14286 -28.47564,-9.0011 -57.2789,-17.34697 -88.57143,-20.71428 -11.17925,0.23809 -24.18309,0.47619 -38.21428,0.71428 -22.96576,-0.87874 -23.44898,11.05798 -25.00001,22.14286 z"
       id="path4190"
       inkscape:connector-curvature="0"
       sodipodi:nodetypes="ccccccccccccccc" />
    <path
       style="fill:none;fill-rule:evenodd;stroke:#000000;stroke-width:1px;stroke-linecap:butt;stroke-linejoin:miter;stroke-opacity:1"
       d="m 203.4699,250.34189 c 22.45245,19.5245 43.7357,27.35706 64.28571,27.85714 -10.85937,4.46057 -19.52737,24.26083 -28.57143,41.42858 -16.2539,-2.96839 -37.33302,3.71367 -57.14285,7.85714 -17.07285,-14.27149 -35.31033,-16.89677 -54.28572,-12.14286 -39.923404,11.51712 -44.324666,44.0246 -42.857135,80 9.30481,32.19889 33.565095,46.11885 77.142855,36.42857 34.32751,-19.7298 62.09525,-56.95234 85,-107.14285 10.83333,-4.09416 21.66667,-5.48961 32.5,-6.78572 -18.90065,26.12973 -35.7097,54.72529 -46.78572,85 -4.74091,17.73004 -11.44555,35.87662 14.28572,47.14286 18.47343,3.76579 24.08167,-2.11732 27.5,-9.64286 -1.76143,-7.8619 -7.14286,-5 -7.14286,-5 -36.75629,12.90503 -30.81361,-12.13483 -27.5,-27.5 15.22858,-31.34568 28.86113,-63.13501 52.5,-92.14286"
       id="path4192"
       inkscape:connector-curvature="0"
       sodipodi:nodetypes="ccccccccccccccc" />
    <path
       style="fill:none;fill-rule:evenodd;stroke:#000000;stroke-width:1px;stroke-linecap:butt;stroke-linejoin:miter;stroke-opacity:1"
       d="m 192.04133,299.98475 c -12.42761,12.19432 -26.31243,18.55983 -45.35715,4.28571 -14.35608,-13.44569 -23.05866,-28.55417 -5.35714,-51.42857 l 6.07143,-6.07143"
       id="path4194"
       inkscape:connector-curvature="0"
       sodipodi:nodetypes="cccc" />
    <path
       style="fill:none;fill-rule:evenodd;stroke:#000000;stroke-width:1px;stroke-linecap:butt;stroke-linejoin:miter;stroke-opacity:1"
       d="m 162.04133,239.6276 c 11.67168,-3.00811 23.26305,-6.45796 36.78571,0.71429"
       id="path4196"
       inkscape:connector-curvature="0"
       sodipodi:nodetypes="cc" />
    <path
       style="fill:none;fill-rule:evenodd;stroke:#000000;stroke-width:1px;stroke-linecap:butt;stroke-linejoin:miter;stroke-opacity:1"
       d="m 156.68418,249.98475 c -7.82341,4.22398 -22.85314,18.24315 -9.28571,44.64285"
       id="path4200"
       inkscape:connector-curvature="0"
       sodipodi:nodetypes="cc" />
    <path
       style="fill:none;fill-rule:evenodd;stroke:#000000;stroke-width:1px;stroke-linecap:butt;stroke-linejoin:miter;stroke-opacity:1"
       d="m 153.82704,298.91332 c 14.4709,4.94379 27.70873,6.49662 34.64286,-9.28572 3.4028,-12.13544 -3.20035,-16.76641 -15,-17.5"
       id="path4202"
       inkscape:connector-curvature="0"
       sodipodi:nodetypes="ccc" />
    <path
       style="fill:none;fill-rule:evenodd;stroke:#000000;stroke-width:1px;stroke-linecap:butt;stroke-linejoin:miter;stroke-opacity:1"
       d="m 214.18418,246.77046 c 12.21042,8.6004 24.62526,16.92823 39.64286,21.78572 6.83484,3.16515 10.96105,2.94452 15.17556,2.83427 5.06313,-4.42401 8.47984,-7.4368 8.83883,-7.82868"
       id="path4204"
       inkscape:connector-curvature="0"
       sodipodi:nodetypes="cccc" />
    <path
       style="fill:none;fill-rule:evenodd;stroke:#000000;stroke-width:1px;stroke-linecap:butt;stroke-linejoin:miter;stroke-opacity:1"
       d="m 277.39847,264.06126 6.42857,-5.50508 c 5.10241,-0.66997 8.53184,0.12392 6.07143,6.07142 -20.75288,14.98491 -27.5137,32.12244 -36.42857,48.92858 11.42857,-0.98295 22.85714,-2.40396 34.28571,-7.14286 8.64817,-11.91262 16.90318,-25.00474 26.42857,-34.28572"
       id="path4206"
       inkscape:connector-curvature="0"
       sodipodi:nodetypes="cccccc" />
    <path
       style="fill:none;fill-rule:evenodd;stroke:#000000;stroke-width:1px;stroke-linecap:butt;stroke-linejoin:miter;stroke-opacity:1"
       d="m 318.11276,267.84189 c 18.57729,-17.72418 35.59721,-39.1471 61.42857,-39.64286 10.2753,6.39848 14.73143,15.07403 3.21428,30 -4.28423,6.85022 -10.14283,12.12606 -15.79885,17.60449"
       id="path4208"
       inkscape:connector-curvature="0"
       sodipodi:nodetypes="cccc" />
    <path
       style="fill:none;fill-rule:evenodd;stroke:#000000;stroke-width:1px;stroke-linecap:butt;stroke-linejoin:miter;stroke-opacity:1"
       d="m 303.82704,300.34189 c 21.16707,-25.69175 41.15974,-53.0096 74.28572,-62.14286 -9.15774,39.56932 -43.12603,49.15923 -74.28572,62.14286 z"
       id="path4210"
       inkscape:connector-curvature="0"
       sodipodi:nodetypes="ccc" />
    <path
       style="fill:none;fill-rule:evenodd;stroke:#000000;stroke-width:1px;stroke-linecap:butt;stroke-linejoin:miter;stroke-opacity:1"
       d="m 367.39847,275.34189 c -20.74399,15.50407 -47.40815,28.99701 -75.35714,40.35714"
       id="path4212"
       inkscape:connector-curvature="0"
       sodipodi:nodetypes="cc" />
    <path
       style="fill:none;fill-rule:evenodd;stroke:#000000;stroke-width:1px;stroke-linecap:butt;stroke-linejoin:miter;stroke-opacity:1"
       d="m 303.4699,347.48475 c 6.49776,-0.15364 9.25976,2.45345 2.85714,7.85714 -16.48803,6.43233 -23.01882,20.56382 -27.14286,35 -2.22028,10.34904 2.71466,13.91945 18.57143,7.14286 8.64735,-4.76604 16.08751,-10.9807 20,-21.42857"
       id="path4214"
       inkscape:connector-curvature="0"
       sodipodi:nodetypes="ccccc" />
    <path
       style="fill:none;fill-rule:evenodd;stroke:#000000;stroke-width:1px;stroke-linecap:butt;stroke-linejoin:miter;stroke-opacity:1"
       d="m 304.18418,346.77046 c -15.35946,3.88504 -25.70623,16.12454 -32.5,34.28572 -2.54611,9.68896 -1.14564,15.43135 0,21.42857 2.46824,7.76986 10.62882,9.84738 23.57143,7.14286 10.68843,-4.58375 13.63588,-5.55548 28.21429,-26.07143"
       id="path4216"
       inkscape:connector-curvature="0"
       sodipodi:nodetypes="ccccc" />
    <path
       style="fill:none;fill-rule:evenodd;stroke:#000000;stroke-width:1px;stroke-linecap:butt;stroke-linejoin:miter;stroke-opacity:1"
       d="m 324.54133,351.77046 c 2.63561,6.15632 1.64018,11.10229 -1.42857,15.35715 -2.5239,-5.4896 -2.67434,-10.81057 1.42857,-15.35715 z"
       id="path4218"
       inkscape:connector-curvature="0"
       sodipodi:nodetypes="ccc" />
    <path
       style="fill:none;fill-rule:evenodd;stroke:#000000;stroke-width:1px;stroke-linecap:butt;stroke-linejoin:miter;stroke-opacity:1"
       d="m 317.39847,376.77046 c -0.63364,-10.54916 -6.58523,-20.21199 3.21429,-32.5 7.39282,-5.11423 9.28481,-1.42714 12.14285,0.71429 3.84299,10.80124 1.17899,19.16236 -2.5,27.14286 10.73439,4.79541 15.09959,-1.02451 20.35715,-5.35715 30.53927,-68.8344 61.72558,-98.84615 93.21428,-110.71428 0.87738,54.73123 -38.71111,75.55864 -71.42857,102.14285"
       id="path4220"
       inkscape:connector-curvature="0"
       sodipodi:nodetypes="ccccccc" />
    <path
       style="fill:none;fill-rule:evenodd;stroke:#000000;stroke-width:1px;stroke-linecap:butt;stroke-linejoin:miter;stroke-opacity:1"
       d="m 371.68418,347.84189 c 29.24102,-22.7411 55.32031,-47.37924 65.71429,-81.42857 -28.51515,19.33059 -47.49269,49.93289 -65.71429,81.42857 z"
       id="path4222"
       inkscape:connector-curvature="0"
       sodipodi:nodetypes="ccc" />
    <path
       style="fill:none;fill-rule:evenodd;stroke:#000000;stroke-width:1px;stroke-linecap:butt;stroke-linejoin:miter;stroke-opacity:1"
       d="m 372.39847,357.84189 c -16.69581,17.68662 -36.79767,46.34836 -18.57143,62.14286 9.72438,10.93723 -0.35714,7.5 -0.35714,7.5 -23.89258,-12.3366 -15,-25.71429 -15,-25.71429 l 7.5,-22.5 c -5.00111,6.90256 -14.62104,4.56745 -23.21429,4.28572"
       id="path4224"
       inkscape:connector-curvature="0"
       sodipodi:nodetypes="cccccc" />
    <path
       style="fill:none;fill-rule:evenodd;stroke:#000000;stroke-width:1px;stroke-linecap:butt;stroke-linejoin:miter;stroke-opacity:1"
       d="m 432.39847,323.55618 c 4.12424,14.32507 -2.25268,15.72564 -10.35714,15 -7.02742,-12.33586 -1.62072,-15.96784 10.35714,-15 z"
       id="path4226"
       inkscape:connector-curvature="0"
       sodipodi:nodetypes="ccc" />
    <path
       style="fill:none;fill-rule:evenodd;stroke:#000000;stroke-width:1px;stroke-linecap:butt;stroke-linejoin:miter;stroke-opacity:1"
       d="m 408.4699,348.19903 c 6.12691,-1.96024 10.99189,-2.65856 6.78571,5.71429 -10.77665,14.54436 -21.65033,29.02807 -25,48.21429 -0.11322,5.57026 -6.54988,12.40521 6.42857,15.35714 8.12457,1.99379 1.51359,6.86053 0,8.92857 -13.44804,6.14617 -17.03888,-5.14733 -18.21428,-20.71429 3.46602,-22.86985 15.41874,-44.05991 30,-57.5 z"
       id="path4228"
       inkscape:connector-curvature="0"
       sodipodi:nodetypes="ccccccc" />
    <path
       style="fill:none;fill-rule:evenodd;stroke:#000000;stroke-width:1px;stroke-linecap:butt;stroke-linejoin:miter;stroke-opacity:1"
       d="m 421.68418,397.84189 c 22.7373,-4.23948 41.4836,-15.39668 50.00001,-44.28571 -29.4322,-3.28591 -48.15485,8.56926 -50.00001,44.28571 z"
       id="path4230"
       inkscape:connector-curvature="0"
       sodipodi:nodetypes="ccc" />
    <path
       style="fill:none;fill-rule:evenodd;stroke:#000000;stroke-width:1px;stroke-linecap:butt;stroke-linejoin:miter;stroke-opacity:1"
       d="m 519.18419,286.77046 c 8.6402,-7.21163 6.07143,6.07143 6.07143,6.07143 -23.43203,29.55434 -40.09504,66.58365 -60.00001,101.42857 -4.71909,9.23176 -6.92514,17.62584 2.5,22.14286 7.11743,6.50645 5.57299,8.34883 0.35715,8.21429 -8.05287,0.61175 -13.05288,-2.00729 -15,-7.85715 -1.70895,-7.2715 -2.5854,-14.64706 3.21428,-22.85714 -11.86011,14.19645 -41.7116,20.92164 -44.28571,13.57143 -3.69106,-28.11869 8.49998,-52.80032 36.78571,-62.14286 12.49501,-2.3477 18.92184,-4.64748 31.07143,0.35714 14.10541,-19.64286 27.08357,-39.28571 39.28572,-58.92857 z"
       id="path4236"
       inkscape:connector-curvature="0"
       sodipodi:nodetypes="ccccccccccc" />
    <path
       style="fill:none;fill-rule:evenodd;stroke:#000000;stroke-width:1px;stroke-linecap:butt;stroke-linejoin:miter;stroke-opacity:1"
       d="m 495.9699,399.98475 c 0.68121,-29.53153 14.71449,-47.93634 49.64286,-48.92857 -2.34503,33.92074 -23.69995,44.26921 -49.64286,48.92857 z"
       id="path4238"
       inkscape:connector-curvature="0"
       sodipodi:nodetypes="ccc" />
    <path
       style="fill:none;fill-rule:evenodd;stroke:#000000;stroke-width:1px;stroke-linecap:butt;stroke-linejoin:miter;stroke-opacity:1"
       d="m 559.89847,342.1276 c 1.87074,-7.2959 12.51794,0.60991 7.5,6.07143 -9.87731,11.97072 -19.99644,29.20822 -30,43.92858 -3.09368,6.70687 -4.34113,14.02914 1.07143,23.57142 1.51987,2.58409 3.98393,1.43221 6.42857,0.35715 5.75479,4.48429 3.66886,7.40044 0,10 -6.62381,0.14287 -12.76989,-2.10294 -17.5,-11.42857 -3.46343,-5.35346 -1.80087,-12.41559 0.35714,-19.64286 -12.36501,4.92508 -23.4445,18.20601 -37.5,12.14286 -7.11393,-2.6324 -5.72804,-10.37161 -0.71428,-30 7.01957,-17.46399 19.42881,-30.25693 40.71428,-35.35715 9.79875,-0.96372 18.50205,-0.17471 23.57143,6.42857 0,0 7.16154,-2.80205 6.07143,-6.07143 z"
       id="path4240"
       inkscape:connector-curvature="0"
       sodipodi:nodetypes="ccccccccccccc" />
    <path
       style="fill:none;fill-rule:evenodd;stroke:#000000;stroke-width:1px;stroke-linecap:butt;stroke-linejoin:miter;stroke-opacity:1"
       d="m 583.82704,342.84189 c 4.15165,-6.73089 10.78107,-5.04677 8.57143,6.78572 -7.79913,19.15756 -19.92582,28.06406 -25.71428,43.57142 -0.39108,11.73455 6.89592,8.11292 12.85714,7.14286 22.82542,-14.20451 38.47684,-32.82378 48.92857,-54.64286 9.70943,-6.33885 7.00235,0.86756 6.78571,5.35715 l -39.28571,65.71428 c 15.43663,0.10816 27.50849,2.05165 32.5,7.85715 4.70452,7.51798 -4.28571,7.5 -4.28571,7.5 0,0 -20.91623,-4.81011 -33.57143,-4.28572 -16.99083,21.75483 -24.9294,45.92359 -54.64286,64.28572 -4.9688,1.03366 -10.75756,0.97404 -18.57143,-1.78572 -17.05397,-7.12293 -12.65591,-19.01297 -4.28571,-31.78571 20.33229,-22.02315 44.32117,-32.46708 70.35714,-36.42857 3.91632,-7.85714 8.12885,-15.71429 13.92857,-23.57143 -6.90476,0.62026 -13.09523,9.41077 -20.71428,11.42857 -5.97996,0.50236 -11.69468,4.18763 -18.57143,-6.07143 -7.04401,-10.69045 14.71674,-39.21241 25.71428,-61.07143 z"
       id="path4242"
       inkscape:connector-curvature="0"
       sodipodi:nodetypes="cccccccccccccccccc" />
    <path
       style="fill:none;fill-rule:evenodd;stroke:#000000;stroke-width:1px;stroke-linecap:butt;stroke-linejoin:miter;stroke-opacity:1"
       d="m 573.82704,431.77046 c -7.98312,22.11666 -22.37795,38.35592 -41.78571,50 -10.31379,4.03432 -14.28051,0.3111 -16.07143,-6.07143 -2.62179,-10.73798 41.00093,-33.62483 57.85714,-43.92857 z"
       id="path4244"
       inkscape:connector-curvature="0"
       sodipodi:nodetypes="cccc" />
    <path
       style="fill:none;fill-rule:evenodd;stroke:#000000;stroke-width:1px;stroke-linecap:butt;stroke-linejoin:miter;stroke-opacity:1"
       d="m 658.82704,361.41332 c -6.42857,7.14286 -6.78571,8.57143 -6.78571,8.57143 -6.51142,4.11237 -11.81737,-0.90491 -7.14286,-7.14286 4.59938,-5.07557 8.85139,-9.80377 12.5,-13.92857 0.65444,-7.32175 0.8816,-15.07078 8.92857,-15 7.49338,-0.76885 8.9919,2.95845 8.92857,7.85714 -0.63417,9.40701 -4.07957,10.38033 -7.5,11.42857 1.70059,15.38922 7.22172,32.90096 1.07143,43.92858 -4.22397,10.55559 -11.27406,14.75241 -19.28571,16.78571 -14.95067,3.26869 -21.11853,-3.04386 -25.71429,-11.07143 -1.53148,-5.46005 -1.46459,-9.32173 6.42857,-5.35714 l 8.21429,7.85714 c 0,0 8.45238,2.69894 12.14286,-1.07143 4.27194,-3.3471 8.64792,-6.59017 11.07143,-11.78571 4.11709,-8.5137 3.49974,-18.74901 -2.85715,-31.07143 z"
       id="path4246"
       inkscape:connector-curvature="0"
       sodipodi:nodetypes="ccccccccccccccc" />
    <path
       style="fill:none;fill-rule:evenodd;stroke:#000000;stroke-width:1px;stroke-linecap:butt;stroke-linejoin:miter;stroke-opacity:1"
       d="m 317.995,267.60238 -3.78808,4.79822 z"
       id="path4248"
       inkscape:connector-curvature="0" />
    <path
       style="fill:none;fill-rule:evenodd;stroke:#000000;stroke-width:1px;stroke-linecap:butt;stroke-linejoin:miter;stroke-opacity:1"
       d="m 173.4699,271.77046 c -3.9154,-3.31671 -4.84285,-5.94649 3.57143,-6.42857 7.22155,1.438 15.51897,-1.60681 18.92857,15.71429 1.85473,6.73787 0.90025,13.22037 -4.64286,19.28571"
       id="path4250"
       inkscape:connector-curvature="0"
       sodipodi:nodetypes="cccc" />
    <path
       style="fill:none;fill-rule:evenodd;stroke:#000000;stroke-width:1px;stroke-linecap:butt;stroke-linejoin:miter;stroke-opacity:1"
       d="m 154.18418,298.91332 c -3.40508,-1.03556 -5.6402,-2.65609 -7.14285,-4.64286"
       id="path4252"
       inkscape:connector-curvature="0"
       sodipodi:nodetypes="cc" />
    <path
       style="fill:none;fill-rule:evenodd;stroke:#000000;stroke-width:1px;stroke-linecap:butt;stroke-linejoin:miter;stroke-opacity:1"
       d="m 147.15295,246.89425 c 4.32561,-3.38974 9.48153,-5.74157 15.15229,-7.44987"
       id="path4254"
       inkscape:connector-curvature="0"
       sodipodi:nodetypes="cc" />
    <path
       style="fill:none;fill-rule:evenodd;stroke:#000000;stroke-width:1px;stroke-linecap:butt;stroke-linejoin:miter;stroke-opacity:1"
       d="m 154.72909,251.1874 c 12.58506,-9.74219 44.72435,-5.87237 49.11867,-0.37881"
       id="path4256"
       inkscape:connector-curvature="0"
       sodipodi:nodetypes="cc" />
    <path
       style="fill:none;fill-rule:evenodd;stroke:#000000;stroke-width:1px;stroke-linecap:butt;stroke-linejoin:miter;stroke-opacity:1"
       d="m 214.36276,246.77046 c -6.45363,-2.99498 -11.87943,-5.21909 -16.42857,-6.78571"
       id="path4258"
       inkscape:connector-curvature="0"
       sodipodi:nodetypes="cc" />
    <path
       style="fill:none;fill-rule:evenodd;stroke:#000000;stroke-width:1px;stroke-linecap:butt;stroke-linejoin:miter;stroke-opacity:1"
       d="M 244.64286,113.07649 Z"
       id="path4294"
       inkscape:connector-curvature="0" />
    <path
       style="fill:none;fill-rule:evenodd;stroke:#000000;stroke-width:1px;stroke-linecap:butt;stroke-linejoin:miter;stroke-opacity:1"
       d="m 242.85714,-1.2092255 1.42858,114.6428555 -6.78572,0 0.35714,8.57143 13.92857,-0.17857 0,-8.39286 -4.82143,0 -0.89285,-114.9999984"
       id="path4296"
       inkscape:connector-curvature="0"
       sodipodi:nodetypes="cccccccc" />
    <path
       style="fill:none;fill-rule:evenodd;stroke:#000000;stroke-width:1px;stroke-linecap:butt;stroke-linejoin:miter;stroke-opacity:1"
       d="m 318.92857,-1.2092255 0.35714,98.9285715 -5.89286,0 -0.17856,8.928574 13.92857,0 -0.35715,-8.928574 -4.64285,0 -0.35715,-99.6428572"
       id="path4302"
       inkscape:connector-curvature="0"
       sodipodi:nodetypes="cccccccc" />
    <path
       style="fill:none;fill-rule:evenodd;stroke:#000000;stroke-width:1px;stroke-linecap:butt;stroke-linejoin:miter;stroke-opacity:1"
       d="m 388.57143,-1.5663684 1.25,127.1428584 -6.96428,0.35714 0.17857,8.39286 14.46428,0.17857 0,-8.57143 -4.64286,0 -1.42857,-127.8571412"
       id="path4304"
       inkscape:connector-curvature="0"
       sodipodi:nodetypes="cccccccc" />
    <path
       style="fill:none;fill-rule:evenodd;stroke:#000000;stroke-width:1px;stroke-linecap:butt;stroke-linejoin:miter;stroke-opacity:1"
       d="m 460.71429,-2.2806541 0.71428,99.2857141 -6.42857,0 0.35714,7.85714 14.64286,-0.35714 -0.35714,-8.214285 -5,0 -0.71429,-97.8571434"
       id="path4306"
       inkscape:connector-curvature="0" />
    <path
       style="fill:none;fill-rule:evenodd;stroke:#000000;stroke-width:1px;stroke-linecap:butt;stroke-linejoin:miter;stroke-opacity:1"
       d="M 529.64286,-1.5663684 530,114.50506 l -5.35714,-0.35714 -1e-5,8.21428 13.57144,0 -0.17857,-8.03571 -4.28572,0 -0.53571,-116.2500012"
       id="path4308"
       inkscape:connector-curvature="0"
       sodipodi:nodetypes="cccccccc" />
    <path
       style="fill:none;fill-rule:evenodd;stroke:#000000;stroke-width:1px;stroke-linecap:butt;stroke-linejoin:miter;stroke-opacity:1"
       d="m 222.73864,146.25537 18.18274,0 0.25254,4.79823 -5.55584,-10e-6 -0.25254,11.61676 20.96067,0 0,-11.61675 -5.55584,0 0.25254,-5.55584 18.43528,0.25253 -0.25254,5.05076 -8.08122,0 0.50508,30.05205 7.3236,-0.25254 1e-5,5.55584 -17.93021,-0.25254 0,-5.05076 5.55584,0 0.25253,-13.38453 -21.71827,-0.25253 -0.25254,13.13198 5.55583,0 0.50508,6.31345 -18.18274,0.25254 -0.25254,-6.31345 7.57614,0 0,-29.54696 -7.32361,0 z"
       id="path4324"
       inkscape:connector-curvature="0"
       sodipodi:nodetypes="ccccccccccccccccccccccccccccc" />
    <path
       style="fill:none;fill-rule:evenodd;stroke:#000000;stroke-width:1px;stroke-linecap:butt;stroke-linejoin:miter;stroke-opacity:1"
       d="m 321.22851,137.92161 -5.80838,14.14214 11.61676,0 z"
       id="path4326"
       inkscape:connector-curvature="0" />
    <path
       style="fill:none;fill-rule:evenodd;stroke:#000000;stroke-width:1px;stroke-linecap:butt;stroke-linejoin:miter;stroke-opacity:1"
       d="m 310.11683,128.07262 14.89975,-0.25253 12.62691,34.85026 6.31345,0.25254 -0.25254,5.55584 -17.42513,-0.25254 0,-6.31345 5.05077,0.25253 -3.53554,-5.05076 -14.14213,-0.25254 -2.77792,5.80838 5.05076,0 0.25254,5.3033 -17.42513,-0.25254 0,-5.3033 8.58629,0.25254 10.85914,-28.78935 -8.58629,0 z"
       id="path4328"
       inkscape:connector-curvature="0" />
    <path
       style="fill:none;fill-rule:evenodd;stroke:#000000;stroke-width:1px;stroke-linecap:butt;stroke-linejoin:miter;stroke-opacity:1"
       d="m 385.62573,164.18558 0,15.40482 13.63706,-0.25253 c 3.63307,-4.96658 5.11742,-9.42809 0.25254,-14.89975 z"
       id="path4330"
       inkscape:connector-curvature="0"
       sodipodi:nodetypes="ccccc" />
    <path
       style="fill:none;fill-rule:evenodd;stroke:#000000;stroke-width:1px;stroke-linecap:butt;stroke-linejoin:miter;stroke-opacity:1"
       d="m 373.75644,164.43812 7.07107,0 -0.25254,29.54696 -7.82868,0 0,4.54568 21.71828,0 -0.25254,-5.3033 -8.33376,0.25254 0.25254,-9.34391 13.38452,0 c 7.31866,-0.82891 8.92963,-6.22398 9.59645,-12.37437 -0.33009,-6.08869 -1.46146,-11.59463 -9.09137,-12.37437 l -26.51651,-0.25253 z"
       id="path4332"
       inkscape:connector-curvature="0"
       sodipodi:nodetypes="cccccccccccccc" />
    <path
       style="fill:none;fill-rule:evenodd;stroke:#000000;stroke-width:1px;stroke-linecap:butt;stroke-linejoin:miter;stroke-opacity:1"
       d="m 450.89286,135.04077 0.17857,30.35715 -6.78571,0 0.17857,3.57143 20.35714,0.17857 -0.17857,-4.10715 -8.21429,0.17858 0,-10.17858 13.75,0.17858 c 7.04428,-1.00007 9.78761,-5.37946 10.17857,-11.60715 0.37991,-6.9651 -3.05926,-12.37955 -9.82142,-12.85714 l -26.25,0.17857 0,4.28572 z"
       id="path4354"
       inkscape:connector-curvature="0"
       sodipodi:nodetypes="cccccccccccccc" />
    <path
       style="fill:none;fill-rule:evenodd;stroke:#000000;stroke-width:1px;stroke-linecap:butt;stroke-linejoin:miter;stroke-opacity:1"
       d="m 456.60714,134.8622 -0.17857,16.60715 12.32143,0.17857 c 4.45945,-1.84685 5.69216,-4.76928 5.89286,-8.03572 0.0883,-5.82845 -3.91536,-7.05355 -7.5,-8.75 z"
       id="path4356"
       inkscape:connector-curvature="0"
       sodipodi:nodetypes="cccccc" />
    <path
       style="fill:none;fill-rule:evenodd;stroke:#000000;stroke-width:1px;stroke-linecap:butt;stroke-linejoin:miter;stroke-opacity:1"
       d="m 512.14286,147.54077 16.42857,0 -0.17857,4.28572 -2.32143,-0.17857 0,2.32143 9.10714,10.17857 9.28572,-10.53572 -0.17857,-2.32143 -3.75,0.17858 0,-3.92858 16.25,0.17858 -0.35715,3.75 -6.07143,0.17857 -12.14285,15.89285 -0.17857,14.46429 6.78571,-0.17857 0,5.17857 -20.53571,-0.17857 0.17857,-5 6.78571,-0.17857 0,-13.92857 -13.21428,-16.07143 -5.89286,-0.17857 z"
       id="path4358"
       inkscape:connector-curvature="0" />
    <ellipse
       style="fill:none;stroke:#000000;stroke-opacity:1"
       id="path4380"
       cx="319.96582"
       cy="151.30614"
       rx="45.204327"
       ry="44.446712" />
    <ellipse
       style="fill:none;stroke:#000000;stroke-opacity:1"
       id="path4384"
       cx="389.91888"
       cy="180.09549"
       rx="45.456863"
       ry="44.446712" />
    <ellipse
       style="fill:none;stroke:#000000;stroke-width:1.00859475;stroke-opacity:1"
       id="path4386"
       cx="461.89224"
       cy="150.54852"
       rx="46.50605"
       ry="44.608295" />
    <ellipse
       style="fill:none;stroke:#000000;stroke-width:0.99153507;stroke-opacity:1"
       id="path4388"
       cx="531.08777"
       cy="165.70081"
       rx="45.208561"
       ry="43.693329" />
    <ellipse
       style="fill:none;fill-rule:evenodd;stroke:#000000;stroke-width:1.25487363px;stroke-linecap:butt;stroke-linejoin:miter;stroke-opacity:1;fill-opacity:1"
       id="path4298"
       cx="244.9922"
       cy="-167.53113"
       rx="43.449249"
       ry="44.515419"
       transform="scale(1,-1)" />
    <ellipse
       style="fill:none;fill-opacity:1;stroke:#000000;stroke-width:0.94738019;stroke-miterlimit:4;stroke-dasharray:none;stroke-opacity:1"
       id="path4519"
       cx="365.29639"
       cy="572.28717"
       rx="8.7388754"
       ry="6.8448396" />
    <ellipse
       style="fill:none;fill-opacity:1;stroke:#000000;stroke-width:1;stroke-miterlimit:4;stroke-dasharray:none;stroke-opacity:1"
       id="path4521"
       cx="417.57181"
       cy="572.41345"
       rx="8.207489"
       ry="6.9447989" />
    <path
       style="fill:none;fill-rule:evenodd;stroke:#000000;stroke-width:1px;stroke-linecap:butt;stroke-linejoin:miter;stroke-opacity:1"
       d="m 432.85037,574.56005 c -0.21027,-7.7078 -5.27318,-14.20886 -12.37437,-20.20305 3.82182,1.53829 6.05465,0.90978 2.52538,-7.57614 9.32668,-13.3676 7.90884,-24.25569 -0.25253,-33.58758 -10.77348,9.11833 -12.77423,22.07473 -12.87945,35.86042 -11.95347,-2.85976 -23.90695,-3.99346 -35.86042,0.50508 0.54622,-18.1842 -1.51604,-32.08304 -10.35406,-34.85027 -8.30428,8.87237 -15.17963,18.3853 -4.29315,35.86042 -2.80875,2.9081 -2.23477,4.46311 -1.76776,6.06091 -9.1389,4.01685 -12.67268,10.83626 -15.15229,18.18275"
       id="path4525"
       inkscape:connector-curvature="0"
       sodipodi:nodetypes="cccccccccc" />
    <path
       style="fill:none;fill-rule:evenodd;stroke:#000000;stroke-width:1px;stroke-linecap:butt;stroke-linejoin:miter;stroke-opacity:1"
       d="m 427.79961,576.58036 24.74874,-7.82869 -23.48605,9.84899"
       id="path4527"
       inkscape:connector-curvature="0" />
    <path
       style="fill:none;fill-rule:evenodd;stroke:#000000;stroke-width:1px;stroke-linecap:butt;stroke-linejoin:miter;stroke-opacity:1"
       d="m 430.07245,579.86335 32.57742,0.50508 -32.82996,1.76777"
       id="path4529"
       inkscape:connector-curvature="0" />
    <path
       style="fill:none;fill-rule:evenodd;stroke:#000000;stroke-width:1px;stroke-linecap:butt;stroke-linejoin:miter;stroke-opacity:1"
       d="m 431.84022,584.66158 30.30457,3.78807 -30.30457,-1.76777"
       id="path4531"
       inkscape:connector-curvature="0" />
    <path
       style="fill:none;fill-rule:evenodd;stroke:#000000;stroke-width:1px;stroke-linecap:butt;stroke-linejoin:miter;stroke-opacity:1"
       d="m 350.77548,576.8329 -34.85027,-4.79823 32.57742,7.82868"
       id="path4533"
       inkscape:connector-curvature="0" />
    <path
       style="fill:none;fill-rule:evenodd;stroke:#000000;stroke-width:1px;stroke-linecap:butt;stroke-linejoin:miter;stroke-opacity:1"
       d="m 345.72471,582.38873 -37.37564,-2.52538 35.35534,4.54569"
       id="path4535"
       inkscape:connector-curvature="0" />
    <path
       style="fill:none;fill-rule:evenodd;stroke:#000000;stroke-width:1px;stroke-linecap:butt;stroke-linejoin:miter;stroke-opacity:1"
       d="m 339.6638,589.20726 -28.78935,3.78808 28.03173,-1.01016"
       id="path4537"
       inkscape:connector-curvature="0" />
    <path
       style="fill:none;fill-rule:evenodd;stroke:#000000;stroke-width:1px;stroke-linecap:butt;stroke-linejoin:miter;stroke-opacity:1"
       d="m 381.58513,572.53975 c 6.65017,-3.77963 13.30034,-3.70912 19.95051,-0.75762"
       id="path4539"
       inkscape:connector-curvature="0"
       sodipodi:nodetypes="cc" />
    <ellipse
       style="fill:#2b0000;fill-opacity:1;stroke:#000000;stroke-width:1;stroke-miterlimit:4;stroke-dasharray:none;stroke-opacity:1"
       id="path4541"
       cx="364.9176"
       cy="572.16089"
       rx="3.0304577"
       ry="2.6516504" />
    <ellipse
       style="fill:#2b0000;fill-opacity:1;stroke:#000000;stroke-width:1;stroke-miterlimit:4;stroke-dasharray:none;stroke-opacity:1"
       id="path4543"
       cx="416.43536"
       cy="571.65582"
       rx="3.0304577"
       ry="2.3991122" />
    <ellipse
       style="fill:#2b0000;fill-opacity:1;stroke:#000000;stroke-width:1;stroke-miterlimit:4;stroke-dasharray:none;stroke-opacity:1"
       id="path4545"
       cx="392.57053"
       cy="573.92865"
       rx="6.1871843"
       ry="0.63134533" />
    <path
       style="fill:none;fill-rule:evenodd;stroke:#000000;stroke-width:1px;stroke-linecap:butt;stroke-linejoin:miter;stroke-opacity:1"
       d="m 435.24948,576.58036 1.6415,2.77792"
       id="path4547"
       inkscape:connector-curvature="0" />
    <path
       style="fill:none;fill-rule:evenodd;stroke:#000000;stroke-width:1px;stroke-linecap:butt;stroke-linejoin:miter;stroke-opacity:1"
       d="m 438.15367,582.38873 0.75762,2.52539"
       id="path4549"
       inkscape:connector-curvature="0" />
    <path
       style="fill:none;fill-rule:evenodd;stroke:#000000;stroke-width:1px;stroke-linecap:butt;stroke-linejoin:miter;stroke-opacity:1"
       d="m 439.92144,587.94457 c 8.15591,6.7391 13.28522,14.99149 17.42513,23.73859 21.70994,53.37094 9.98877,67.003 -3.283,78.7919"
       id="path4551"
       inkscape:connector-curvature="0"
       sodipodi:nodetypes="ccc" />
    <path
       style="fill:none;fill-rule:evenodd;stroke:#000000;stroke-width:1px;stroke-linecap:butt;stroke-linejoin:miter;stroke-opacity:1"
       d="m 339.6638,578.34812 -2.02031,3.03046"
       id="path4553"
       inkscape:connector-curvature="0" />
    <path
       style="fill:none;fill-rule:evenodd;stroke:#000000;stroke-width:1px;stroke-linecap:butt;stroke-linejoin:miter;stroke-opacity:1"
       d="m 335.87573,583.90396 0.50507,5.3033"
       id="path4555"
       inkscape:connector-curvature="0" />
    <path
       style="fill:none;fill-rule:evenodd;stroke:#000000;stroke-width:1px;stroke-linecap:butt;stroke-linejoin:miter;stroke-opacity:1"
       d="m 334.86557,594.25803 c -14.45253,8.35077 -13.49089,12.16797 -17.42513,17.42513 -9.99153,26.04004 -23.28398,52.1401 2.52538,77.52921"
       id="path4557"
       inkscape:connector-curvature="0"
       sodipodi:nodetypes="ccc" />
    <path
       style="fill:none;fill-rule:evenodd;stroke:#000000;stroke-width:1px;stroke-linecap:butt;stroke-linejoin:miter;stroke-opacity:1"
       d="m 329.30973,620.522 c -4.07377,10.27652 -5.03912,19.93135 -5.80838,29.54696 -1.4561,12.67352 -4.72309,22.63068 -3.78807,38.89087"
       id="path4213"
       inkscape:connector-curvature="0"
       sodipodi:nodetypes="ccc" />
    <path
       style="fill:none;fill-rule:evenodd;stroke:#000000;stroke-width:1px;stroke-linecap:butt;stroke-linejoin:miter;stroke-opacity:1"
       d="m 322.74374,656.88749 c 2.82675,-16.42077 8.2873,-29.62245 17.17259,-38.63834 7.82868,-7.02005 15.65737,-11.32858 23.48605,-13.63706 22.37016,-6.27513 39.41245,-3.0785 55.81093,1.26269 13.15506,4.49159 20.22085,12.66631 25.00127,22.22336 8.84032,9.07913 10.89767,19.12727 10.35407,29.54696"
       id="path4217"
       inkscape:connector-curvature="0"
       sodipodi:nodetypes="cccccc" />
    <path
       style="fill:none;fill-rule:evenodd;stroke:#000000;stroke-width:1px;stroke-linecap:butt;stroke-linejoin:miter;stroke-opacity:1"
       d="m 448.76027,619.25931 c 2.59785,6.06872 3.43453,13.31155 4.04061,20.70812 0.58007,16.7517 1.89606,33.50339 1.26269,50.25509"
       id="path4219"
       inkscape:connector-curvature="0"
       sodipodi:nodetypes="ccc" />
    <path
       style="fill:none;fill-rule:evenodd;stroke:#000000;stroke-width:1px;stroke-linecap:butt;stroke-linejoin:miter;stroke-opacity:1"
       d="m 320.4709,689.71745 c -0.33087,13.24032 5.433,22.41749 13.13198,30.30457"
       id="path4221"
       inkscape:connector-curvature="0"
       sodipodi:nodetypes="cc" />
    <path
       style="fill:none;fill-rule:evenodd;stroke:#000000;stroke-width:1px;stroke-linecap:butt;stroke-linejoin:miter;stroke-opacity:1"
       d="m 453.81103,690.98014 c -0.51649,12.90256 -5.15389,15.91492 -8.83883,21.2132"
       id="path4223"
       inkscape:connector-curvature="0"
       sodipodi:nodetypes="cc" />
    <path
       style="fill:none;fill-rule:evenodd;stroke:#000000;stroke-width:1px;stroke-linecap:butt;stroke-linejoin:miter;stroke-opacity:1"
       d="m 372.24121,726.58801 c 11.0275,-3.83232 22.055,-5.65451 33.0825,-2.77792"
       id="path4225"
       inkscape:connector-curvature="0"
       sodipodi:nodetypes="cc" />
    <path
       style="fill:none;fill-rule:evenodd;stroke:#000000;stroke-width:1px;stroke-linecap:butt;stroke-linejoin:miter;stroke-opacity:1"
       d="m 345.97725,688.45475 c 14.76485,3.14931 25.39439,11.51271 24.74874,34.09265 -0.18764,8.34934 -2.02001,14.43717 -7.57615,15.40483 -3.18369,0.0704 -4.01045,1.95538 -12.12183,-1.76777 -17.30866,-12.33303 -20.76073,-23.60017 -20.70813,-34.59772 2.30567,-7.53357 5.3952,-14.21796 15.65737,-13.13199 z"
       id="path4229"
       inkscape:connector-curvature="0"
       sodipodi:nodetypes="cccccc" />
    <path
       style="fill:none;fill-rule:evenodd;stroke:#000000;stroke-width:1px;stroke-linecap:butt;stroke-linejoin:miter;stroke-opacity:1"
       d="m 438.15367,688.20222 c -23.04219,-2.005 -23.87435,10.79669 -29.7995,20.20305 -5.40976,22.54191 0.48556,27.85702 9.09137,29.04188 l 9.34391,-1.26269 c 6.22097,-3.76437 11.52462,-8.62952 14.39468,-16.41498 10.51081,-22.92961 3.50067,-26.99051 -3.03046,-31.56726 z"
       id="path4231"
       inkscape:connector-curvature="0"
       sodipodi:nodetypes="cccccc" />
    <path
       style="fill:none;fill-rule:evenodd;stroke:#000000;stroke-width:1px;stroke-linecap:butt;stroke-linejoin:miter;stroke-opacity:1"
       d="m 411.38463,727.59817 c 0.65776,7.52331 5.82435,6.02896 10.35406,5.80837 -1.32504,-5.27748 -4.32412,-7.92431 -10.35406,-5.80837 z"
       id="path4233"
       inkscape:connector-curvature="0"
       sodipodi:nodetypes="ccc" />
    <path
       style="fill:none;fill-rule:evenodd;stroke:#000000;stroke-width:1px;stroke-linecap:butt;stroke-linejoin:miter;stroke-opacity:1"
       d="m 359.36177,733.91162 c 6.16105,2.08314 7.61875,-1.94808 7.07107,-8.5863 -5.22275,0.47399 -9.79425,1.4907 -7.07107,8.5863 z"
       id="path4235"
       inkscape:connector-curvature="0"
       sodipodi:nodetypes="ccc" />
    <path
       style="fill:none;fill-rule:evenodd;stroke:#000000;stroke-width:1px;stroke-linecap:butt;stroke-linejoin:miter;stroke-opacity:1"
       d="m 345.47217,720.27456 c 0.81551,8.5505 5.33111,12.66088 12.87945,13.13198"
       id="path4237"
       inkscape:connector-curvature="0"
       sodipodi:nodetypes="cc" />
    <path
       style="fill:none;fill-rule:evenodd;stroke:#000000;stroke-width:1px;stroke-linecap:butt;stroke-linejoin:miter;stroke-opacity:1"
       d="m 362.64477,711.68826 c 4.1028,3.86576 6.47772,8.69146 4.54568,15.90991"
       id="path4239"
       inkscape:connector-curvature="0"
       sodipodi:nodetypes="cc" />
    <path
       style="fill:none;fill-rule:evenodd;stroke:#000000;stroke-width:1px;stroke-linecap:butt;stroke-linejoin:miter;stroke-opacity:1"
       d="m 354.81608,710.93065 3.53554,-0.25254"
       id="path4241"
       inkscape:connector-curvature="0" />
    <path
       style="fill:none;fill-rule:evenodd;stroke:#000000;stroke-width:1px;stroke-linecap:butt;stroke-linejoin:miter;stroke-opacity:1"
       d="m 347.49247,714.71872 c 1.01016,0 3.283,-2.0203 3.283,-2.0203"
       id="path4243"
       inkscape:connector-curvature="0"
       sodipodi:nodetypes="cc" />
    <path
       style="fill:none;fill-rule:evenodd;stroke:#000000;stroke-width:1px;stroke-linecap:butt;stroke-linejoin:miter;stroke-opacity:1"
       d="m 411.13209,716.73903 c -4.48746,4.49657 -0.57261,9.09667 -0.50508,10.85914"
       id="path4245"
       inkscape:connector-curvature="0"
       sodipodi:nodetypes="cc" />
    <path
       style="fill:none;fill-rule:evenodd;stroke:#000000;stroke-width:1px;stroke-linecap:butt;stroke-linejoin:miter;stroke-opacity:1"
       d="m 430.57752,719.26441 c 4.76735,10.70497 -1.39624,12.40798 -7.82868,13.88959"
       id="path4247"
       inkscape:connector-curvature="0"
       sodipodi:nodetypes="cc" />
    <path
       style="fill:none;fill-rule:evenodd;stroke:#000000;stroke-width:1px;stroke-linecap:butt;stroke-linejoin:miter;stroke-opacity:1"
       d="m 423.75899,715.72887 3.53554,0.75762"
       id="path4249"
       inkscape:connector-curvature="0" />
    <path
       style="fill:none;fill-rule:evenodd;stroke:#000000;stroke-width:1px;stroke-linecap:butt;stroke-linejoin:miter;stroke-opacity:1"
       d="m 415.93031,714.21364 3.53554,-0.25253"
       id="path4251"
       inkscape:connector-curvature="0" />
    <path
       style="fill:none;fill-rule:evenodd;stroke:#000000;stroke-width:1px;stroke-linecap:butt;stroke-linejoin:miter;stroke-opacity:1"
       d="m 346.73486,718.50679 -3.28299,-8.08122 4.79822,7.07107"
       id="path4253"
       inkscape:connector-curvature="0" />
    <path
       style="fill:none;fill-rule:evenodd;stroke:#000000;stroke-width:1px;stroke-linecap:butt;stroke-linejoin:miter;stroke-opacity:1"
       d="m 352.79578,714.97126 -2.77792,-10.10153 5.3033,9.09138 0,0"
       id="path4255"
       inkscape:connector-curvature="0" />
    <path
       style="fill:none;fill-rule:evenodd;stroke:#000000;stroke-width:1px;stroke-linecap:butt;stroke-linejoin:miter;stroke-opacity:1"
       d="m 358.09908,713.96111 2.77792,-9.09138 0.75761,9.34391"
       id="path4257"
       inkscape:connector-curvature="0" />
    <path
       style="fill:none;fill-rule:evenodd;stroke:#000000;stroke-width:1px;stroke-linecap:butt;stroke-linejoin:miter;stroke-opacity:1"
       d="m 412.39478,716.99156 2.52538,-10.85914 1.51523,11.11168"
       id="path4259"
       inkscape:connector-curvature="0" />
    <path
       style="fill:none;fill-rule:evenodd;stroke:#000000;stroke-width:1px;stroke-linecap:butt;stroke-linejoin:miter;stroke-opacity:1"
       d="m 420.22346,716.23395 4.54569,-9.09137 -2.27285,10.35406"
       id="path4261"
       inkscape:connector-curvature="0" />
    <path
       style="fill:none;fill-rule:evenodd;stroke:#000000;stroke-width:1px;stroke-linecap:butt;stroke-linejoin:miter;stroke-opacity:1"
       d="m 426.28438,719.76948 c 1.76776,-0.50507 6.56599,-7.07106 6.56599,-7.07106 l -3.78807,8.58629"
       id="path4263"
       inkscape:connector-curvature="0" />
    <path
       style="fill:none;fill-rule:evenodd;stroke:#000000;stroke-width:1px;stroke-linecap:butt;stroke-linejoin:miter;stroke-opacity:1"
       d="m 295.46962,722.5474 c 12.93389,-2.1539 25.6192,-3.31351 37.88072,-2.77792"
       id="path4265"
       inkscape:connector-curvature="0"
       sodipodi:nodetypes="cc" />
    <path
       style="fill:none;fill-rule:evenodd;stroke:#000000;stroke-width:1px;stroke-linecap:butt;stroke-linejoin:miter;stroke-opacity:1"
       d="m 295.21708,741.48776 c 40.53986,-0.28905 61.45067,-1.39598 69.70053,-3.03045 18.71254,-4.4878 35.25864,-1.7541 52.02285,0.25253 17.46189,2.80953 35.19369,5.43912 48.73986,10.85914 7.66266,1.93729 8.77921,0.60153 11.36422,0"
       id="path4267"
       inkscape:connector-curvature="0"
       sodipodi:nodetypes="ccccc" />
    <path
       style="fill:none;fill-rule:evenodd;stroke:#000000;stroke-width:1px;stroke-linecap:butt;stroke-linejoin:miter;stroke-opacity:1"
       d="m 441.6892,719.76948 c 10.80381,3.01123 22.53156,5.40649 35.35534,7.07107"
       id="path4269"
       inkscape:connector-curvature="0"
       sodipodi:nodetypes="cc" />
    <path
       style="fill:none;fill-rule:evenodd;stroke:#000000;stroke-width:1px;stroke-linecap:butt;stroke-linejoin:miter;stroke-opacity:1"
       d="m 364.41253,738.96238 c -0.63426,6.06092 -0.91524,12.12183 1.76777,18.18275 3.16224,6.53029 8.87576,11.14712 17.42513,13.63706 2.823,1.42506 6.18541,1.7713 10.35406,0.50507 4.22454,-3.86908 8.08617,-6.83089 14.89975,-17.17259 1.17955,-2.22401 2.40344,-4.15981 2.27285,-14.89975"
       id="path4271"
       inkscape:connector-curvature="0"
       sodipodi:nodetypes="cccccc" />
  </g>
</svg>
