<svg width="613" height="308" viewBox="0 0 613 308" version="1.1" xmlns="http://www.w3.org/2000/svg" xmlns:xlink="http://www.w3.org/1999/xlink" xmlns:figma="http://www.figma.com/figma/ns">
<title>Vector 13</title>
<desc>Created using Figma</desc>
<g id="Canvas" transform="translate(134 -48)" figma:type="canvas">
<g id="Vector 13" style="mix-blend-mode:normal;" figma:type="vector">
<use xlink:href="#path0_stroke" transform="translate(-133.306 49.1366)" style="mix-blend-mode:normal;"/>
</g>
</g>
<defs>
<path id="path0_stroke" d="M 3.30612 266.863L 2.81832 266.973L 3.80059 266.789L 3.30612 266.863ZM 56.3061 172.863L 56.7553 173.083L 56.7861 173.02L 56.7984 172.951L 56.3061 172.863ZM 62.8061 85.3634L 62.3879 85.0893L 62.3353 85.1696L 62.3162 85.2638L 62.8061 85.3634ZM 115.306 23.8634L 115.108 23.4041L 115.034 23.4364L 114.973 23.4907L 115.306 23.8634ZM 198.306 5.36341L 198.802 5.43127L 198.881 4.85357L 198.298 4.86348L 198.306 5.36341ZM 205.806 48.3634L 205.422 48.6835L 206.134 49.5382L 206.301 48.4381L 205.806 48.3634ZM 212.306 5.36341L 212.799 5.27951L 211.812 5.28867L 212.306 5.36341ZM 220.306 52.3634L 219.813 52.4473L 220.806 52.3634L 220.306 52.3634ZM 220.306 5.36341L 220.789 5.23519L 219.806 5.36341L 220.306 5.36341ZM 226.806 29.8634L 226.323 29.9916L 227.292 29.9823L 226.806 29.8634ZM 232.806 5.36341L 232.757 4.86579L 232.405 4.90036L 232.32 5.24447L 232.806 5.36341ZM 283.806 0.363406L 283.788 -0.136277L 283.773 -0.135724L 283.757 -0.134208L 283.806 0.363406ZM 383.806 10.3634L 383.694 10.8507L 383.704 10.8529L 383.713 10.8547L 383.806 10.3634ZM 514.806 93.3634L 514.344 93.5538L 514.372 93.622L 514.418 93.6792L 514.806 93.3634ZM 558.806 184.363L 558.38 184.625L 558.394 184.648L 558.411 184.67L 558.806 184.363ZM 574.306 204.363L 573.911 204.67L 573.972 204.748L 574.058 204.797L 574.306 204.363ZM 590.806 237.863L 590.378 237.606L 589.921 238.363L 590.806 238.363L 590.806 237.863ZM 595.306 237.863L 595.791 237.742L 595.696 237.363L 595.306 237.363L 595.306 237.863ZM 601.306 261.863L 600.821 261.985L 600.916 262.363L 601.306 262.363L 601.306 261.863ZM 610.806 261.863L 611.3 261.941L 611.391 261.363L 610.806 261.363L 610.806 261.863ZM 10.8061 302.363C 11.2337 302.104 11.2337 302.104 11.2336 302.104C 11.2336 302.104 11.2335 302.104 11.2333 302.104C 11.233 302.103 11.2326 302.102 11.232 302.101C 11.2308 302.1 11.2291 302.097 11.2267 302.093C 11.222 302.085 11.2149 302.073 11.2055 302.058C 11.1867 302.026 11.1589 301.98 11.1224 301.919C 11.0492 301.798 10.9421 301.619 10.8053 301.388C 10.5313 300.927 10.1402 300.264 9.66852 299.449C 8.72438 297.818 7.4631 295.591 6.18495 293.191C 4.9064 290.79 3.61831 288.23 2.61629 285.922C 1.60782 283.6 0.920988 281.604 0.804069 280.318L -0.191824 280.409C -0.0587505 281.873 0.691916 284.002 1.69907 286.32C 2.71267 288.654 4.01833 291.25 5.30228 293.661C 6.58664 296.073 7.85661 298.315 8.8031 299.95C 9.27674 300.768 9.67074 301.436 9.94559 301.899C 10.0832 302.131 10.1915 302.312 10.265 302.434C 10.3019 302.496 10.3303 302.543 10.3493 302.574C 10.3589 302.59 10.3662 302.602 10.371 302.61C 10.3735 302.614 10.3753 302.617 10.3766 302.619C 10.3772 302.62 10.3777 302.621 10.378 302.622C 10.3782 302.622 10.3783 302.622 10.3784 302.622C 10.3785 302.622 10.3785 302.623 10.8061 302.363ZM 0.804069 280.318C 0.306087 274.856 0.805864 266.879 0.806122 256.863L -0.193878 256.863C -0.193649 266.848 -0.693813 274.87 -0.191824 280.409L 0.804069 280.318ZM 0.806122 256.863C 0.806124 255.61 0.854258 254.875 0.925323 254.52C 0.941441 254.437 0.949323 254.408 0.962538 254.379C 0.975925 254.348 0.947252 254.443 0.825804 254.51C 0.639512 254.613 0.460362 254.546 0.383369 254.491C 0.331259 254.454 0.322341 254.425 0.346133 254.464C 0.442805 254.626 0.591687 255.06 0.771102 255.757C 0.944669 256.432 1.12921 257.278 1.31584 258.211C 1.68953 260.08 2.063 262.259 2.34394 263.975C 2.48434 264.833 2.60122 265.574 2.68316 266.1C 2.7241 266.364 2.75621 266.573 2.77815 266.717C 2.7891 266.788 2.79748 266.844 2.80314 266.881C 2.80596 266.9 2.80809 266.914 2.80952 266.923C 2.81024 266.928 2.81077 266.932 2.81113 266.934C 2.81131 266.935 2.81144 266.936 2.81153 266.937C 2.81157 266.937 2.8116 266.937 2.81163 266.937C 2.81165 266.938 2.81166 266.938 3.30612 266.863C 3.80059 266.789 3.80058 266.789 3.80055 266.789C 3.80053 266.789 3.80049 266.789 3.80044 266.788C 3.80035 266.788 3.80021 266.787 3.80002 266.785C 3.79966 266.783 3.7991 266.779 3.79837 266.775C 3.79692 266.765 3.79475 266.75 3.7919 266.732C 3.78621 266.694 3.77773 266.638 3.76671 266.566C 3.74471 266.422 3.71237 266.211 3.67128 265.947C 3.58916 265.419 3.47166 264.675 3.33081 263.814C 3.04925 262.093 2.67273 259.897 2.29642 258.015C 2.10805 257.074 1.91759 256.201 1.73959 255.508C 1.56745 254.839 1.3882 254.258 1.20363 253.95C 1.1571 253.872 1.0808 253.76 0.964606 253.677C 0.823526 253.577 0.583585 253.501 0.340163 253.636C 0.161586 253.735 0.0794458 253.901 0.0433941 253.986C 0.00717038 254.073 -0.0303583 254.202 -0.055257 254.324C -0.148257 254.789 -0.193876 255.617 -0.193878 256.863L 0.806122 256.863ZM 3.30612 266.863C 3.79393 266.754 3.79392 266.754 3.79389 266.754C 3.79386 266.753 3.79382 266.753 3.79376 266.753C 3.79363 266.752 3.79344 266.752 3.79318 266.75C 3.79265 266.748 3.79187 266.745 3.79082 266.74C 3.78869 266.73 3.78554 266.716 3.78136 266.697C 3.77294 266.659 3.76055 266.603 3.74436 266.53C 3.71187 266.381 3.66458 266.164 3.60474 265.882C 3.48486 265.319 3.31567 264.506 3.11694 263.501C 2.71907 261.488 2.20537 258.718 1.73787 255.663C 0.799122 249.53 0.0643118 242.356 0.799319 237.946L -0.187075 237.781C -0.952067 242.371 -0.186877 249.697 0.749379 255.814C 1.21938 258.884 1.73692 261.676 2.13593 263.695C 2.33564 264.705 2.5063 265.525 2.62664 266.091C 2.68692 266.374 2.73485 266.595 2.76755 266.744C 2.78395 266.818 2.79664 266.876 2.80516 266.914C 2.80945 266.934 2.81274 266.948 2.81492 266.958C 2.81602 266.963 2.81687 266.967 2.81743 266.969C 2.81771 266.97 2.81793 266.971 2.81808 266.972C 2.81815 266.972 2.81821 266.973 2.81825 266.973C 2.81829 266.973 2.81832 266.973 3.30612 266.863ZM 0.799319 237.946C 0.88977 237.401 0.984522 237.008 1.09181 236.708C 1.1979 236.41 1.28816 236.293 1.32627 236.259C 1.34354 236.239 1.29563 236.273 1.29418 236.268C 1.29918 236.273 1.22413 236.258 1.23836 236.267C 1.25927 236.275 1.34441 236.326 1.48488 236.503C 1.7569 236.845 2.06927 237.444 2.40479 238.22C 2.73696 238.988 3.07134 239.88 3.39849 240.784C 4.04023 242.556 4.6715 244.435 5.14309 245.279C 5.25222 245.475 5.4056 245.717 5.6133 245.849C 5.73701 245.927 5.94045 246.003 6.1712 245.921C 6.37998 245.848 6.49349 245.685 6.55106 245.577C 6.66408 245.365 6.71895 245.065 6.7526 244.737C 6.78727 244.397 6.80602 243.936 6.80612 243.363L 5.80612 243.363C 5.80622 243.916 5.78982 244.326 5.75784 244.635C 5.74259 244.785 5.72658 244.89 5.70571 244.982C 5.68786 245.065 5.65487 245.129 5.66861 245.107C 5.66861 245.107 5.67814 245.088 5.70219 245.064C 5.72743 245.038 5.77223 245.002 5.83908 244.978C 5.99338 244.924 6.11389 244.982 6.1486 245.004C 6.17832 245.023 6.12956 244.995 6.01603 244.791C 5.59699 244.042 5.00952 242.296 4.33876 240.443C 4.00965 239.534 3.66435 238.614 3.32269 237.823C 2.98438 237.041 2.62878 236.335 2.26799 235.881C 2.09205 235.659 1.86957 235.438 1.59532 235.333C 1.26743 235.208 0.930615 235.273 0.66293 235.511C 0.434433 235.713 0.274208 236.023 0.149587 236.373C 0.0261602 236.723 -0.0900249 237.201 -0.187075 237.781L 0.799319 237.946ZM 6.80612 243.363C 6.80612 238.92 8.41958 228.971 10.2351 219.268C 12.0464 209.587 14.0442 200.222 14.7933 196.976L 13.8189 196.751C 13.068 200.005 11.0659 209.39 9.25215 219.084C 7.44266 228.755 5.80612 238.807 5.80612 243.363L 6.80612 243.363ZM 14.7933 196.976C 14.9694 196.213 15.2218 195.807 15.4649 195.61C 15.6836 195.433 15.9585 195.373 16.3447 195.467C 17.1849 195.67 18.3142 196.547 19.565 197.891C 22.0355 200.544 24.621 204.61 25.8589 207.087L 26.7533 206.64C 25.4912 204.117 22.8267 199.933 20.2972 197.21C 19.0481 195.868 17.7398 194.776 16.5801 194.495C 15.9663 194.346 15.3505 194.415 14.8349 194.834C 14.3436 195.232 14.0178 195.889 13.8189 196.751L 14.7933 196.976ZM 25.8589 207.087C 26.0681 207.505 26.3913 207.804 26.8183 207.944C 27.2286 208.08 27.6824 208.053 28.1393 207.934C 29.0444 207.699 30.1319 207.06 31.3244 206.157C 33.7114 204.348 36.737 201.304 39.8865 197.661C 46.1778 190.382 53.0892 180.579 56.7553 173.083L 55.8569 172.644C 52.2286 180.069 45.39 189.766 39.1299 197.007C 36.0036 200.624 33.0532 203.595 30.7206 205.36C 29.5533 206.244 28.5952 206.783 27.8882 206.966C 27.5391 207.057 27.2954 207.049 27.1314 206.995C 26.9843 206.946 26.8567 206.847 26.7533 206.64L 25.8589 207.087ZM 56.7984 172.951C 58.0604 165.858 59.6811 160.874 60.9934 155.576C 62.3048 150.279 63.3042 144.657 63.3061 136.363L 62.3061 136.363C 62.3081 144.569 61.3267 150.071 60.0227 155.335C 58.7196 160.599 57.0903 165.615 55.8139 172.776L 56.7984 172.951ZM 63.3061 136.363C 63.3016 119.796 59.256 105.263 63.2961 85.463L 62.3162 85.2638C 58.2566 105.298 62.3107 119.931 62.3061 136.363L 63.3061 136.363ZM 63.2243 85.6375C 80.658 59.0371 91.9148 45.454 115.639 24.2361L 114.973 23.4907C 91.1945 44.7603 79.8536 58.4431 62.3879 85.0893L 63.2243 85.6375ZM 115.504 24.3227C 147.159 10.7 165.209 6.42316 198.315 5.86333L 198.298 4.86348C 165.085 5.43094 146.845 9.75055 115.108 23.4041L 115.504 24.3227ZM 197.811 5.29555C 195.806 19.9725 197.696 30.836 200.082 37.972C 201.282 41.5546 202.616 44.2379 203.639 46.0019C 204.155 46.8898 204.601 47.5615 204.911 48.0018C 205.069 48.2246 205.196 48.3953 205.282 48.5062C 205.325 48.5629 205.36 48.6073 205.383 48.6356C 205.395 48.6503 205.405 48.6623 205.411 48.6697C 205.414 48.6737 205.417 48.6772 205.418 48.6791C 205.419 48.6803 205.42 48.6814 205.421 48.682C 205.421 48.6823 205.421 48.6827 205.422 48.6829C 205.422 48.6832 205.422 48.6835 205.806 48.3634C 206.19 48.0433 206.19 48.0435 206.19 48.0436C 206.19 48.0436 206.191 48.0437 206.19 48.0436C 206.19 48.0433 206.19 48.0432 206.19 48.0426C 206.189 48.0412 206.187 48.0396 206.185 48.0369C 206.18 48.0308 206.173 48.0225 206.163 48.0103C 206.143 47.9845 206.114 47.9479 206.074 47.8964C 205.993 47.7909 205.878 47.6366 205.728 47.4251C 205.426 46.9966 205.004 46.362 204.504 45.4999C 203.496 43.7639 202.206 41.1723 201.03 37.6548C 198.666 30.5908 196.806 19.9543 198.802 5.43127L 197.811 5.29555ZM 206.301 48.4381L 212.801 5.43814L 211.812 5.28867L 205.312 48.2887L 206.301 48.4381ZM 211.813 5.44731L 219.813 52.4473L 220.799 52.2795L 212.799 5.27951L 211.813 5.44731ZM 220.806 52.3634L 220.806 5.36341L 219.806 5.36341L 219.806 52.3634L 220.806 52.3634ZM 219.823 5.49162L 226.323 29.9916L 227.289 29.7352L 220.789 5.23519L 219.823 5.49162ZM 227.292 29.9823L 233.292 5.48234L 232.32 5.24447L 226.32 29.7445L 227.292 29.9823ZM 232.855 5.86102L 283.855 0.861021L 283.757 -0.134208L 232.757 4.86579L 232.855 5.86102ZM 283.824 0.86309C 323.846 -0.563603 345.587 2.08908 383.694 10.8507L 383.918 9.87612C 345.76 1.10413 323.889 -1.56268 283.788 -0.136277L 283.824 0.86309ZM 383.713 10.8547C 404.037 14.6875 427.99 21.6639 447.326 27.9446C 456.992 31.0845 465.494 34.0475 471.807 36.3556C 474.962 37.5093 477.565 38.4974 479.492 39.2624C 481.436 40.0335 482.649 40.5612 483.056 40.7963L 483.556 39.9305C 483.072 39.6505 481.78 39.0943 479.861 38.3329C 477.926 37.5652 475.311 36.5722 472.15 35.4165C 465.831 33.1057 457.311 30.1367 447.635 26.9936C 428.285 20.7082 404.27 13.7149 383.899 9.87207L 383.713 10.8547ZM 483.056 40.7963C 483.177 40.8663 483.35 41.0354 483.562 41.3624C 483.775 41.691 483.984 42.1081 484.208 42.6394C 484.66 43.7117 485.115 45.1352 485.575 46.8303C 486.497 50.2271 487.411 54.6216 488.27 59.1404C 489.129 63.6594 489.929 68.2896 490.621 72.1414C 491.312 75.9939 491.9 79.0898 492.327 80.508L 493.285 80.2188C 492.871 78.8517 492.296 75.8125 491.605 71.9647C 490.914 68.1161 490.113 63.4809 489.253 58.9537C 488.392 54.4264 487.47 49.9942 486.54 46.5683C 486.074 44.8519 485.598 43.365 485.129 42.2511C 484.892 41.6892 484.643 41.1942 484.401 40.8195C 484.158 40.4433 483.881 40.118 483.556 39.9305L 483.056 40.7963ZM 492.327 80.508C 492.564 81.2918 492.964 81.8596 493.53 82.2049C 494.086 82.5451 494.738 82.6291 495.405 82.5793C 496.712 82.4818 498.287 81.8474 499.813 81.2282C 501.365 80.5983 502.918 79.9541 504.299 79.7424C 505.651 79.5318 506.695 79.7497 507.411 80.6704L 508.201 80.0564C 507.167 78.7271 505.672 78.5164 504.145 78.7543C 502.649 78.9911 500.986 79.6727 499.437 80.3016C 497.86 80.9412 496.447 81.4988 495.33 81.5821C 494.785 81.6228 494.367 81.5445 494.051 81.3515C 493.743 81.1637 493.469 80.8277 493.285 80.2188L 492.327 80.508ZM 507.411 80.6704C 509.137 82.8864 510.861 86.0917 512.169 88.7703C 512.823 90.1078 513.365 91.3022 513.747 92.1669C 513.938 92.5983 514.087 92.9448 514.189 93.185C 514.24 93.3047 514.278 93.3968 514.305 93.4597C 514.318 93.491 514.327 93.5145 514.334 93.5305C 514.337 93.5384 514.34 93.5442 514.341 93.5482C 514.342 93.5502 514.343 93.5515 514.343 93.5525C 514.343 93.553 514.343 93.5533 514.344 93.5535C 514.344 93.5536 514.344 93.5537 514.344 93.5538C 514.344 93.5538 514.344 93.5538 514.806 93.3634C 515.268 93.173 515.268 93.173 515.268 93.1729C 515.268 93.1728 515.268 93.1726 515.268 93.1725C 515.268 93.1722 515.268 93.1717 515.268 93.1712C 515.267 93.1701 515.266 93.1684 515.266 93.1662C 515.264 93.162 515.261 93.1556 515.258 93.1473C 515.251 93.1309 515.241 93.1061 515.227 93.074C 515.2 93.0102 515.161 92.9153 515.109 92.7938C 515.006 92.5516 514.854 92.1988 514.662 91.763C 514.278 90.8934 513.727 89.6815 513.068 88.3315C 511.751 85.6351 509.975 82.3404 508.201 80.0564L 507.411 80.6704ZM 514.418 93.6792C 518.988 99.2885 525.331 99.8764 530.293 100.733C 532.813 101.167 534.926 101.66 536.42 102.799C 537.868 103.902 538.806 105.673 538.806 108.863L 539.806 108.863C 539.806 105.454 538.788 103.346 537.026 102.003C 535.311 100.697 532.96 100.178 530.463 99.7472C 525.389 98.8717 519.481 98.3102 515.194 93.0476L 514.418 93.6792ZM 538.806 108.863C 538.807 115.434 537.683 124.667 537.12 133.156C 536.838 137.401 536.697 141.477 536.909 144.923C 537.12 148.355 537.686 151.268 538.885 153.134L 539.727 152.593C 538.676 150.959 538.117 148.272 537.907 144.861C 537.697 141.463 537.837 137.452 538.117 133.222C 538.679 124.761 539.805 115.494 539.806 108.863L 538.806 108.863ZM 538.885 153.134C 541.133 156.63 546.006 164.501 550.318 171.501C 552.474 175 554.489 178.281 555.966 180.687C 556.704 181.89 557.307 182.875 557.726 183.558C 557.936 183.9 558.099 184.167 558.21 184.348C 558.266 184.438 558.308 184.507 558.336 184.554C 558.351 184.577 558.362 184.595 558.369 184.607C 558.372 184.613 558.375 184.617 558.377 184.62C 558.378 184.622 558.378 184.623 558.379 184.623C 558.379 184.624 558.379 184.624 558.379 184.624C 558.38 184.624 558.38 184.625 558.806 184.363C 559.232 184.102 559.232 184.102 559.232 184.102C 559.232 184.102 559.232 184.102 559.232 184.101C 559.231 184.1 559.231 184.099 559.23 184.098C 559.228 184.095 559.225 184.09 559.222 184.085C 559.214 184.073 559.204 184.055 559.189 184.032C 559.161 183.985 559.118 183.916 559.063 183.825C 558.952 183.644 558.789 183.378 558.579 183.036C 558.16 182.352 557.556 181.368 556.818 180.164C 555.342 177.758 553.326 174.476 551.169 170.976C 546.856 163.976 541.979 156.097 539.727 152.593L 538.885 153.134ZM 558.411 184.67L 573.911 204.67L 574.701 204.057L 559.201 184.057L 558.411 184.67ZM 574.306 204.363C 574.058 204.797 574.058 204.797 574.058 204.797C 574.058 204.797 574.058 204.798 574.058 204.798C 574.059 204.798 574.059 204.798 574.06 204.799C 574.062 204.8 574.065 204.802 574.069 204.804C 574.077 204.809 574.089 204.815 574.104 204.824C 574.136 204.842 574.182 204.869 574.243 204.904C 574.364 204.974 574.543 205.077 574.773 205.211C 575.232 205.478 575.892 205.863 576.7 206.341C 578.316 207.297 580.513 208.617 582.853 210.081C 587.555 213.02 592.75 216.489 594.95 218.715L 595.662 218.012C 593.362 215.687 588.057 212.155 583.384 209.233C 581.036 207.765 578.828 206.438 577.209 205.481C 576.399 205.001 575.735 204.614 575.275 204.346C 575.045 204.212 574.864 204.108 574.742 204.037C 574.681 204.002 574.634 203.975 574.603 203.957C 574.587 203.948 574.575 203.941 574.567 203.937C 574.563 203.934 574.56 203.932 574.558 203.931C 574.557 203.931 574.556 203.93 574.555 203.93C 574.555 203.93 574.555 203.93 574.555 203.93C 574.555 203.93 574.555 203.93 574.306 204.363ZM 594.95 218.715C 595.915 219.69 596.21 221.284 596.004 223.279C 595.8 225.272 595.115 227.503 594.278 229.638C 593.442 231.772 592.469 233.758 591.699 235.224C 591.315 235.955 590.985 236.55 590.749 236.965C 590.632 237.172 590.539 237.332 590.475 237.442C 590.443 237.496 590.419 237.537 590.402 237.565C 590.394 237.579 590.388 237.589 590.383 237.596C 590.381 237.599 590.38 237.602 590.379 237.603C 590.378 237.604 590.378 237.605 590.378 237.605C 590.378 237.605 590.378 237.605 590.378 237.606C 590.378 237.606 590.378 237.606 590.806 237.863C 591.234 238.121 591.234 238.121 591.235 238.121C 591.235 238.121 591.235 238.121 591.235 238.12C 591.235 238.12 591.236 238.119 591.236 238.118C 591.238 238.116 591.239 238.113 591.242 238.109C 591.246 238.102 591.253 238.09 591.262 238.076C 591.279 238.047 591.304 238.003 591.337 237.947C 591.403 237.836 591.499 237.67 591.619 237.459C 591.857 237.039 592.195 236.43 592.585 235.689C 593.361 234.21 594.357 232.174 595.209 230.003C 596.059 227.832 596.78 225.471 596.999 223.382C 597.214 221.293 596.947 219.312 595.662 218.012L 594.95 218.715ZM 590.806 238.363L 595.306 238.363L 595.306 237.363L 590.806 237.363L 590.806 238.363ZM 594.821 237.985L 600.821 261.985L 601.791 261.742L 595.791 237.742L 594.821 237.985ZM 601.306 262.363L 610.806 262.363L 610.806 261.363L 601.306 261.363L 601.306 262.363ZM 610.312 261.786L 603.312 306.286L 604.3 306.441L 611.3 261.941L 610.312 261.786Z"/>
</defs>
</svg>
