<svg width="29" height="95" viewBox="0 0 29 95" version="1.1" xmlns="http://www.w3.org/2000/svg" xmlns:xlink="http://www.w3.org/1999/xlink" xmlns:figma="http://www.figma.com/figma/ns">
<title>Vector 9</title>
<desc>Created using Figma</desc>
<g id="Canvas" transform="translate(172 -352)" figma:type="canvas">
<g id="Vector 9" style="mix-blend-mode:normal;" figma:type="vector">
<use xlink:href="#path0_stroke" transform="translate(-171 353)" style="mix-blend-mode:normal;"/>
</g>
</g>
<defs>
<path id="path0_stroke" d="M 2.56518 7.15679L 2.07722 7.0477L 2.07262 7.06827L 2.06977 7.08915L 2.56518 7.15679ZM 27.494 24.8997C 23.584 18.3778 20.2783 13.1333 17.4779 9.15644C 14.6815 5.18557 12.3548 2.42812 10.3944 0.912709C 9.41308 0.154135 8.48422 -0.324618 7.60131 -0.460313C 6.69387 -0.599778 5.87284 -0.370282 5.15728 0.207494C 3.78962 1.31181 2.83156 3.67349 2.07722 7.0477L 3.05313 7.26588C 3.81089 3.87637 4.71783 1.84762 5.7855 0.985528C 6.28761 0.580101 6.82684 0.4324 7.4494 0.528082C 8.09651 0.627536 8.86742 0.996278 9.78282 1.70389C 11.6158 3.12083 13.8703 5.7705 16.6603 9.73222C 19.4463 13.688 22.7321 18.9015 26.6363 25.4139L 27.494 24.8997ZM 2.06977 7.08915C -3.00698 44.294 -1.21973 63.6434 13.6164 93.8772L 14.514 93.4364C -0.257076 63.3727 -2.00722 44.3159 3.06058 7.22443L 2.06977 7.08915Z"/>
</defs>
</svg>
