<svg width="604" height="155" viewBox="0 0 604 155" version="1.1" xmlns="http://www.w3.org/2000/svg" xmlns:xlink="http://www.w3.org/1999/xlink" xmlns:figma="http://www.figma.com/figma/ns">
<title>Vector</title>
<desc>Created using Figma</desc>
<g id="Canvas" transform="translate(127 -337)" figma:type="canvas">
<g id="Vector" style="mix-blend-mode:normal;isolation:isolate;" figma:type="vector">
<use xlink:href="#path0_stroke" transform="translate(-126.5 338.33)" fill="#060606" style="mix-blend-mode:normal;"/>
</g>
</g>
<defs>
<path id="path0_stroke" d="M 252.5 23.035L 252.616 22.5486L 252.615 22.5483L 252.5 23.035ZM 27.5 60.035L 27 60.035L 27 60.0934L 27.0135 60.1502L 27.5 60.035ZM 334.675 23.035L 334.569 22.5462L 334.551 22.5502L 334.533 22.5555L 334.675 23.035ZM 550.707 132.535L 550.894 132.999L 551.119 132.908L 551.187 132.676L 550.707 132.535ZM 0 12.035L -0.0156174 11.5352L -0.5 11.5503L -0.5 12.035L 0 12.035ZM 27.6112 52.1557L 28.111 52.1695L 27.6112 52.1557ZM 0 31.3791L -0.5 31.3791L -0.5 31.904L 0.0242961 31.8785L 0 31.3791ZM 603 16.1294L 603.5 16.1294L 603.5 15.5441L 602.922 15.6355L 603 16.1294ZM 603 37.0349L 602.681 37.42L 603.5 38.0984L 603.5 37.0349L 603 37.0349ZM 224.865 132.876C 235.699 121.287 244.42 101.613 249.588 80.9747C 254.758 60.3325 256.399 38.6235 252.989 22.9288L 252.011 23.1411C 255.376 38.6285 253.768 60.1694 248.618 80.7318C 243.468 101.298 234.801 120.783 224.135 132.194L 224.865 132.876ZM 252.5 23.035C 252.615 22.5483 252.615 22.5483 252.614 22.5482C 252.614 22.5481 252.613 22.548 252.613 22.5478C 252.611 22.5475 252.609 22.547 252.606 22.5463C 252.601 22.545 252.592 22.543 252.581 22.5403C 252.558 22.535 252.525 22.5271 252.48 22.5167C 252.391 22.4958 252.257 22.4646 252.08 22.4236C 251.727 22.3417 251.199 22.2203 250.504 22.0626C 249.116 21.7475 247.057 21.2868 244.379 20.7058C 239.026 19.544 231.193 17.8992 221.283 15.9693C 201.467 12.1103 173.328 7.10794 140.068 2.53961L 139.932 3.53031C 173.172 8.09576 201.283 13.0934 221.092 16.9509C 230.995 18.8793 238.817 20.522 244.167 21.683C 246.842 22.2634 248.896 22.723 250.283 23.0378C 250.976 23.1951 251.502 23.3161 251.854 23.3978C 252.031 23.4386 252.163 23.4696 252.252 23.4904C 252.296 23.5007 252.33 23.5085 252.352 23.5138C 252.363 23.5164 252.371 23.5183 252.377 23.5196C 252.38 23.5203 252.382 23.5208 252.383 23.5211C 252.384 23.5213 252.384 23.5214 252.385 23.5215C 252.385 23.5215 252.385 23.5216 252.5 23.035ZM 140.068 2.53961C 106.766 -2.03169 79.69 -0.0283263 60.9796 3.11671C 51.6153 4.69146 44.3201 6.55497 39.3811 8.0212C 36.9076 8.75565 35.014 9.39349 33.7452 9.84559C 33.1089 10.0724 32.6248 10.2541 32.3027 10.3781C 32.1407 10.4405 32.0173 10.4892 31.9358 10.5217C 31.8946 10.5381 31.8629 10.5509 31.8423 10.5593C 31.8317 10.5636 31.8234 10.567 31.8181 10.5691C 31.8154 10.5702 31.8131 10.5712 31.8118 10.5717C 31.811 10.572 31.8104 10.5723 31.81 10.5725C 31.8095 10.5727 31.8092 10.5728 32 11.035C 32.1908 11.4971 32.1908 11.4971 32.1909 11.4971C 32.1912 11.497 32.1915 11.4968 32.192 11.4966C 32.1932 11.4961 32.1947 11.4955 32.197 11.4946C 32.2019 11.4926 32.2088 11.4898 32.2184 11.4859C 32.2381 11.4778 32.267 11.4662 32.3064 11.4505C 32.386 11.4187 32.5037 11.3723 32.6619 11.3114C 32.9802 11.1889 33.4526 11.0115 34.0809 10.7876C 35.3415 10.3383 37.2096 9.70896 39.6657 8.97984C 44.5862 7.51891 51.8222 5.66983 61.1454 4.10287C 79.81 0.964452 106.734 -1.03218 139.932 3.53031L 140.068 2.53961ZM 27.0135 60.1502C 28.1302 64.857 28.4383 70.3063 28.7821 76.2272C 29.1259 82.148 29.5039 88.5295 30.7591 95.0235C 33.279 108.049 39.3382 121.549 55.7144 132.945L 56.2856 132.125C 40.1619 120.904 34.2211 107.654 31.7409 94.8336C 30.4961 88.4048 30.1242 82.0895 29.7804 76.1692C 29.4367 70.2489 29.1198 64.7129 27.9866 59.9197L 27.0135 60.1502ZM 55.7144 132.945C 63.93 138.663 77.2671 142.942 92.9258 145.803C 108.591 148.664 126.667 150.117 144.374 150.141C 162.082 150.165 179.475 148.759 193.77 145.909C 208.04 143.063 219.372 138.753 224.865 132.876L 224.135 132.194C 218.878 137.817 207.835 142.084 193.574 144.928C 179.337 147.768 162.043 149.166 144.376 149.141C 126.708 149.118 108.721 147.672 93.1055 144.819C 77.4829 141.965 64.32 137.716 56.2856 132.125L 55.7144 132.945ZM 569.637 11.5542C 491.875 -10.6441 435.894 0.676983 334.569 22.5462L 334.78 23.5237C 436.099 1.6558 491.836 -9.64486 569.363 12.5157L 569.637 11.5542ZM 334.191 23.1618C 335.771 29.1781 336.548 38.0389 337.408 48.3611C 338.267 58.6835 339.205 70.4454 341.101 82.2009C 344.891 105.686 352.533 129.328 371.228 141.454L 371.772 140.615C 353.467 128.742 345.874 105.499 342.089 82.0416C 340.198 70.3259 339.264 58.6023 338.404 48.2781C 337.545 37.9536 336.756 29.0069 335.158 22.9081L 334.191 23.1618ZM 371.228 141.454C 380.581 147.521 394.335 150.874 410.185 152.299C 426.038 153.722 444.075 153.222 462.01 151.533C 497.877 148.155 533.48 140.023 550.894 132.999L 550.52 132.071C 533.227 139.047 497.727 147.165 461.917 150.537C 444.014 152.223 426.069 152.723 410.275 151.303C 394.478 149.883 380.919 146.549 371.772 140.615L 371.228 141.454ZM 252.384 23.5213C 286.219 31.5791 304.531 32.4773 334.817 23.5144L 334.533 22.5555C 304.412 31.4844 286.361 30.5891 252.616 22.5486L 252.384 23.5213ZM 31.9844 10.5352L -0.0156174 11.5352L 0.0156174 12.5347L 32.0156 11.5347L 31.9844 10.5352ZM 31.5125 10.9239C 28.9454 22.1952 27.5044 37.912 27.1114 52.142L 28.111 52.1695C 28.5026 37.9714 29.933 22.3522 32.4875 11.146L 31.5125 10.9239ZM 27.1114 52.142C 27.037 54.8372 27 57.4838 27 60.035L 28 60.035C 28 57.4908 28.0368 54.858 28.111 52.1695L 27.1114 52.142ZM 28.0637 51.943C 24.2285 43.7882 20.819 38.3258 16.5407 35.0041C 12.2342 31.6606 7.11174 30.5326 -0.0242961 30.8797L 0.0242961 31.8785C 7.02741 31.5378 11.8789 32.6508 15.9274 35.794C 20.004 38.959 23.3306 44.2288 27.1587 52.3685L 28.0637 51.943ZM -0.5 12.035L -0.5 31.3791L 0.5 31.3791L 0.5 12.035L -0.5 12.035ZM 569.389 12.5226C 580.629 15.0711 587.37 19.108 603.078 16.6232L 602.922 15.6355C 587.465 18.0805 581.04 14.1388 569.611 11.5473L 569.389 12.5226ZM 602.5 16.1294L 602.5 37.0349L 603.5 37.0349L 603.5 16.1294L 602.5 16.1294ZM 551.187 132.676C 560.405 101.307 564.957 84.6945 566.5 49.0565L 565.5 49.0134C 563.969 84.5397 559.443 101.033 550.228 132.394L 551.187 132.676ZM 566.5 49.0565C 566.67 45.1066 567.634 38.0654 568.512 30.8998C 569.39 23.7343 570.182 16.4301 570 12.0141L 569 12.0558C 569.183 16.3968 568.397 23.6195 567.519 30.7782C 566.642 37.9368 565.674 45.0171 565.5 49.0134L 566.5 49.0565ZM 603.319 36.6499C 601.886 35.4627 599.219 34.9812 596.065 35.0208C 592.888 35.0619 589.039 35.6406 585.159 36.7045C 577.42 38.828 569.302 42.9348 565.579 48.7659L 566.421 49.3041C 569.941 43.7922 577.756 39.7727 585.423 37.6688C 589.246 36.619 592.969 36.0587 596.078 36.0208C 599.211 35.9814 601.547 36.4809 602.681 37.42L 603.319 36.6499Z"/>
</defs>
</svg>
