<svg width="70" height="163" viewBox="0 0 70 163" version="1.1" xmlns="http://www.w3.org/2000/svg" xmlns:xlink="http://www.w3.org/1999/xlink" xmlns:figma="http://www.figma.com/figma/ns">
<title>Vector 11</title>
<desc>Created using Figma</desc>
<g id="Canvas" transform="translate(-476 -355)" figma:type="canvas">
<g id="Vector 11" style="mix-blend-mode:normal;" figma:type="vector">
<use xlink:href="#path0_stroke" transform="translate(476.5 356.398)" style="mix-blend-mode:normal;"/>
</g>
</g>
<defs>
<path id="path0_stroke" d="M 68.5 44.1025L 68.9977 44.1504L 69.0061 44.0633L 68.9844 43.9785L 68.5 44.1025ZM 47.5 121.602L 47.9575 121.804L 48.0055 121.695L 47.9993 121.577L 47.5 121.602ZM 30.4672 22.2806C 33.2029 15.109 36.0055 9.26651 38.9224 5.41594C 41.8412 1.55881 44.7088 -0.0880726 47.5769 0.689195C 50.5284 1.48909 53.7569 4.8984 57.2136 11.9666C 60.66 19.0114 64.2491 29.5058 68.0156 44.2264L 68.9844 43.9785C 65.2074 29.2198 61.584 18.6291 58.1119 11.5272C 54.6502 4.4487 51.2543 0.64975 47.8384 -0.275987C 44.3391 -1.22435 41.0964 0.885784 38.125 4.81251C 35.1517 8.7458 32.2842 14.714 29.5328 21.9242L 30.4672 22.2806ZM 68.0023 44.0546C 66.4078 60.6153 65.0336 73.8184 62.9349 84.5193C 60.8403 95.2088 58.049 103.332 53.5879 109.819L 54.4121 110.386C 58.9421 103.782 61.806 95.4683 63.9163 84.7117C 66.0225 73.9666 67.4028 60.715 68.9977 44.1504L 68.0023 44.0546ZM 6.95613 76.1005C 20.6721 77.3087 30.1535 79.6578 36.4728 86.1417C 42.7949 92.6283 46.0542 103.36 47.0007 121.628L 47.9993 121.577C 47.0507 103.268 43.7821 92.2085 37.189 85.4437C 30.5931 78.6761 20.7721 76.3136 7.04387 75.1043L 6.95613 76.1005ZM 47.0425 121.401C 40.4539 136.349 34.5429 145.729 27.3762 151.521C 20.2292 157.298 11.7739 159.552 -0.0233402 160.103L 0.0233402 161.102C 11.9251 160.546 20.6243 158.264 28.0048 152.299C 35.3655 146.35 41.355 136.784 47.9575 121.804L 47.0425 121.401Z"/>
</defs>
</svg>
