<svg width="241" height="112" viewBox="0 0 241 112" version="1.1" xmlns="http://www.w3.org/2000/svg" xmlns:xlink="http://www.w3.org/1999/xlink" xmlns:figma="http://www.figma.com/figma/ns">
<title>Vector 5</title>
<desc>Created using Figma</desc>
<g id="Canvas" transform="translate(-57 -625)" figma:type="canvas">
<g id="Vector 5" style="mix-blend-mode:normal;" figma:type="vector">
<use xlink:href="#path0_stroke" transform="translate(58 625.613)" style="mix-blend-mode:normal;"/>
</g>
</g>
<defs>
<path id="path0_stroke" d="M 0 50.3869L -0.412256 50.104L -0.624087 50.4127L -0.387553 50.7029L 0 50.3869ZM 46.5 9.38694L 46.3851 8.90031L 46.3189 8.91595L 46.2592 8.94876L 46.5 9.38694ZM 102.5 3.38694L 102.489 3.88681L 102.535 3.88784L 102.58 3.88045L 102.5 3.38694ZM 172.5 3.38694L 172.417 3.88009L 172.423 3.88101L 172.5 3.38694ZM 222 24.3869L 222.377 24.0584L 222.343 24.02L 222.303 23.9891L 222 24.3869ZM 239 43.8869L 239.4 44.1869L 239.643 43.8633L 239.377 43.5584L 239 43.8869ZM 218 71.8869L 218.192 72.3487L 218.318 72.2963L 218.4 72.1869L 218 71.8869ZM 165 101.387L 165.163 101.86L 165.228 101.837L 165.284 101.798L 165 101.387ZM 95 106.887L 95.1061 106.398L 95.074 106.391L 95.0412 106.389L 95 106.887ZM 46.5 87.8869L 46.791 87.4804L 46.7413 87.4448L 46.6845 87.4222L 46.5 87.8869ZM 0.412256 50.6699C 13.3315 31.8392 23.1491 22.7879 46.7408 9.82511L 46.2592 8.94876C 22.5651 21.9762 12.5756 31.1845 -0.412256 50.104L 0.412256 50.6699ZM 46.6149 9.87356C 67.8942 4.85036 80.0587 3.38303 102.489 3.88681L 102.511 2.88706C 80.0099 2.38422 67.7192 3.86579 46.3851 8.90031L 46.6149 9.87356ZM 102.58 3.88045C 129.879 -0.562117 145.124 -0.698675 172.417 3.88005L 172.583 2.89382C 145.203 -1.69559 129.794 -1.5585 102.42 2.89342L 102.58 3.88045ZM 172.423 3.88101C 191.482 6.84165 202.179 9.92684 221.697 24.7848L 222.303 23.9891C 202.63 9.01294 191.768 5.87422 172.577 2.89286L 172.423 3.88101ZM 221.623 24.7155L 238.623 44.2155L 239.377 43.5584L 222.377 24.0584L 221.623 24.7155ZM 238.6 43.5869L 217.6 71.5869L 218.4 72.1869L 239.4 44.1869L 238.6 43.5869ZM 217.808 71.4251C 197.756 79.7471 186.109 86.2163 164.716 100.975L 165.284 101.798C 186.636 87.0659 198.191 80.6475 218.192 72.3487L 217.808 71.4251ZM 164.837 100.914C 138.517 110.01 123.031 112.473 95.1061 106.398L 94.8939 107.376C 123.003 113.473 138.759 110.98 165.163 101.86L 164.837 100.914ZM 95.0412 106.389C 75.3187 104.764 65.1705 100.64 46.791 87.4804L 46.209 88.2935C 64.688 101.516 75.0867 105.737 94.9588 107.385L 95.0412 106.389ZM 46.6845 87.4222C 26.0153 79.2291 16.4618 69.7915 0.387553 50.071L -0.387553 50.7029C 15.722 70.4644 25.4688 80.0665 46.3155 88.3517L 46.6845 87.4222ZM -0.0263371 50.8862C 95.6784 55.934 147.949 54.1889 239.053 44.3841L 238.947 43.3898C 147.878 53.1914 95.6881 54.934 0.0263371 49.8876L -0.0263371 50.8862Z"/>
</defs>
</svg>
