<svg width="103" height="35" viewBox="0 0 103 35" version="1.1" xmlns="http://www.w3.org/2000/svg" xmlns:xlink="http://www.w3.org/1999/xlink" xmlns:figma="http://www.figma.com/figma/ns">
<title>Vector 4</title>
<desc>Created using Figma</desc>
<g id="Canvas" transform="translate(-258 -381)" figma:type="canvas">
<g id="Vector 4" style="mix-blend-mode:normal;" figma:type="vector">
<use xlink:href="#path0_stroke" transform="translate(259.5 382.025)" style="mix-blend-mode:normal;"/>
</g>
</g>
<defs>
<path id="path0_stroke" d="M 0 27.9753L -0.325683 27.596L -1.15881 28.3112L -0.0723647 28.4701L 0 27.9753ZM 100.5 20.4753L 100.737 20.9156L 101.469 20.5214L 100.778 20.0595L 100.5 20.4753ZM 24.5 9.55647L 24.2395 9.1297L 24.5 9.55647ZM 63 32.0846L 63.0458 32.5825L 63 32.0846ZM 0.325683 28.3547C 9.52548 20.4568 17.5137 14.4058 24.7605 9.98325L 24.2395 9.1297C 16.9506 13.5794 8.89762 19.6784 -0.325683 27.596L 0.325683 28.3547ZM -0.0723647 28.4701C 16.3056 30.8656 29.668 32.3346 40.9759 32.8795L 41.0241 31.8807C 29.7467 31.3377 16.4326 29.8737 0.0723647 27.4806L -0.0723647 28.4701ZM 24.0097 9.65438C 25.0492 14.8518 26.5312 18.7722 29.0925 22.3028C 31.6543 25.8208 35.3248 29.0038 40.7126 32.7893L 41.2874 31.971C 35.9404 28.2157 32.3909 25.1445 29.9013 21.7147C 27.4113 18.2975 26.0106 14.5765 24.9903 9.45856L 24.0097 9.65438ZM 24.7605 9.98325C 34.0464 4.31256 42.0269 1.35621 49.7362 0.662037C 57.4359 -0.0412557 64.7751 1.52139 72.8028 4.96901L 73.1972 4.05005C 65.0777 0.568256 57.4953 -1.03949 49.6459 -0.333883C 41.8062 0.380846 33.6103 3.41267 24.2395 9.1297L 24.7605 9.98325ZM 72.8028 4.96901C 80.978 8.47582 89.7804 13.9184 100.222 20.8911L 100.778 20.0595C 90.3211 13.0772 81.4393 7.5886 73.1972 4.05005L 72.8028 4.96901ZM 40.9759 32.8795C 49.3016 33.2804 56.5389 33.1805 63.0458 32.5825L 62.9542 31.5867C 56.4862 32.1819 49.3187 32.2805 41.0241 31.8807L 40.9759 32.8795ZM 63.0458 32.5825C 77.743 31.2269 88.8352 27.3179 100.737 20.9156L 100.263 20.035C 88.4308 26.4033 77.5293 30.25 62.9542 31.5867L 63.0458 32.5825ZM 72.5017 4.55076C 73.1841 12.7991 72.6802 18.0304 71.0566 21.9617C 69.4357 25.9138 66.6786 28.5745 62.692 31.6907L 63.308 32.4785C 67.3357 29.3283 70.2632 26.4753 71.9809 22.3434C 73.696 18.1907 74.1849 12.7677 73.4983 4.46831L 72.5017 4.55076Z"/>
</defs>
</svg>
