<svg width="421" height="209" viewBox="0 0 421 209" version="1.1" xmlns="http://www.w3.org/2000/svg" xmlns:xlink="http://www.w3.org/1999/xlink" xmlns:figma="http://www.figma.com/figma/ns">
<title>Vector 8</title>
<desc>Created using Figma</desc>
<g id="Canvas" transform="translate(2 -871)" figma:type="canvas">
<g id="Vector 8" style="mix-blend-mode:normal;" figma:type="vector">
<use xlink:href="#path0_stroke" transform="translate(-1 872)" style="mix-blend-mode:normal;"/>
</g>
</g>
<defs>
<path id="path0_stroke" d="M 78 112L 78.359 111.652L 78.3354 111.628L 78.3088 111.607L 78 112ZM 198 201L 197.774 201.446L 197.814 201.466L 197.856 201.479L 198 201ZM 218 207L 217.856 207.479L 218.085 207.548L 218.282 207.413L 218 207ZM 391 53.5L 390.648 53.1448L 390.629 53.1642L 390.611 53.1856L 391 53.5ZM -0.482516 13.1311C 11.7135 57.9538 33.9806 78.0771 77.6912 112.393L 78.3088 111.607C 34.6248 77.3122 12.5656 57.4304 0.482516 12.8689L -0.482516 13.1311ZM 77.641 112.348C 122.445 158.561 149.025 176.797 197.774 201.446L 198.226 200.554C 149.535 175.937 123.09 157.797 78.359 111.652L 77.641 112.348ZM 197.856 201.479L 217.856 207.479L 218.144 206.521L 198.144 200.521L 197.856 201.479ZM 218.282 207.413C 304.69 148.284 342.225 114.609 391.389 53.8144L 390.611 53.1856C 341.5 113.92 304.073 147.498 217.718 206.587L 218.282 207.413ZM 391.352 53.8552C 399.695 45.5889 405.616 38.6134 409.998 30.4849C 414.374 22.3569 417.235 13.0309 419.493 0.0858674L 418.507 -0.0858674C 416.262 12.7981 413.452 21.9713 409.118 30.0106C 404.79 38.0495 398.962 44.9094 390.648 53.1448L 391.352 53.8552Z"/>
</defs>
</svg>
