<svg width="497" height="68" viewBox="0 0 497 68" version="1.1" xmlns="http://www.w3.org/2000/svg" xmlns:xlink="http://www.w3.org/1999/xlink" xmlns:figma="http://www.figma.com/figma/ns">
<title>Vector 7</title>
<desc>Created using Figma</desc>
<g id="Canvas" transform="translate(81 -284)" figma:type="canvas">
<g id="Vector 7" style="mix-blend-mode:normal;" figma:type="vector">
<use xlink:href="#path0_stroke" transform="translate(-79.8738 284.557)" style="mix-blend-mode:normal;"/>
</g>
</g>
<defs>
<path id="path0_stroke" d="M 0.873805 37.4431L 0.601709 37.0237L 0.512066 37.0818L 0.45402 37.1715L 0.873805 37.4431ZM 56.3738 1.94316L 56.2184 1.46787L 56.2125 1.4699L 56.3738 1.94316ZM 167.374 30.9432L 167.592 30.4935L 167.579 30.4872L 167.566 30.4816L 167.374 30.9432ZM 167.374 54.4431L 167.49 53.9569L 167.374 54.4431ZM 136.874 44.9431L 137 44.4594L 136.874 44.9431ZM 493.374 39.4431L 493.409 39.9419L 494.95 39.8344L 493.638 39.0185L 493.374 39.4431ZM 438.374 1.94316L 438.546 1.47372L 438.447 1.43748L 438.342 1.44417L 438.374 1.94316ZM 438.374 37.4431L 438.386 37.943L 438.374 37.4431ZM 34.3738 9.44315L 34.2125 8.96989L 32.4545 9.56919L 34.2757 9.93344L 34.3738 9.44315ZM 39.3738 10.4431L 39.5595 10.9074L 41.1212 10.2827L 39.4719 9.95286L 39.3738 10.4431ZM 24.3738 16.4431L 24.1881 15.9789L 22.7524 16.5532L 24.2525 16.9282L 24.3738 16.4431ZM 30.3738 17.9431L 30.5277 18.4189L 32.1887 17.8815L 30.4951 17.4581L 30.3738 17.9431ZM 13.3738 23.4431L 13.2199 22.9674L 11.7714 23.4361L 13.2157 23.9175L 13.3738 23.4431ZM 19.3738 25.4431L 19.6459 25.8626L 20.5174 25.2973L 19.5319 24.9688L 19.3738 25.4431ZM 453.374 7.44315L 453.651 7.85917L 454.471 7.3128L 453.546 6.97371L 453.374 7.44315ZM 447.374 11.4431L 447.096 11.0271L 446.188 11.6327L 447.24 11.9249L 447.374 11.4431ZM 465.374 16.4431L 465.597 16.8904L 466.76 16.3092L 465.508 15.9614L 465.374 16.4431ZM 458.374 19.9431L 458.15 19.4959L 456.896 20.1231L 458.264 20.431L 458.374 19.9431ZM 478.374 24.4431L 478.727 24.7967L 479.369 24.1547L 478.484 23.9553L 478.374 24.4431ZM 474.874 27.9431L 474.52 27.5896L 474.075 28.0351L 474.61 28.3678L 474.874 27.9431ZM 56.5292 2.4184C 69.3625 -1.77709 87.1739 1.33696 106.773 7.60765C 126.349 13.87 147.579 23.237 167.182 31.4047L 167.566 30.4816C 147.973 22.318 126.704 12.935 107.078 6.65521C 87.4761 0.383716 69.3851 -2.83658 56.2184 1.46791L 56.5292 2.4184ZM 205.984 60.7564C 207.427 62.552 208.047 63.7628 208.133 64.5163C 208.172 64.8645 208.093 65.0681 207.973 65.2046C 207.84 65.3562 207.592 65.498 207.162 65.5846C 206.293 65.7597 204.933 65.6606 203.157 65.3173C 201.391 64.9764 199.294 64.4114 196.972 63.7018C 192.323 62.2816 186.843 60.2997 181.58 58.4452C 176.317 56.5907 171.26 54.8606 167.49 53.9569L 167.257 54.9294C 170.981 55.821 175.989 57.5353 181.248 59.3884C 186.507 61.2415 192.007 63.2303 196.679 64.6581C 199.018 65.3725 201.166 65.9508 202.967 66.2992C 204.758 66.6452 206.285 66.7815 207.36 66.5648C 207.902 66.4555 208.39 66.2446 208.724 65.865C 209.071 65.4704 209.19 64.9644 209.126 64.4029C 209.005 63.3369 208.209 61.9279 206.764 60.1299L 205.984 60.7564ZM 167.49 53.9569C 155.422 51.0697 149.129 47.6288 137 44.4594L 136.748 45.4269C 148.76 48.5583 155.062 52.0028 167.257 54.9294L 167.49 53.9569ZM 137 44.4594C 111.17 37.7181 74.3285 40.1049 45.415 42.0321C 30.9439 42.9966 18.4556 43.8485 10.2729 43.3987C 6.16006 43.1731 3.25054 42.6215 1.71126 41.67C 0.963474 41.2078 0.59916 40.689 0.518102 40.1118C 0.433969 39.5127 0.636603 38.7301 1.29359 37.7148L 0.45402 37.1715C -0.263993 38.2812 -0.604078 39.3116 -0.472181 40.2509C -0.33721 41.212 0.273253 41.9568 1.18546 42.5206C 2.96616 43.6214 6.11748 44.1722 10.2181 44.3972C 18.4622 44.8485 31.0112 43.9944 45.4816 43.0298C 74.4511 41.0989 111.109 38.7356 136.748 45.4269L 137 44.4594ZM 438.342 1.44417C 386.639 4.73296 349.163 6.10146 319.555 30.5577L 320.192 31.3287C 349.496 7.12359 386.583 5.73854 438.406 2.44215L 438.342 1.44417ZM 319.555 30.5577C 312.177 36.6522 307.772 41.3415 305.401 44.9631C 303.037 48.574 302.629 51.233 303.488 53.1805C 304.337 55.1058 306.338 56.1245 308.272 56.683C 310.22 57.2428 312.255 57.3833 313.347 57.4424L 313.401 56.4439C 312.316 56.3851 310.393 56.258 308.549 55.7223C 306.691 55.1855 305.066 54.2808 304.403 52.7769C 303.749 51.2953 303.941 49.0191 306.238 45.5108C 308.527 42.0134 312.843 37.3994 320.192 31.3287L 319.555 30.5577ZM 313.347 57.4424C 313.679 57.4604 314.3 57.391 315.124 57.2682C 315.965 57.1426 317.077 56.9512 318.423 56.7044C 321.112 56.2113 324.761 55.4931 329.14 54.6223C 337.897 52.8807 349.583 50.5272 362.399 48.1361C 388.033 43.3537 418.155 38.4251 438.386 37.943L 438.362 36.9433C 418.062 37.4294 387.861 42.3687 362.216 47.1531C 349.393 49.5455 337.7 51.9002 328.945 53.6415C 324.567 54.5121 320.926 55.2289 318.242 55.7208C 316.902 55.9666 315.806 56.1552 314.976 56.2791C 314.128 56.4057 313.613 56.4553 313.401 56.4439L 313.347 57.4424ZM 438.386 37.943C 461.89 37.3709 471.794 41.4368 493.409 39.9419L 493.339 38.9444C 471.953 40.4495 462.072 36.3875 438.362 36.9433L 438.386 37.943ZM 167.155 31.3928C 185.612 40.3672 194.482 46.4358 205.984 60.7564L 206.764 60.1299C 195.161 45.7021 186.115 39.5027 167.592 30.4935L 167.155 31.3928ZM 56.2125 1.4699L 34.2125 8.96989L 34.5351 9.9164L 56.5351 2.41641L 56.2125 1.4699ZM 34.2757 9.93344L 39.2757 10.9334L 39.4719 9.95286L 34.4719 8.95286L 34.2757 9.93344ZM 39.1881 9.97891L 24.1881 15.9789L 24.5595 16.9074L 39.5595 10.9074L 39.1881 9.97891ZM 24.2525 16.9282L 30.2525 18.4282L 30.4951 17.4581L 24.4951 15.9581L 24.2525 16.9282ZM 30.2199 17.4674L 13.2199 22.9674L 13.5277 23.9189L 30.5277 18.4189L 30.2199 17.4674ZM 13.2157 23.9175L 19.2157 25.9175L 19.5319 24.9688L 13.5319 22.9688L 13.2157 23.9175ZM 19.1017 25.0237L 0.601709 37.0237L 1.1459 37.8626L 19.6459 25.8626L 19.1017 25.0237ZM 438.202 2.41259L 453.202 7.91258L 453.546 6.97371L 438.546 1.47372L 438.202 2.41259ZM 453.096 7.02712L 447.096 11.0271L 447.651 11.8592L 453.651 7.85917L 453.096 7.02712ZM 447.24 11.9249L 465.24 16.9249L 465.508 15.9614L 447.508 10.9614L 447.24 11.9249ZM 465.15 15.9959L 458.15 19.4959L 458.597 20.3904L 465.597 16.8904L 465.15 15.9959ZM 458.264 20.431L 478.264 24.931L 478.484 23.9553L 458.484 19.4553L 458.264 20.431ZM 478.02 24.0896L 474.52 27.5896L 475.227 28.2967L 478.727 24.7967L 478.02 24.0896ZM 474.61 28.3678L 493.11 39.8678L 493.638 39.0185L 475.138 27.5185L 474.61 28.3678Z"/>
</defs>
</svg>
