<svg width="750" height="1033" viewBox="0 0 750 1033" version="1.1" xmlns="http://www.w3.org/2000/svg" xmlns:xlink="http://www.w3.org/1999/xlink" xmlns:figma="http://www.figma.com/figma/ns">
<title>Vector 2</title>
<desc>Created using Figma</desc>
<g id="Canvas" transform="translate(189 151)" figma:type="canvas">
<g id="Vector 2" style="mix-blend-mode:normal;" figma:type="vector">
<use xlink:href="#path0_stroke" transform="translate(-188.016 -150.362)" style="mix-blend-mode:normal;"/>
</g>
</g>
<defs>
<path id="path0_stroke" d="M 57.0156 510.862L 56.6491 511.202L 57.4183 510.566L 57.0156 510.862ZM 20.5156 491.862L 20.4097 491.373L 20.3511 491.386L 20.2972 491.412L 20.5156 491.862ZM 10.5156 501.862L 10.086 501.606L 10.0798 501.617L 10.5156 501.862ZM 0.0155535 548.862L -0.484425 548.867L -0.483632 548.953L -0.453901 549.034L 0.0155535 548.862ZM 57.0156 704.362L 57.5134 704.408L 57.5238 704.296L 57.485 704.19L 57.0156 704.362ZM 68.0156 736.862L 67.6941 737.245L 67.7735 737.312L 67.8727 737.341L 68.0156 736.862ZM 92.5156 739.362L 92.9978 739.23L 92.89 738.837L 92.483 738.863L 92.5156 739.362ZM 114.016 817.862L 113.533 817.994L 113.538 818.012L 113.545 818.03L 114.016 817.862ZM 176.016 926.362L 175.631 926.681L 175.641 926.693L 175.651 926.704L 176.016 926.362ZM 295.516 1018.86L 295.276 1019.3L 295.317 1019.32L 295.363 1019.34L 295.516 1018.86ZM 425.016 1022.86L 425.137 1023.35L 425.166 1023.34L 425.194 1023.33L 425.016 1022.86ZM 564.016 935.862L 564.354 936.23L 564.379 936.207L 564.4 936.181L 564.016 935.862ZM 623.516 831.362L 623.052 831.176L 623.049 831.183L 623.046 831.19L 623.516 831.362ZM 648.516 736.362L 648.702 735.898L 648.116 735.663L 648.021 736.287L 648.516 736.362ZM 688.516 731.862L 688.874 732.211L 688.932 732.151L 688.968 732.075L 688.516 731.862ZM 745.516 574.362L 745.029 574.245L 745.029 574.247L 745.516 574.362ZM 675.516 519.862L 675.162 520.216L 675.583 520.636L 675.925 520.149L 675.516 519.862ZM 666.016 510.362L 665.663 510.008L 665.308 510.362L 665.662 510.716L 666.016 510.362ZM 681.062 495.362L 681.415 495.716L 682.272 494.862L 681.062 494.862L 681.062 495.362ZM 675.516 495.362L 675.062 495.153L 674.734 495.862L 675.516 495.862L 675.516 495.362ZM 684.516 475.862L 684.97 476.072L 685.297 475.362L 684.516 475.362L 684.516 475.862ZM 676.972 475.862L 676.475 475.8L 676.405 476.362L 676.972 476.362L 676.972 475.862ZM 684.516 415.318L 685.012 415.379L 685.019 415.321L 685.013 415.262L 684.516 415.318ZM 676.972 347.279L 677.469 347.224L 677.467 347.207L 677.464 347.191L 676.972 347.279ZM 663.516 271.862L 664.008 271.774L 664.001 271.734L 663.987 271.695L 663.516 271.862ZM 638.016 199.862L 638.487 199.695L 638.461 199.621L 638.413 199.559L 638.016 199.862ZM 591.016 111.077L 590.528 111.188L 591.016 111.077ZM 534.016 64.3621L 533.716 63.9621L 532.981 64.5133L 533.843 64.8312L 534.016 64.3621ZM 546.016 55.3621L 546.316 55.7621L 545.936 54.8684L 546.016 55.3621ZM 515.016 60.3621L 514.784 60.8054L 514.931 60.8821L 515.095 60.8557L 515.016 60.3621ZM 505.423 55.3621L 505.306 54.8758L 504.005 55.187L 505.191 55.8054L 505.423 55.3621ZM 530.516 49.3621L 530.632 49.8484L 530.516 48.8621L 530.516 49.3621ZM 493.893 49.3621L 493.842 49.8595L 493.867 49.8621L 493.893 49.8621L 493.893 49.3621ZM 415.516 41.3621L 415.566 40.8646L 415.541 40.8621L 415.516 40.8621L 415.516 41.3621ZM 338.378 41.3621L 337.878 41.3621L 337.878 41.8621L 338.378 41.8621L 338.378 41.3621ZM 338.378 0L 338.878 0L 337.887 -0.0939605L 338.378 0ZM 330.464 41.3621L 329.986 41.5105L 330.955 41.456L 330.464 41.3621ZM 317.604 0L 318.081 -0.148446L 317.104 0L 317.604 0ZM 317.604 41.3621L 317.698 41.853L 318.104 41.775L 318.104 41.3621L 317.604 41.3621ZM 276.057 49.3621L 275.754 49.7601L 275.932 49.8953L 276.151 49.853L 276.057 49.3621ZM 242.516 23.8621L 242.818 23.464L 242.105 24.1473L 242.516 23.8621ZM 260.229 49.3621L 260.36 49.8447L 261.044 49.6593L 260.64 49.0768L 260.229 49.3621ZM 204.832 64.3621L 204.788 64.8601L 204.877 64.8681L 204.963 64.8447L 204.832 64.3621ZM 160.317 60.3621L 160.362 59.8641L 158.506 59.6973L 160.029 60.7707L 160.317 60.3621ZM 183.016 76.3621L 183.214 76.8211L 184.033 76.4675L 183.304 75.9534L 183.016 76.3621ZM 135.516 96.8621L 135.317 96.403L 135.209 96.4499L 135.132 96.5407L 135.516 96.8621ZM 61.5156 299.862L 62.0036 299.971L 62.0045 299.967L 61.5156 299.862ZM 38.5156 402.862L 38.0276 402.753L 38.0156 402.807L 38.0156 402.862L 38.5156 402.862ZM 38.5156 485.709L 38.0156 485.709L 38.0156 485.873L 38.1128 486.005L 38.5156 485.709ZM 57.382 510.522C 49.8096 502.365 43.9423 496.843 38.2853 493.732C 32.6199 490.625 27.1049 489.93 20.4097 491.373L 20.6215 492.351C 27.149 490.929 32.311 491.576 37.8033 494.608C 43.3042 497.634 49.0755 503.044 56.6491 511.202L 57.382 510.522ZM 20.2972 491.412C 16.9486 493.038 15.0212 494.511 13.6084 496.143C 12.2146 497.76 11.3457 499.495 10.0861 501.606L 10.945 502.118C 12.2232 499.974 13.0467 498.315 14.3645 496.798C 15.6634 495.297 17.4671 493.898 20.7339 492.312L 20.2972 491.412ZM 10.0798 501.617C 0.626165 518.444 -0.664303 529.177 -0.484425 548.867L 0.515532 548.857C 0.334193 529.232 1.57677 518.755 10.9513 502.107L 10.0798 501.617ZM -0.453901 549.034L 56.5461 704.534L 57.485 704.19L 0.485008 548.69L -0.453901 549.034ZM 56.5177 704.316C 55.7191 712.953 55.9762 719.08 57.7185 724.111C 59.4618 729.12 62.6911 733.044 67.6941 737.245L 68.337 736.479C 63.4011 732.34 60.3338 728.63 58.6634 723.783C 56.9922 718.958 56.7187 713.004 57.5134 704.408L 56.5177 704.316ZM 67.8727 737.341C 77.5616 740.226 83.0045 740.483 92.5481 739.861L 92.483 738.863C 82.9952 739.483 77.729 739.24 68.1584 736.383L 67.8727 737.341ZM 92.0333 739.494L 113.533 817.994L 114.498 817.73L 92.9978 739.23L 92.0333 739.494ZM 113.545 818.03C 130.181 864.565 143.841 888.375 175.631 926.681L 176.4 926.043C 144.662 887.804 131.089 864.146 114.486 817.694L 113.545 818.03ZM 175.651 926.704C 219.188 973.034 245.765 992.212 295.276 1019.3L 295.756 1018.42C 246.299 991.366 219.848 972.282 176.38 926.02L 175.651 926.704ZM 295.363 1019.34C 346.005 1035.61 374.498 1036.03 425.137 1023.35L 424.894 1022.38C 374.383 1035.04 346.167 1034.63 295.669 1018.39L 295.363 1019.34ZM 425.194 1023.33C 486.735 999.813 516.794 980.052 564.354 936.23L 563.677 935.494C 516.178 979.263 486.279 998.923 424.837 1022.39L 425.194 1023.33ZM 564.4 936.181C 592.613 902.183 606.221 879.971 623.985 831.534L 623.046 831.19C 605.321 879.536 591.8 901.601 563.631 935.543L 564.4 936.181ZM 623.98 831.548C 638.011 796.588 643.09 775.523 649.01 736.437L 648.021 736.287C 642.109 775.331 637.058 796.284 623.052 831.176L 623.98 831.548ZM 648.329 736.826C 658.136 740.764 665.365 742.632 671.611 741.985C 677.89 741.335 683.093 738.155 688.874 732.211L 688.157 731.513C 682.462 737.37 677.463 740.374 671.508 740.991C 665.522 741.611 658.489 739.828 648.702 735.898L 648.329 736.826ZM 688.968 732.075C 715.938 674.751 730.158 641.75 746.002 574.477L 745.029 574.247C 729.209 641.437 715.026 674.34 688.063 731.649L 688.968 732.075ZM 746.002 574.479C 751.462 551.783 747.29 530.357 740.334 514.758C 736.848 506.948 732.638 500.536 728.602 496.139C 726.576 493.935 724.556 492.202 722.702 491.055C 720.838 489.904 719.059 489.286 717.491 489.363L 717.54 490.361C 718.823 490.299 720.397 490.806 722.177 491.906C 723.966 493.01 725.88 494.654 727.865 496.816C 731.85 501.151 735.97 507.428 739.42 515.165C 746.337 530.659 750.463 551.761 745.029 574.245L 746.002 574.479ZM 717.491 489.363C 705.886 489.928 691.339 496.458 675.106 519.575L 675.925 520.149C 692.044 497.195 706.338 490.907 717.54 490.361L 717.491 489.363ZM 675.869 519.509L 666.369 510.009L 665.662 510.716L 675.162 520.216L 675.869 519.509ZM 666.369 510.716L 681.415 495.716L 680.709 495.008L 665.663 510.008L 666.369 510.716ZM 681.062 494.862L 675.516 494.862L 675.516 495.862L 681.062 495.862L 681.062 494.862ZM 675.97 495.572L 684.97 476.072L 684.062 475.653L 675.062 495.153L 675.97 495.572ZM 684.516 475.362L 676.972 475.362L 676.972 476.362L 684.516 476.362L 684.516 475.362ZM 677.468 475.924L 685.012 415.379L 684.019 415.256L 676.475 475.8L 677.468 475.924ZM 685.013 415.262L 677.469 347.224L 676.475 347.334L 684.019 415.373L 685.013 415.262ZM 677.464 347.191L 664.008 271.774L 663.023 271.95L 676.479 347.367L 677.464 347.191ZM 663.987 271.695L 638.487 199.695L 637.544 200.029L 663.044 272.029L 663.987 271.695ZM 638.016 199.862C 638.413 199.559 638.413 199.559 638.413 199.559C 638.413 199.558 638.412 199.557 638.411 199.557C 638.41 199.555 638.408 199.553 638.406 199.549C 638.401 199.543 638.393 199.533 638.383 199.52C 638.363 199.493 638.334 199.454 638.294 199.403C 638.215 199.299 638.099 199.146 637.946 198.945C 637.641 198.544 637.192 197.955 636.619 197.203C 635.474 195.698 633.831 193.54 631.843 190.926C 627.867 185.7 622.507 178.653 616.976 171.372C 605.914 156.81 594.166 141.313 591.419 137.566L 590.612 138.158C 593.365 141.911 605.117 157.414 616.18 171.977C 621.711 179.258 627.071 186.305 631.047 191.532C 633.036 194.145 634.678 196.304 635.824 197.808C 636.397 198.561 636.845 199.15 637.15 199.551C 637.303 199.752 637.42 199.905 637.499 200.008C 637.538 200.06 637.568 200.099 637.588 200.125C 637.598 200.139 637.605 200.148 637.61 200.155C 637.613 200.158 637.615 200.161 637.616 200.162C 637.616 200.163 637.617 200.164 637.617 200.164C 637.618 200.165 637.618 200.165 638.016 199.862ZM 591.419 137.566C 588.814 134.014 589.335 130.078 590.315 125.588C 591.284 121.151 592.699 116.199 591.503 110.966L 590.528 111.188C 591.662 116.152 590.327 120.843 589.338 125.374C 588.361 129.853 587.718 134.21 590.612 138.158L 591.419 137.566ZM 591.503 110.966C 588.247 96.7155 573.821 84.943 560.371 76.7706C 553.628 72.6737 547.077 69.4509 542.226 67.26C 539.798 66.1634 537.788 65.3212 536.389 64.7551C 535.689 64.4715 535.139 64.2559 534.765 64.1119C 534.578 64.0397 534.434 63.985 534.337 63.9486C 534.289 63.9303 534.252 63.9164 534.227 63.9072C 534.214 63.9025 534.205 63.899 534.199 63.8967C 534.195 63.8955 534.193 63.8945 534.191 63.894C 534.19 63.8936 534.19 63.8934 534.189 63.8932C 534.189 63.8931 534.189 63.8929 534.016 64.3621C 533.843 64.8312 533.843 64.8312 533.843 64.8313C 533.843 64.8314 533.844 64.8316 533.844 64.8319C 533.846 64.8324 533.848 64.8332 533.851 64.8343C 533.857 64.8365 533.866 64.8398 533.878 64.8442C 533.902 64.8532 533.937 64.8664 533.985 64.8843C 534.08 64.9202 534.221 64.9737 534.405 65.045C 534.776 65.188 535.319 65.4006 536.014 65.682C 537.407 66.2458 539.399 67.0804 541.815 68.1713C 546.65 70.3554 553.147 73.5505 559.852 77.6252C 573.299 85.7958 587.374 97.3807 590.528 111.188L 591.503 110.966ZM 534.316 64.7621L 546.316 55.7621L 545.716 54.9621L 533.716 63.9621L 534.316 64.7621ZM 545.936 54.8684L 514.936 59.8684L 515.095 60.8557L 546.095 55.8557L 545.936 54.8684ZM 515.247 59.9187L 505.654 54.9187L 505.191 55.8054L 514.784 60.8054L 515.247 59.9187ZM 505.539 55.8484L 530.632 49.8484L 530.399 48.8758L 505.306 54.8758L 505.539 55.8484ZM 530.516 48.8621L 493.893 48.8621L 493.893 49.8621L 530.516 49.8621L 530.516 48.8621ZM 493.944 48.8646L 415.566 40.8646L 415.465 41.8595L 493.842 49.8595L 493.944 48.8646ZM 415.516 40.8621C 385.391 40.8621 368.502 40.8621 338.378 40.8621L 338.378 41.8621C 368.502 41.8621 385.391 41.8621 415.516 41.8621L 415.516 40.8621ZM 338.878 41.3621L 338.878 0L 337.878 0L 337.878 41.3621L 338.878 41.3621ZM 337.887 -0.0939605L 329.973 41.2681L 330.955 41.456L 338.869 0.0939605L 337.887 -0.0939605ZM 330.941 41.2136L 318.081 -0.148446L 317.126 0.148446L 329.986 41.5105L 330.941 41.2136ZM 317.104 0L 317.104 41.3621L 318.104 41.3621L 318.104 0L 317.104 0ZM 317.509 40.8711L 275.962 48.8711L 276.151 49.853L 317.698 41.853L 317.509 40.8711ZM 276.359 48.964L 242.818 23.464L 242.213 24.2601L 275.754 49.7601L 276.359 48.964ZM 242.105 24.1473L 259.818 49.6473L 260.64 49.0768L 242.926 23.5768L 242.105 24.1473ZM 260.098 48.8794L 204.702 63.8794L 204.963 64.8447L 260.36 49.8447L 260.098 48.8794ZM 204.877 63.8641L 160.362 59.8641L 160.273 60.8601L 204.788 64.8601L 204.877 63.8641ZM 160.029 60.7707L 182.727 76.7707L 183.304 75.9534L 160.605 59.9534L 160.029 60.7707ZM 182.817 75.903L 135.317 96.403L 135.714 97.3211L 183.214 76.8211L 182.817 75.903ZM 135.132 96.5407C 107.567 129.41 98.0851 148.917 88.0341 184.727L 88.997 184.997C 99.0199 149.272 108.407 129.954 135.899 97.1834L 135.132 96.5407ZM 88.0341 184.727C 83.0129 202.621 76.2599 231.384 70.764 255.665C 68.0161 267.805 65.5816 278.829 63.8344 286.816C 62.9608 290.81 62.2588 294.045 61.7753 296.282C 61.5336 297.4 61.3464 298.269 61.2197 298.858C 61.1563 299.153 61.1081 299.378 61.0756 299.529C 61.0594 299.604 61.0472 299.661 61.039 299.7C 61.0349 299.719 61.0318 299.733 61.0297 299.743C 61.0287 299.748 61.0279 299.751 61.0274 299.754C 61.0272 299.755 61.027 299.756 61.0268 299.756C 61.0267 299.757 61.0266 299.757 61.5156 299.862C 62.0045 299.967 62.0045 299.966 62.0047 299.966C 62.0048 299.965 62.005 299.964 62.0052 299.963C 62.0058 299.961 62.0065 299.957 62.0076 299.952C 62.0096 299.943 62.0127 299.928 62.0168 299.909C 62.025 299.871 62.0372 299.814 62.0534 299.739C 62.0858 299.588 62.134 299.363 62.1973 299.069C 62.324 298.48 62.5111 297.611 62.7527 296.493C 63.2361 294.257 63.9378 291.023 64.8113 287.03C 66.5583 279.044 68.992 268.024 71.7394 255.885C 77.2343 231.608 83.9813 202.871 88.997 184.997L 88.0341 184.727ZM 61.0276 299.753L 38.0276 402.753L 39.0035 402.971L 62.0035 299.971L 61.0276 299.753ZM 38.1128 486.005L 56.6128 511.158L 57.4183 510.566L 38.9183 485.413L 38.1128 486.005ZM 38.0156 402.862L 38.0156 455.008L 39.0156 455.008L 39.0156 402.862L 38.0156 402.862ZM 38.0156 455.008L 38.0156 485.709L 39.0156 485.709L 39.0156 455.008L 38.0156 455.008Z"/>
</defs>
</svg>
