<svg width="292" height="201" viewBox="0 0 292 201" version="1.1" xmlns="http://www.w3.org/2000/svg" xmlns:xlink="http://www.w3.org/1999/xlink" xmlns:figma="http://www.figma.com/figma/ns">
<title>Vector 3</title>
<desc>Created using Figma</desc>
<g id="Canvas" transform="translate(25 -386)" figma:type="canvas">
<g id="Vector 3" style="mix-blend-mode:normal;" figma:type="vector">
<use xlink:href="#path0_stroke" transform="translate(-23.5 386.694)" style="mix-blend-mode:normal;"/>
</g>
</g>
<defs>
<path id="path0_stroke" d="M 175.5 185.806L 175.462 186.304L 176.966 186.418L 175.828 185.428L 175.5 185.806ZM 136.5 183.806L 136.007 183.724L 135.794 185.008L 136.812 184.197L 136.5 183.806ZM 213 183.806L 212.648 183.45L 211.428 184.659L 213.106 184.294L 213 183.806ZM 250.5 178.306L 250.825 177.925L 250.772 177.88L 250.708 177.851L 250.5 178.306ZM 255 185.806L 254.903 186.296L 255.55 186.423L 255.498 185.767L 255 185.806ZM 113 29.3055L 113.034 29.8044L 114.124 29.7299L 113.355 28.9537L 113 29.3055ZM 0 14.8056L -0.180223 14.3392L -1.20303 14.7344L -0.233945 15.2475L 0 14.8056ZM 81.7073 5.03746L 81.9172 4.58365L 81.7073 5.03746ZM 65.9039 31.0388L 65.8959 31.5387L 65.9039 31.0388ZM 52.9445 0.203891L 52.9815 0.702517L 52.9445 0.203891ZM 136.248 123.873C 108.004 140.331 97.6458 159.412 100.18 174.389C 102.72 189.398 118.124 199.888 140.513 199.305L 140.487 198.306C 118.366 198.882 103.589 188.543 101.166 174.222C 98.7374 159.869 108.634 141.121 136.752 124.738L 136.248 123.873ZM 247.895 124.794C 270.413 129.65 286.4 145.543 288.914 161.511C 290.168 169.476 288.079 177.483 281.752 184.218C 275.413 190.964 264.787 196.467 248.912 199.313L 249.088 200.298C 265.093 197.428 275.947 191.857 282.481 184.902C 289.026 177.936 291.202 169.616 289.902 161.356C 287.308 144.875 270.915 128.735 248.105 123.817L 247.895 124.794ZM 175.828 185.428C 168.791 179.307 162.991 175.475 156.857 174.872C 150.698 174.267 144.334 176.924 136.188 183.415L 136.812 184.197C 144.888 177.762 150.99 175.3 156.759 175.867C 162.552 176.437 168.142 180.068 175.172 186.183L 175.828 185.428ZM 136.993 183.887C 137.036 183.627 137.061 183.417 137.069 183.277C 137.073 183.2 137.072 183.112 137.066 183.054C 137.061 183.016 137.048 182.95 137.035 182.908C 137.02 182.865 136.973 182.736 136.838 182.641C 136.654 182.511 136.448 182.533 136.312 182.6C 136.207 182.652 136.145 182.727 136.121 182.757C 136.066 182.827 136.029 182.905 136.007 182.955C 135.963 183.058 135.91 183.218 135.863 183.392C 135.685 184.059 135.48 185.35 135.552 186.691C 135.627 188.027 135.98 189.531 136.994 190.596C 138.037 191.69 139.676 192.219 142.086 191.798L 141.914 190.813C 139.729 191.195 138.466 190.69 137.718 189.906C 136.943 189.092 136.62 187.873 136.551 186.635C 136.479 185.402 136.663 184.267 136.829 183.65C 136.868 183.504 136.897 183.415 136.924 183.354C 136.937 183.324 136.933 183.342 136.906 183.376C 136.897 183.388 136.848 183.451 136.754 183.497C 136.63 183.558 136.435 183.58 136.261 183.458C 136.135 183.369 136.096 183.253 136.088 183.229C 136.075 183.191 136.072 183.165 136.072 183.163C 136.07 183.154 136.073 183.177 136.07 183.223C 136.065 183.331 136.046 183.486 136.007 183.724L 136.993 183.887ZM 142.086 191.798C 146.726 190.985 151.236 189.312 156.494 187.998C 161.758 186.682 167.756 185.718 175.462 186.304L 175.538 185.307C 167.714 184.719 161.557 185.702 156.251 187.028C 150.94 188.356 146.465 190.02 141.914 190.813L 142.086 191.798ZM 213.352 184.161C 219.418 178.153 224.144 174.793 229.559 173.907C 234.981 173.021 241.199 174.6 250.292 178.76L 250.708 177.851C 241.583 173.676 235.131 171.983 229.397 172.92C 223.656 173.859 218.74 177.417 212.648 183.45L 213.352 184.161ZM 213.106 184.294C 227.563 181.143 238.597 183.086 254.903 186.296L 255.097 185.315C 238.78 182.103 227.543 180.143 212.894 183.317L 213.106 184.294ZM 255.498 185.767C 255.383 184.303 255.111 183.074 254.421 181.863C 253.734 180.675 252.608 179.45 250.825 177.925L 250.175 178.686C 251.915 180.171 252.928 181.267 253.554 182.362C 254.178 183.434 254.394 184.449 254.502 185.844L 255.498 185.767ZM 113.355 28.9537C 101.942 17.4334 92.1662 9.32876 81.9172 4.58365L 81.4974 5.49126C 91.6326 10.1745 101.267 18.171 112.645 29.6574L 113.355 28.9537ZM 65.8959 31.5387C 78.6372 31.7429 93.8676 31.1145 113.034 29.8044L 112.966 28.8067C 93.8129 30.116 78.6246 30.743 65.912 30.5388L 65.8959 31.5387ZM 81.208 5.06326C 81.6042 12.7308 80.7072 17.707 78.2714 21.4511C 75.8318 25.2009 71.7956 27.7995 65.6963 30.5839L 66.1116 31.4936C 72.2422 28.6949 76.5058 25.9986 79.1096 21.9964C 81.7171 17.9885 82.6068 12.7556 82.2067 5.01165L 81.208 5.06326ZM 36.958 2.25687C 26.4467 4.69305 14.3148 8.73816 -0.180223 14.3392L 0.180223 15.272C 14.6533 9.67914 26.718 5.65554 37.1838 3.23106L 36.958 2.25687ZM -0.233945 15.2475C 15.3283 23.4851 28.3743 28.2777 46.2396 30.3488L 46.3546 29.3554C 28.6059 27.3049 15.7356 22.5718 0.233945 14.3637L -0.233945 15.2475ZM 46.2396 30.3488C 52.1642 31.0342 58.6341 31.4221 65.8959 31.5387L 65.912 30.5388C 58.672 30.4228 52.2517 30.0381 46.3546 29.3554L 46.2396 30.3488ZM 36.5813 2.64239C 35.2375 9.11928 35.2044 13.8731 36.7283 18.1012C 38.2496 22.322 41.2981 25.9486 45.9592 30.2207L 46.6349 29.4835C 42.0057 25.2406 39.1059 21.7488 37.6691 17.7621C 36.2348 13.7827 36.2338 9.23995 37.5605 2.84554L 36.5813 2.64239ZM 81.9172 4.58365C 73.0906 0.505734 63.8402 -1.10291 52.9074 -0.294736L 52.9815 0.702517C 63.7912 -0.104111 72.7926 1.46028 81.4974 5.49126L 81.9172 4.58365ZM 52.9074 -0.294736C 47.9908 0.070884 42.7039 0.925777 36.958 2.25687L 37.1838 3.23106C 42.8967 1.90701 48.1078 1.06402 52.9815 0.702517L 52.9074 -0.294736Z"/>
</defs>
</svg>
